<svg id="Desktop" xmlns="http://www.w3.org/2000/svg" viewBox="0 0 250 211.62"><defs><style>.cls-1{fill:#fff;}.cls-2{fill:#002a3a;}</style></defs><rect class="cls-1" width="250" height="211.62"/><g id="Logos"><path class="cls-2" d="M113.62,159l.14.16-.07-.08-.06-.07Z"/><path class="cls-2" d="M139.21,133.78a3.61,3.61,0,0,1-1.81-.56,3.21,3.21,0,0,1-.93-1.27l-1.23-2.81-9.16-21.78h-1.59l-8,19.07c-.82,1.92-.94,2.24-1,2.34a14.06,14.06,0,0,1-2,3.95,3.79,3.79,0,0,1-2.3,1.06l-.52.08v2H120v-2.14h-.61a2.75,2.75,0,0,1-1.74-.5,1.55,1.55,0,0,1-.59-1.35c0-.46.26-1.63,1.51-4.61l.54-1.33h8.14l1.92,4.61c.8,1.9,1.08,2.22.91,2.65s-1.21.53-1.49.53h-.61v2.13h11.82v-2.08ZM120,123.86l3.26-7.46,3.13,7.46Z"/><path class="cls-2" d="M227.45,133.78a3.61,3.61,0,0,1-1.81-.56,3.21,3.21,0,0,1-.93-1.27l-1.23-2.81-9.16-21.78h-1.59l-8,19.07c-.81,1.92-.93,2.24-1,2.34a14.36,14.36,0,0,1-2,3.95,3.79,3.79,0,0,1-2.3,1.06l-.52.08v2h9.23v-2.14h-.61a2.8,2.8,0,0,1-1.75-.5,1.57,1.57,0,0,1-.58-1.35c0-.46.26-1.63,1.51-4.61l.54-1.33h8.14l1.91,4.61c.81,1.9,1.09,2.22.92,2.65s-1.21.53-1.49.53h-.61v2.13H228v-2.08Zm-19.24-9.92,3.25-7.46,3.14,7.46Z"/><path class="cls-2" d="M58.11,122.21a16.94,16.94,0,0,1-2,6.12,10.49,10.49,0,0,1-4.44,4.41,9.53,9.53,0,0,1-4.25,1.3,10.42,10.42,0,0,1-8.37-4c-2.27-2.68-3.41-6.63-3.41-11.73,0-5.41,1-9.61,3.13-12.48a9.65,9.65,0,0,1,8.29-4.24,10,10,0,0,1,6.45,2.62c2.38,2.18,3.87,5.3,4.57,9.53l.08.51h2.27L60.12,99.7H57.83v.69a6.07,6.07,0,0,1-1,3.38,16.85,16.85,0,0,0-11.76-4.72,18.36,18.36,0,0,0-9.07,2.3,15.76,15.76,0,0,0-6.47,7.11,22.81,22.81,0,0,0-2.3,10.08c0,5.43,1.69,9.87,5,13.2a17.6,17.6,0,0,0,12.89,5A15.77,15.77,0,0,0,57,131.86a9.35,9.35,0,0,1,1.16,2.87l.1.48h2.22V121.66H58.17Z"/><path class="cls-2" d="M90.29,133.78a3.61,3.61,0,0,1-1.81-.56,3.21,3.21,0,0,1-.93-1.27l-1.23-2.81-9.16-21.78H75.57l-8,19.07c-.81,1.92-.93,2.24-1,2.34a14.06,14.06,0,0,1-2,3.95,3.79,3.79,0,0,1-2.3,1.06l-.52.08v2H71v-2.14h-.61a2.8,2.8,0,0,1-1.75-.5,1.57,1.57,0,0,1-.58-1.35c0-.46.26-1.63,1.51-4.61l.54-1.33h8.14l1.91,4.61c.8,1.9,1.09,2.22.92,2.65s-1.21.53-1.49.53H79v2.13H90.84v-2.08Zm-19.24-9.92,3.25-7.46,3.14,7.46Z"/><path class="cls-2" d="M114.66,107.74H87.3l-.16,7.7H89.2l.08-.51a10,10,0,0,1,1.12-3.59,2.61,2.61,0,0,1,1.32-1.24,15,15,0,0,1,3.34-.22h3.38v18.41a26.7,26.7,0,0,1-.18,4.18,1.41,1.41,0,0,1-.59,1,4.1,4.1,0,0,1-2.06.33h-2v2.14h14.66v-2.14h-1.58a2.08,2.08,0,0,1-1.18-.36,1.5,1.5,0,0,1-.56-1.06,36.67,36.67,0,0,1-.14-4.06V109.88h2.45a11.72,11.72,0,0,1,2.95.24,2.74,2.74,0,0,1,1.37,1.21,9.77,9.77,0,0,1,1.16,3.6l.09.51h2Z"/><path class="cls-2" d="M165.1,107.74v2.14h.61c1.54,0,2.19.6,2.19,2a16.73,16.73,0,0,1-.79,3.62L163.72,127l-7.21-19.28h-2.39l-6,18.51-4-12.14a15.47,15.47,0,0,1-.81-3.17,1.11,1.11,0,0,1,.31-.77c.12-.13.36-.24,1.16-.3l.57,0v-2.1H134v2.11l.58,0a3.28,3.28,0,0,1,1.75.39,2.51,2.51,0,0,1,.8,1.13c.25.6.67,1.87,1.24,3.75L145,136.57h1.85l6.77-21,7.74,21h1.78l6.05-20.73c1-3.31,1.58-4.55,1.92-5a2.49,2.49,0,0,1,2-1l.57,0v-2.09Z"/><path class="cls-2" d="M196.56,122.62a9.47,9.47,0,0,0-4-2,9,9,0,0,0,2.9-1.55,5.87,5.87,0,0,0,2.12-4.69c0-4.62-3.92-7-11.68-7l-5,.16-5,.14v2.12h1.13a5.52,5.52,0,0,1,2.34.27,1.28,1.28,0,0,1,.51.9,26.57,26.57,0,0,1,.18,4.12v13.12a27.54,27.54,0,0,1-.17,4.18,1.43,1.43,0,0,1-.58,1,4.13,4.13,0,0,1-2.06.33h-1.65v2.14H186.7a28.61,28.61,0,0,0,6.45-.58,7.65,7.65,0,0,0,4.2-2.61A7.36,7.36,0,0,0,199,128,6.79,6.79,0,0,0,196.56,122.62Zm-6.25-10.88a6.38,6.38,0,0,1,.55,3,5,5,0,0,1-1.36,3.91c-.93.8-2.77,1.2-5.46,1.2h-1V109.69l1.8,0a9.68,9.68,0,0,1,3.94.56A3.53,3.53,0,0,1,190.31,111.74Zm-7.19,20.44c-.09-.66-.13-2.27-.13-4.79V122l1.72,0c2.86,0,4.85.48,5.93,1.43a5.66,5.66,0,0,1,1.59,4.46,6.18,6.18,0,0,1-1.42,4.46,5.82,5.82,0,0,1-4.33,1.45,7.58,7.58,0,0,1-2.81-.39A1.8,1.8,0,0,1,183.12,132.18Z"/><polygon class="cls-2" points="203.67 149.88 203.99 151.28 205.27 151.28 204.95 149.88 203.67 149.88"/><polygon class="cls-2" points="209.54 151.28 227.39 151.28 227.07 149.88 209.22 149.88 209.54 151.28"/><polygon class="cls-2" points="207.73 149.88 206.45 149.88 206.76 151.28 208.05 151.28 207.73 149.88"/><polygon class="cls-2" points="202.18 149.88 184.38 149.88 184.7 151.28 202.5 151.28 202.18 149.88"/><polygon class="cls-2" points="47.18 149.88 47.5 151.28 48.78 151.28 48.46 149.88 47.18 149.88"/><polygon class="cls-2" points="53.05 151.28 70.9 151.28 70.58 149.88 52.73 149.88 53.05 151.28"/><polygon class="cls-2" points="51.23 149.88 49.95 149.88 50.27 151.28 51.55 151.28 51.23 149.88"/><polygon class="cls-2" points="45.69 149.88 27.89 149.88 28.2 151.28 46 151.28 45.69 149.88"/><path class="cls-2" d="M86.28,137.79c0,.21-.19.5-.57.88-.54.52-1.09,1-1.65,1.55q-4.14,4.11-7.06,7.66c-2.63,3.21-3.94,5.44-3.94,6.67a1.28,1.28,0,0,0,.45,1,1.57,1.57,0,0,0,1.06.41c1.14,0,2.24-.79,3.29-2.36a6.22,6.22,0,0,0,1.34-2.9c0-.45-.32-.68-.94-.68a7.66,7.66,0,0,0-2,.27,1.12,1.12,0,0,0-.88,1,.61.61,0,0,0,.29.51c.19.13.28.24.28.34s-.19.37-.57.37q-.81,0-.81-1.05a2.76,2.76,0,0,1,1.76-2.17,7.25,7.25,0,0,1,2.7-.39,1.7,1.7,0,0,1,1,.46,1.23,1.23,0,0,1,.38.89,6.94,6.94,0,0,1-2,4.16,7.09,7.09,0,0,1-5.22,2.77,1.54,1.54,0,0,1-1.75-1.72,8.36,8.36,0,0,1,1.78-4.63c.18-.22,1.12-1.55,3.84-4.81.81-1,2.31-2.44,4.2-4.26,1.44-1.4,2.73-2.25,2.73-2.46a2,2,0,0,0-.41-.27c-.27-.15-.4-.3-.4-.43s.85-.59,2.56-1.08C86.12,137.51,86.28,137.59,86.28,137.79Z"/><path class="cls-2" d="M97.1,150.91a.45.45,0,0,1-.13.34,52.52,52.52,0,0,1-4.49,3.46c-2.22,1.49-4.31,2.41-6,2.41a1.77,1.77,0,0,1-1.23-.54,1.66,1.66,0,0,1-.55-1.22,3,3,0,0,1,.76-1.77c.54-.56,1-1,1.56-1.6a7.36,7.36,0,0,0-1.23.12,9.58,9.58,0,0,1-1.22.08,17.69,17.69,0,0,1-5.67,4c-.36,0-.68-.11-.68-.22a.93.93,0,0,1,.3-.57,29.32,29.32,0,0,0,5.27-3.53.34.34,0,0,1-.14-.35,3.11,3.11,0,0,1,1.06-1.77c.71-.76,1.29-1.13,1.74-1.13s.57.14.57.42a1.87,1.87,0,0,1-.74,1.58,9.84,9.84,0,0,1,1.62-.25c.62,0,.77.33.77.78s-.44,1.11-1.33,1.94S86,154.54,86,155a1.16,1.16,0,0,0,.35.83,1.21,1.21,0,0,0,.86.35,7.72,7.72,0,0,0,4.88-1.47,28.35,28.35,0,0,0,4.67-3.92.18.18,0,0,1,.2,0A.16.16,0,0,1,97.1,150.91Z"/><path class="cls-2" d="M104.15,150.94c0,.14-.19,0-.3.1-1.9,1.32-4.3,3.25-5.13,3.79-2.14,1.43-3.23,2.15-4.85,2.15a2,2,0,0,1-2.28-2.24A5.1,5.1,0,0,1,93,151.33a4.37,4.37,0,0,1,3.11-1.53,1.06,1.06,0,0,1,.7.28.83.83,0,0,1,.34.66,1.51,1.51,0,0,1-.56,1.09c-.38.34-.75.67-1.13,1a10.69,10.69,0,0,1-2.35,1.51,1.21,1.21,0,0,0,.6,1.27,2,2,0,0,0,1.14.34c1.12,0,2.71-.7,4.79-2.08.45-.29,1.83-1.31,4.16-3.05a.18.18,0,0,1,.2,0A.15.15,0,0,1,104.15,150.94Zm-8.36.14c0-.16-.12-.24-.37-.24s-.83.31-1.42.93a2.59,2.59,0,0,0-.87,1.6,3.63,3.63,0,0,0,.57-.17C95.09,152.37,95.79,151.66,95.79,151.08Z"/><path class="cls-2" d="M118.47,151a.61.61,0,0,1-.14.37c-.88,1-1.36.52-2.47,1.36-.71.55-2,1.72-3.32.76a6.82,6.82,0,0,1-5,3.68,1.41,1.41,0,0,1-1.06-.68,2.45,2.45,0,0,1-.53-1.55,2.74,2.74,0,0,1,.37-1.35,15,15,0,0,1-2.9,2.06,5.94,5.94,0,0,1-2.46.94c-.36,0-.58,0-.67-.17a1.39,1.39,0,0,1-.14-.77,3.91,3.91,0,0,1,1.22-2.5l2.43-2.42a1.64,1.64,0,0,1,1.21-.61c.43,0,.64.26.64.77,0,0-.15.12-.44.21a1.8,1.8,0,0,0-.56.33c-2.14,1.58-3,2.6-3,3.48,0,.22.2.23.52.23.85,0,2.58-1.3,6.09-4.11a1.54,1.54,0,0,1,.54-.23c.15,0,.21.28.21.53,0-.06-.23.44-.77,1.19a3.14,3.14,0,0,0-.69,2.06c0,.84.29,1.14,1.15,1.14.43,0,1.77-.22,3.38-2.65a2.32,2.32,0,0,1-.62-1.12,1.67,1.67,0,0,1,.14-1.47,1,1,0,0,1,1.05-.43c.42.06.64.57.71,1.3a3.9,3.9,0,0,1-.6,1.76c1,.85,2.19.13,3.15-.69,1.42-1.22,1.86-1.59,2.24-1.66.07,0,.06,0,.15.07A.16.16,0,0,1,118.47,151Zm-5.55.6c0-.6-.19-.93-.57-.91-.58,0-.57.71-.42,1.15a2.34,2.34,0,0,0,.44.87A2.12,2.12,0,0,0,112.92,151.55Z"/><path class="cls-2" d="M126.12,151a.35.35,0,0,1-.13.33c-1.69.95-3.85,2.48-4.41,2.88-1.84,1.35-3,2.59-4,2.59a2.88,2.88,0,0,1-1.67-.53,1.49,1.49,0,0,1-.76-1.23,4.71,4.71,0,0,1,1.22-2.73,4.09,4.09,0,0,1,1.92-1.62c.27,0,.4.09.4.27a2.32,2.32,0,0,1-.69,1.4A4.69,4.69,0,0,0,117,154.5a1.13,1.13,0,0,0,1.12,1.45c.92,0,3.4-1.88,7.71-5.14a.2.2,0,0,1,.21,0A.16.16,0,0,1,126.12,151ZM121,148.62c0,.58-.41.87-1.21.87s-1.22-.29-1.22-.87.41-.91,1.22-.91S121,148,121,148.62Z"/><path class="cls-2" d="M140.72,151a.35.35,0,0,1-.13.33,42.67,42.67,0,0,0-4.74,3.06c-1.88,1.33-3,2.2-4.4,2.2-1.19,0-1.79-.63-1.79-1.89a8.58,8.58,0,0,1,.34-2.05q-2.37,1.35-5,3a15.23,15.23,0,0,1-2,1.21.57.57,0,0,1-.25-.13c-.12-.09-.19-.16-.19-.2a6.11,6.11,0,0,1,1.18-2.1,22.45,22.45,0,0,0,1.55-2.36,1.44,1.44,0,0,1-.1-.54c0-.17.14-.36.41-.53a1.22,1.22,0,0,1,.67-.27c.72,0,1.08.27,1.08.8a5.78,5.78,0,0,1-1,1.59,5.7,5.7,0,0,1-.81,1.07c3.82-3.12,5.91-3.68,7-3.68.16,0,.39.21.29.62a13.05,13.05,0,0,1-1,1.16,3.28,3.28,0,0,0-1,2.11c0,.76.53,1.15,1.59,1.15q1.25,0,4-1.86c.36-.22,1.64-1.17,3.85-2.83a.2.2,0,0,1,.21,0A.16.16,0,0,1,140.72,151Z"/><path class="cls-2" d="M153.27,151a.45.45,0,0,1-.14.33c-2.22,1.87-3.44,2.87-3.64,3a19.75,19.75,0,0,1-5.39,2.77,40.69,40.69,0,0,1-7.24,6.71q-6.93,5.33-10.94,5.33a2.69,2.69,0,0,1-1.74-.56,1.73,1.73,0,0,1-.69-1.4q0-3.74,8.08-6.81,1.85-.7,6.26-2.06c2.94-.9,4.47-1.37,4.94-1.55,1.5-1.62,2.35-3,2.43-4.43a1.43,1.43,0,0,0-1.47-1.68,5.79,5.79,0,0,0-2.73.72,1.62,1.62,0,0,0-1.06,1.56c0,.85.54,1.15,1.24,1.15a6.61,6.61,0,0,0,2.16-.86l1.66-.85-.3.8a11.93,11.93,0,0,1-2.28,1.29,7.23,7.23,0,0,1-2.67.51,1.55,1.55,0,0,1-1.19-.47,1.67,1.67,0,0,1-.43-1.18c0-.76.64-1.53,1.94-2.31a7.22,7.22,0,0,1,3.64-1.16,3.07,3.07,0,0,1,2,.64,2.08,2.08,0,0,1,.78,1.69,7.93,7.93,0,0,1-1.58,3.84q2.07-.67,8-5.16a.19.19,0,0,1,.2,0A.16.16,0,0,1,153.27,151Zm-11,6.61-5.76,1.65a43.73,43.73,0,0,0-7.89,3c-2.65,1.4-3.67,2.75-3.67,4.19a1.76,1.76,0,0,0,.87,1.46,3.52,3.52,0,0,0,1.81.35,8.33,8.33,0,0,0,2.76-.79,12.84,12.84,0,0,0,3.15-1.77C137.87,162.51,140.68,159.85,142.3,157.56Z"/><path class="cls-2" d="M172.32,151.05a10.23,10.23,0,0,1-1.82,1.68,9.82,9.82,0,0,1-2.33,1.19c-2.66,1.8-5.36,3.43-7.72,3.43a3.17,3.17,0,0,1-2.19-.56,3,3,0,0,1-.89-2.08,5.54,5.54,0,0,1,2.08-3.75,7,7,0,0,1,4.92-1.86c.71,0,1.33.47,1.1,1a3.06,3.06,0,0,1-2.46,1.68c-.47,0-.7-.11-.7-.33a.84.84,0,0,1,.94-1,.91.91,0,0,1,.37.12c.16.08.49.42.77-.3.09-.2-.27-.33-.81-.33a4.65,4.65,0,0,0-3.05,1.51,3.83,3.83,0,0,0-1.47,2.71,2,2,0,0,0,.89,1.48,3.1,3.1,0,0,0,2,.57,8.83,8.83,0,0,0,4.24-1.44,32.87,32.87,0,0,0,4-2.67,19,19,0,0,1,2-1.45C172.25,150.74,172.32,150.84,172.32,151.05Z"/><path class="cls-2" d="M181.76,151a.51.51,0,0,1-.14.37,16.88,16.88,0,0,1-3.44,3c-1.66,1.2-2.68,1.63-3.51,1.63a3,3,0,0,1-1.75-.45,4.67,4.67,0,0,1-1.41,1,5.62,5.62,0,0,1-2.5.71c-1.08,0-1.62-.42-1.62-1.25q0-1.72,2.43-3.78c1.57-1.28,2.9-1.92,4-1.92s1.62.49,1.62,1.48a4.76,4.76,0,0,1-2.1,3.38,1.49,1.49,0,0,0,1.14.47c.67,0,1.59-.28,3.21-1.43a29.12,29.12,0,0,0,3.75-3.36c.05-.07.11-.08.2,0A.16.16,0,0,1,181.76,151Zm-9.36,3.83a1.78,1.78,0,0,1-.45-1.44,2.66,2.66,0,0,1,.37-1.68c-2.1,1-3.36,2-3.36,3.3,0,.76.28,1,.91,1A4,4,0,0,0,172.4,154.78Zm2.18-2.88c.06-.37,0-.86-.38-.86a1.62,1.62,0,0,0-1.33.41,2.81,2.81,0,0,0-.55,1.64,2.27,2.27,0,0,0,.32,1.39A4.87,4.87,0,0,0,174.58,151.9Z"/><path class="cls-2" d="M185.87,156.9a2.41,2.41,0,1,1-2.4-2.34A2.35,2.35,0,0,1,185.87,156.9Zm-4.21,0a1.81,1.81,0,1,0,1.81-1.87A1.81,1.81,0,0,0,181.66,156.9Zm1.44,1.23h-.54v-2.34a5,5,0,0,1,.9-.07,1.45,1.45,0,0,1,.81.17.63.63,0,0,1,.23.51.59.59,0,0,1-.49.54v0a.7.7,0,0,1,.43.57,1.75,1.75,0,0,0,.17.59H184a1.75,1.75,0,0,1-.19-.57c0-.26-.18-.37-.48-.37h-.26Zm0-1.33h.26c.3,0,.54-.1.54-.34s-.16-.36-.5-.36a1.63,1.63,0,0,0-.3,0Z"/><path class="cls-2" d="M138.3,93.24c-1.07-.9-7.14-1.3-8.33-2.69s3.36-3.94,13.53-4.33c5.58-.22,7.84-.55,7.62-.93a12.23,12.23,0,0,0-3.52-.74c-.28,0-.53-.08-.75-.12L144.44,84a12.36,12.36,0,0,1-9.37-1c-2.54-1.38-3.6.73-6.35,1.74s-7.18-.56-9.2-1.15-4.93-4.56-6.85-3.92-1.78-.26-3.53.64-8.58,7.4-8.58,7.4c-1.79-.65-3-1-8.11-.71-2.76.17-9.72,5.38-10.59,5.13,0,0,2-1.49,2.64-2.1s4.49-3.87,7.25-4.15S99,84.7,101.45,85a21.33,21.33,0,0,1,4.19-3.57c1.75-.91,3.3-2.78,5.22-3.43s7.69,3.41,9.71,4,5.86,1.09,8.61.07,3-2.17,5.59-.79a21.6,21.6,0,0,0,5.17,2.39,15.24,15.24,0,0,0,4.48.28l2.43.47a2.24,2.24,0,0,1-1.13-.47c-.95-.73,1.68-1.84,4.08-2.38-.73,0-1.54-.09-2.48-.17a6.66,6.66,0,0,1-3.79-1.15,2,2,0,0,1-.49-.6,2.94,2.94,0,0,0-.54-.73,5.39,5.39,0,0,0-2.2-.84,4,4,0,0,1-1.6-1c-.47-.43-.89-.94-1.34-1.41-1.31-1.23-3.79.47-6.44.84a4.28,4.28,0,0,1-1.74-.08c-1.06-.14-2-.7-2.57-.6s-.75.34-1.39-.36c0,0-7-7.38-10.91-10.9a12.84,12.84,0,0,0-1.87-1.53c-1.84-1-2.94.62-4.9.13s-3.18,4.28-5,5.87-5.29,4.57-8.1,3.71-5.48-.65-7.69,2.41S81.84,82,78.41,82.39s-3.54,6.47-2,8.86a.22.22,0,0,1,0,.08,18.56,18.56,0,0,1,1.23,2.17,26.1,26.1,0,0,0-1.32-2.26,46.16,46.16,0,0,1,4.33,9.85c0,.07,0,.13,0,.19a10.24,10.24,0,0,1,.19,1h21c10.94-1.74,24.7-4.84,27.93-5.49C137.89,95.2,139.44,94.21,138.3,93.24Z"/><path class="cls-2" d="M181.24,81a1.3,1.3,0,0,0-.1-.15c-.47-.69-1-1-2.47-1a28.08,28.08,0,0,1-6.51-.36c-2.08-.25-5.75-1.84-9,0s-3.19,1.83-6.49,2c-1.71.07-3,.13-4.39.13-2.13.41-4.91,1.06-4.43,1.66.21.27,1.09.52,3,.74a17.07,17.07,0,0,1,3,.57l0,0,.12,0,.22.08.07,0,.16.06.06,0,.17.09.06,0,.13.09.05,0s0,0,0,0h0l.09.11,0,0,0,.1s0,0,0,0,0,.07,0,.11v0a.51.51,0,0,1-.13.28l0,0-.09.09-.06,0-.12.09-.07,0-.17.1-.06,0-.27.13-.09,0-.23.09-.13,0-.24.08-.15,0-.28.08-.14,0-.46.11h0l-.49.1-.18,0-.38.06-.21,0-.4.06-.21,0-.51.06-.14,0-.7.08h-.16l-.58,0-.26,0-.53,0h-.28l-.58,0-.26,0-.88,0a57.11,57.11,0,0,0-8.45,1c-1.38.3-2.2.51-1.77,1,.75.81,10.07,1.25,11.64,2.64,2.42,2.13-1.51,6.35-11.34,10h13.91l1.38-.91c-.33-.45-1.95-2.85.05-2.74,2.2.12,3.55-.74,3.92-2.33s1.46-1.71,4.28-2a9.69,9.69,0,0,0,2.5-.64c2.28-.87,4.55-2.43,5.09-3.4A4.8,4.8,0,0,1,169.49,88a20.59,20.59,0,0,0,3.31-1.1c2.08-.61,4.14-1.21,5.11-2.68S182.63,83.88,181.24,81Z"/><path class="cls-2" d="M117.3,63.2l.19.19h0c.19.18.37.37.54.55l.36.38.07.08c1.33,1.43,2.41,2.83,3.55,4.24.87,1.06,1.78,2.12,2.86,3.21.26.25,1.77,1.21,2,1.42a1.69,1.69,0,0,0,1.1.19c1.17-.1,2.07.81,2.91,1.06a2.2,2.2,0,0,0,1.26-.26c3.31-1.66,5.27-.74,5.44-.48l0,0,.08.07a14.14,14.14,0,0,0,1.34,2,2.66,2.66,0,0,0,1.75.94,3.68,3.68,0,0,1,2.75,1.42A6.16,6.16,0,0,0,146,79.61a30.3,30.3,0,0,0,5.85.81c9.82.59,11.19-2.78,12.54-3.2.17,0,.72-.22,1.37-.45a12.35,12.35,0,0,0,2.67-1.14c.23-.19.61-.45.87-.7a5.16,5.16,0,0,0,1.81-2.46,2.63,2.63,0,0,0,.08-.42c0-.12.13-.67,0-.7s-.19-.14-.27-.18-2.85-2-3.89-2.86c-.3-.25-.54-.46-.67-.59A12.3,12.3,0,0,1,165,66.08c-.07-.14-.13-.26-.18-.38l-.15-.31-.48-.83c-.09-.16-.2-.35-.33-.55-.75-1.07-2.25-3-3.28-4.27h0l-.56-.68a6,6,0,0,0-.49-.54l0,0-.07-.06c-.32-.33-1.18-1.4-1.87-2.27l-.2-.29c-.19-.29-.57-.67-.66-.82l-.08-.1c-.27-.34-3.19-4.37-3.41-4.78a16.85,16.85,0,0,0-2-2.36,10.36,10.36,0,0,1-1.8-2.2c-.23-.47-.88-2.29-1-2.71s-1.12-3.49-1.39-4-1.82-2.15-2.17-2.68-1.47-2-2.78-2c-1,0-3.51,1.2-5.31,2.32-1,.62-4.19,3.11-4.92,3.56s-1.2.82-1.77,1.21c-.4.28-1.72,1.29-2.26,1.71-.34.26-1.8,1.37-2.16,1.62-.91.62-1.6,1-2.63,1.72a7.57,7.57,0,0,0-1.12,1.68c-1.05,1.65-1.05,1.65-1.49,2.31s-4,6.88-6.26,8.25a1.45,1.45,0,0,1-.41.21c-.07,0-.22.1-.23.1-.2.13-.38.31-.57.45s-.07.12,0,.16C114.47,61.1,115.71,61.67,117.3,63.2Z"/></g></svg>