<svg id="Desktop" xmlns="http://www.w3.org/2000/svg" viewBox="0 0 740.75 233.96"><defs><style>.cls-1{fill:#f7be00;}</style></defs><path class="cls-1" d="M6.78,116v-8.58L.39,95.82h3l2.85,5.58c.78,1.53,1.38,2.76,2,4.17h.06c.57-1.32,1.26-2.64,2-4.17l2.91-5.58h3L9.42,107.43V116Z"/><path class="cls-1" d="M34.71,105.72c0,7-4.23,10.65-9.39,10.65-5.34,0-9.09-4.14-9.09-10.26,0-6.42,4-10.62,9.39-10.62S34.71,99.72,34.71,105.72ZM19,106.05c0,4.32,2.34,8.19,6.45,8.19s6.48-3.81,6.48-8.4c0-4-2.1-8.22-6.45-8.22S19,101.61,19,106.05Z"/><path class="cls-1" d="M40.71,95.82v12c0,4.53,2,6.45,4.71,6.45,3,0,4.92-2,4.92-6.45v-12H53v11.79c0,6.21-3.27,8.76-7.65,8.76-4.14,0-7.26-2.37-7.26-8.64V95.82Z"/><path class="cls-1" d="M60.6,95.49a34.61,34.61,0,0,1-2.82,7.11l-1.68.21a42.47,42.47,0,0,0,1.77-7Z"/><path class="cls-1" d="M68.94,116l-6.6-20.22h2.82l3.15,10c.87,2.73,1.62,5.19,2.16,7.56h.06c.57-2.34,1.41-4.89,2.31-7.53l3.42-10h2.79L71.82,116Z"/><path class="cls-1" d="M91.71,106.56H83.85v7.29h8.76V116H81.24V95.82H92.16V98H83.85v6.39h7.86Z"/><path class="cls-1" d="M119.4,107.16c-.15-2.82-.33-6.21-.3-8.73H119c-.69,2.37-1.53,4.89-2.55,7.68l-3.57,9.81h-2l-3.27-9.63c-1-2.85-1.77-5.46-2.34-7.86h-.06c-.06,2.52-.21,5.91-.39,8.94l-.54,8.67h-2.49l1.41-20.22h3.33L110,105.6c.84,2.49,1.53,4.71,2,6.81h.09c.51-2,1.23-4.26,2.13-6.81l3.6-9.78h3.33L122.46,116h-2.55Z"/><path class="cls-1" d="M129.45,109.68l-2.1,6.36h-2.7l6.87-20.22h3.15l6.9,20.22h-2.79l-2.16-6.36Zm6.63-2-2-5.82c-.45-1.32-.75-2.52-1-3.69H133c-.3,1.2-.63,2.43-1,3.66l-2,5.85Z"/><path class="cls-1" d="M144.54,96.09a37.38,37.38,0,0,1,5.55-.42c3.75,0,6.42.87,8.19,2.52a9.31,9.31,0,0,1,2.85,7.26,10.69,10.69,0,0,1-2.91,7.86c-1.89,1.89-5,2.91-8.94,2.91a42.13,42.13,0,0,1-4.74-.24ZM147.15,114a16.48,16.48,0,0,0,2.64.15c5.58,0,8.61-3.12,8.61-8.58,0-4.77-2.67-7.8-8.19-7.8a14.83,14.83,0,0,0-3.06.27Z"/><path class="cls-1" d="M175,106.56h-7.86v7.29h8.76V116H164.52V95.82h10.92V98h-8.31v6.39H175Z"/><path class="cls-1" d="M188.25,95.82V116h-2.61V95.82Z"/><path class="cls-1" d="M196.65,98H190.5V95.82h15V98h-6.18v18h-2.64Z"/><path class="cls-1" d="M216.69,98h-6.15V95.82h15V98h-6.18v18h-2.64Z"/><path class="cls-1" d="M244.23,105.72c0,7-4.23,10.65-9.39,10.65-5.34,0-9.09-4.14-9.09-10.26,0-6.42,4-10.62,9.39-10.62S244.23,99.72,244.23,105.72Zm-15.69.33c0,4.32,2.34,8.19,6.45,8.19s6.48-3.81,6.48-8.4c0-4-2.1-8.22-6.45-8.22S228.54,101.61,228.54,106.05Z"/><path class="cls-1" d="M256.59,98h-6.15V95.82h15V98h-6.18v18h-2.64Z"/><path class="cls-1" d="M270.27,95.82v8.46h9.78V95.82h2.64V116h-2.64v-9.48h-9.78V116h-2.61V95.82Z"/><path class="cls-1" d="M297.69,106.56h-7.86v7.29h8.76V116H287.22V95.82h10.92V98h-8.31v6.39h7.86Z"/><path class="cls-1" d="M308.34,96.09a25.29,25.29,0,0,1,4.77-.42c2.6,0,4.29.45,5.55,1.47a4.23,4.23,0,0,1,1.67,3.57,4.8,4.8,0,0,1-3.41,4.44v.06a5.21,5.21,0,0,1,4.16,5.07,5.44,5.44,0,0,1-1.7,4c-1.42,1.29-3.69,1.89-7,1.89a30.51,30.51,0,0,1-4.05-.24Zm2.61,8.28h2.37c2.76,0,4.38-1.44,4.38-3.39,0-2.37-1.8-3.3-4.45-3.3a11.15,11.15,0,0,0-2.3.18Zm0,9.69a14,14,0,0,0,2.19.12c2.69,0,5.19-1,5.19-3.93,0-2.76-2.37-3.9-5.22-3.9H311Z"/><path class="cls-1" d="M341.88,105.72c0,7-4.24,10.65-9.39,10.65-5.34,0-9.09-4.14-9.09-10.26,0-6.42,4-10.62,9.39-10.62S341.88,99.72,341.88,105.72Zm-15.69.33c0,4.32,2.34,8.19,6.44,8.19s6.48-3.81,6.48-8.4c0-4-2.1-8.22-6.44-8.22S326.19,101.61,326.19,106.05Z"/><path class="cls-1" d="M348.36,98h-6.15V95.82h15V98H351v18h-2.64Z"/><path class="cls-1" d="M364.41,98h-6.16V95.82h15V98H367v18h-2.63Z"/><path class="cls-1" d="M392,105.72c0,7-4.24,10.65-9.39,10.65-5.34,0-9.09-4.14-9.09-10.26,0-6.42,4-10.62,9.39-10.62S392,99.72,392,105.72Zm-15.69.33c0,4.32,2.34,8.19,6.45,8.19s6.47-3.81,6.47-8.4c0-4-2.1-8.22-6.44-8.22S376.26,101.61,376.26,106.05Z"/><path class="cls-1" d="M412.37,107.16c-.15-2.82-.33-6.21-.3-8.73H412c-.69,2.37-1.53,4.89-2.55,7.68l-3.57,9.81h-2l-3.27-9.63c-1-2.85-1.77-5.46-2.34-7.86h-.06c-.06,2.52-.21,5.91-.39,8.94l-.54,8.67h-2.49l1.41-20.22h3.33L403,105.6c.84,2.49,1.53,4.71,2,6.81h.09c.51-2,1.23-4.26,2.13-6.81l3.6-9.78h3.33L415.43,116h-2.55Z"/><path class="cls-1" d="M418.73,114.48a1.77,1.77,0,0,1,1.8-1.89,1.89,1.89,0,0,1,0,3.78A1.77,1.77,0,0,1,418.73,114.48Z"/><path class="cls-1" d="M121.12,199.64a50.23,50.23,0,0,1-16.56,3c-8.16,0-14.88-2.08-20.16-7.12-4.64-4.48-7.52-11.68-7.52-20.08.08-16.08,11.12-27.84,29.2-27.84A33.34,33.34,0,0,1,119.52,150l-1.68,5.68a28,28,0,0,0-11.92-2.32c-13.12,0-21.68,8.16-21.68,21.68,0,13.68,8.24,21.76,20.8,21.76,4.56,0,7.68-.64,9.28-1.44V179.32h-11v-5.6h17.76Z"/><path class="cls-1" d="M177.84,174.52c0,18.56-11.28,28.4-25,28.4-14.24,0-24.24-11-24.24-27.36,0-17.12,10.64-28.32,25-28.32C168.32,147.24,177.84,158.52,177.84,174.52ZM136,175.4c0,11.52,6.24,21.84,17.2,21.84s17.28-10.16,17.28-22.4c0-10.72-5.6-21.92-17.2-21.92S136,163.56,136,175.4Z"/><path class="cls-1" d="M186.88,148.12h7V196.2h23V202h-30Z"/><path class="cls-1" d="M224.64,148.84a99.69,99.69,0,0,1,14.8-1.12c10,0,17.12,2.32,21.84,6.72s7.6,10.64,7.6,19.36-2.72,16-7.76,21-13.36,7.76-23.84,7.76a112.34,112.34,0,0,1-12.64-.64Zm7,47.68a44,44,0,0,0,7,.4c14.88,0,23-8.32,23-22.88.08-12.72-7.12-20.8-21.84-20.8a39.55,39.55,0,0,0-8.16.72Z"/><path class="cls-1" d="M293.92,193.56a24.66,24.66,0,0,0,12.48,3.52c7.12,0,11.28-3.76,11.28-9.2,0-5-2.88-7.92-10.16-10.72-8.8-3.12-14.24-7.68-14.24-15.28,0-8.4,7-14.64,17.44-14.64a24.5,24.5,0,0,1,11.92,2.64l-1.92,5.68A21.47,21.47,0,0,0,310.48,153c-7.36,0-10.16,4.4-10.16,8.08,0,5,3.28,7.52,10.72,10.4,9.12,3.52,13.76,7.92,13.76,15.84,0,8.32-6.16,15.52-18.88,15.52-5.2,0-10.88-1.52-13.76-3.44Z"/><path class="cls-1" d="M344.56,154h-16.4v-5.92h39.92V154H351.6v48h-7Z"/><path class="cls-1" d="M376.8,185.08l-5.6,17H364l18.32-53.92h8.4L409.12,202h-7.44l-5.76-17Zm17.68-5.44-5.28-15.52c-1.2-3.52-2-6.72-2.8-9.84h-.16c-.8,3.2-1.68,6.48-2.72,9.76l-5.28,15.6Z"/><path class="cls-1" d="M417,148.84a72.5,72.5,0,0,1,13.36-1.12c7.44,0,12.24,1.36,15.6,4.4a13.43,13.43,0,0,1,4.24,10.24c0,7.12-4.48,11.84-10.16,13.76v.24c4.16,1.44,6.64,5.28,7.92,10.88,1.76,7.52,3,12.72,4.16,14.8H445c-.88-1.52-2.08-6.16-3.6-12.88-1.6-7.44-4.48-10.24-10.8-10.48H424V202h-7Zm7,24.56h7.12c7.44,0,12.16-4.08,12.16-10.24,0-7-5-10-12.4-10.08a28.63,28.63,0,0,0-6.88.64Z"/><path class="cls-1" d="M458.48,198a4.69,4.69,0,0,1,4.72-5c2.88,0,4.72,2.08,4.72,5a4.73,4.73,0,1,1-9.44,0Zm2-11.44-1.12-38.4H467l-1.12,38.4Z"/><polygon class="cls-1" points="617.75 0 646.79 89.36 740.75 89.36 664.74 144.59 693.77 233.96 617.75 178.73 541.74 233.96 570.77 144.59 494.75 89.36 588.72 89.36 617.75 0"/></svg>