<svg id="Desktop" xmlns="http://www.w3.org/2000/svg" viewBox="0 0 72.46 72.46"><defs><style>.cls-1{fill:#002a3a;}.cls-2{fill:#f7be00;}</style></defs><circle class="cls-1" cx="36.23" cy="36.23" r="36.23"/><path class="cls-2" d="M60,50.31c-1.05-.58-1.28-1.76-1.74-2.52s-1.06-.77-3-1a11.88,11.88,0,0,1-1.87-.43.76.76,0,0,1-.51-.88,6.29,6.29,0,0,0,0-2.69,4,4,0,0,1,1.42,2c.58-5.39-2.47-6.21-3.9-7.25A4.74,4.74,0,0,1,48.57,35c-.06-.28-.18-1.07.53-1.16a5.77,5.77,0,0,1,2.49.39v1.49c1.74-.56,1.89-2.6,1.88-3.45a.59.59,0,0,0-.4-.54l-2.45-.83a.86.86,0,0,0-.1-1.2,5.12,5.12,0,0,0-.73-.52,3.24,3.24,0,0,0-1.71-2.41,5.16,5.16,0,0,1,.32,1.84,8.2,8.2,0,0,0-2.74-.26.6.6,0,0,1-.36-.1L41,25.11a3.5,3.5,0,0,0,.77,2.25c.52.69,2.71,2.91,2.71,2.91l-.89-.51a.48.48,0,0,0-.67.11c-1.42,2.12-1.34,5-1.17,6.55a.51.51,0,0,1-.78.5,3.11,3.11,0,0,1-1.29-2.72,2.48,2.48,0,0,1,.06-.54l1-4.48A1.74,1.74,0,0,0,40,27.26s-2.52-1.62-8.24-8.6c-1.65-2-3.59-4.66-4-7.22,0,0-2.07,1.36-.27,5.67a10.83,10.83,0,0,1-2-2.78s-.83,1.47.73,4.24a8.43,8.43,0,0,1-1.79-1.5v0a2.87,2.87,0,0,0,1.42,2.75l8,4.58-9.44-4.34a14,14,0,0,1-1.78-1c-1.43-.93-4-2.78-5.15-4.79,0,0-2,2.6,2.25,6.86A11.24,11.24,0,0,0,21,22.35a21,21,0,0,1-5.21-3.51S14.34,22,19.46,25.1a18.51,18.51,0,0,0,3.17,1.47,26.91,26.91,0,0,1-7.26-2.71s-.25,3.38,5.76,5.45a18.31,18.31,0,0,0,2.21.6,25.27,25.27,0,0,1-6.17-1s1,2.94,6.68,3.62c.38,0,.77.07,1.16.09a24,24,0,0,1-5.24.16s1.84,2.34,6.72,2.23a21.92,21.92,0,0,1-3.43.57s2.42,1.94,6.9,1.14a15.82,15.82,0,0,1-1.9.9,4,4,0,0,0,2.69.37c4.13-.83,4.7,1.1,3.42,1.1l-4-.14a8.4,8.4,0,0,0-7.64,3.39h0s-2.5,3.39-5.4,3a3.45,3.45,0,0,1-3-3.46,3.5,3.5,0,0,1,3.49-3.53c.07,0,.47,0,.54.25a1.78,1.78,0,0,0,.5.85c1.42,1.36,4.26.18,5.07-.56a.18.18,0,0,0,0-.29,6.26,6.26,0,0,1-1.82-1.35,2,2,0,0,0-3.2-.1.31.31,0,0,1-.27.1c-.48,0-5.69-.18-5.53,5.21A4.65,4.65,0,0,0,16.76,47a6.76,6.76,0,0,0,5.82-1.77,11.28,11.28,0,0,0,2-2.24,7.87,7.87,0,0,1-7,6.69.54.54,0,0,0-.48.47l-.55,4.27a.53.53,0,0,0,.15.46L18,56a1.72,1.72,0,0,0,1.23.51h3.58a1.9,1.9,0,0,0-1.58-1.68c-1.55-.38-1.62-3.13.34-3.13s4.54.11,6.65-2.92a2.33,2.33,0,0,1,2.28-1.46c-1.34.25-1.48,1.17-1.48,1.17,1.11.54,2.29,1.49,1.46,5a.56.56,0,0,0,.15.52l2,1.94a1.69,1.69,0,0,0,1.22.51h4A1.94,1.94,0,0,0,36,54.7c-1.79-.38-2.17-1.21-1.94-2.28a25,25,0,0,1,1.13-2.62.68.68,0,0,0-.15-.76L33.8,47.81a14.19,14.19,0,0,0,5.64,2.44.55.55,0,0,0,.6-.64A3,3,0,0,0,39.19,48a3.85,3.85,0,0,1,1.63,3.27.56.56,0,0,0,.42.52,8.6,8.6,0,0,1,4.48,2.5c.24.25.13.53-.17.65s-1.2-.36-1.71.2a1.06,1.06,0,0,0,0,1.39s0-.28.48-.31a.45.45,0,0,1,.36.12,1.54,1.54,0,0,0,.64.19h2a1.08,1.08,0,0,0,.52-.15.85.85,0,0,1,.87,0,1.23,1.23,0,0,0,.61.18H52c.48,0,.85-.2.85-.68.31,0,.92,0,1,.68A.9.9,0,0,0,54,55.33c-.79-1.44-4.31.14-6.25-2.34a10.48,10.48,0,0,1-1.38-2.18.54.54,0,0,1,.35-.75,9.49,9.49,0,0,0,2.45-1,3.67,3.67,0,0,1-.77.74l.94.35a.55.55,0,0,0,.59-.13,4.73,4.73,0,0,1,3.35-1.54l.7,0s-1.25.44-1.5,1.31A1.12,1.12,0,0,0,53,51.15a.48.48,0,0,1,.17-.62,9.42,9.42,0,0,0,1-.42c.47-.29.82-1,1.63-1s1.26,1.26,1.48,2.36.65.53.7,1.22a.71.71,0,0,1-.56.79s.27.37,1.06.07a1.09,1.09,0,0,0,.59-1.24l-.35-1.18c.49.72,1.42.6,1.68.87s0,.89,0,.89a1.23,1.23,0,0,0,.73-.93C61.21,51.43,61.07,50.88,60,50.31Z"/></svg>