<svg id="Desktop" xmlns="http://www.w3.org/2000/svg" viewBox="0 0 250 211.62"><defs><style>.cls-1{fill:#fff;}.cls-2{fill:#002a3a;}</style></defs><rect class="cls-1" width="250" height="211.62"/><g id="Logos"><g id="_67_pizza" data-name="67 pizza"><path class="cls-2" d="M83.05,109.67c-6.8-.18-12.49,5.91-12.69,13.59a14.25,14.25,0,0,0,6.08,12.34L95,124.79c0-.29,0-.59.06-.89C95.21,116.23,89.84,109.84,83.05,109.67Z"/><path class="cls-2" d="M195.52,66.06,69.46,58.25C61.85,68.87,59,85.51,58.42,91.89q-.63-3.14-1.14-6.29c-.26-1.55-.49-3.1-.7-4.66-.24-1.73-.45-3.46-.63-5.2a180.84,180.84,0,0,1-1-18.39l-16-1a173.1,173.1,0,0,0,18.58,78.19,33.51,33.51,0,0,1-1.75-11.68,33,33,0,0,1,4.43-15.82h-.11L80.54,67.48l18.2.49L86.65,93.55c11,1.77,19.81,11.1,22.24,23.1l8.9-5.2L134,81l-29.48-.76,5.69-11.93,30.08.82,5.23.14,8.94.24L138.73,99.22Z"/><path class="cls-2" d="M37.87,51.7,199.2,61.4A5.68,5.68,0,0,1,201.71,72L61.49,149.76a5.68,5.68,0,0,1-7.26-2.67c-12.73-25.2-22-61.32-22-89.71a5.68,5.68,0,0,1,5.68-5.68M38,47h-.14A10.42,10.42,0,0,0,27.46,57.39c0,28.25,9.07,65.16,22.55,91.83a10.42,10.42,0,0,0,13.32,4.9l.23-.1.23-.12L204,76.11l.05,0,0,0a10.4,10.4,0,0,0-4.6-19.37L38.15,47Z"/><path class="cls-2" d="M81.89,178.16a14,14,0,0,1-3.48,1.4,10.39,10.39,0,0,1-3.44.26,9.57,9.57,0,0,1-3.22-.91A12.36,12.36,0,0,1,69,177.08a2.43,2.43,0,0,1-.31-3.35l1.46-1.83a2.34,2.34,0,0,1,.72-.61,2.24,2.24,0,0,1,1-.3,2.43,2.43,0,0,1,1.84.64,5.22,5.22,0,0,0,1.33.94,4.43,4.43,0,0,0,1.32.43,4.13,4.13,0,0,0,1.31,0,5.06,5.06,0,0,0,1.38-.52,4.26,4.26,0,0,0,.9-.68,2.2,2.2,0,0,0,.51-.7,1.35,1.35,0,0,0,.15-.57.79.79,0,0,0-.12-.36,1.08,1.08,0,0,0-.43-.45h0a4.36,4.36,0,0,0-1.32-.41,11.2,11.2,0,0,0-2.06-.12l-2.7.06c-1,0-1.94,0-2.88,0a14.78,14.78,0,0,1-3.11-.39,9.76,9.76,0,0,1-3-1.26,7.53,7.53,0,0,1-2.49-2.72,8.6,8.6,0,0,1-1.08-3.43,8,8,0,0,1,.47-3.58,9.62,9.62,0,0,1,2-3.16,12.93,12.93,0,0,1,3.29-2.54A11.41,11.41,0,0,1,74,150.49a10.36,10.36,0,0,1,5.85,2.86,2.42,2.42,0,0,1,.3,3.21l-1.34,1.83a2.59,2.59,0,0,1-.78.69,2.45,2.45,0,0,1-2.83-.34,6.82,6.82,0,0,0-1.32-1,3.93,3.93,0,0,0-1.19-.45,3.4,3.4,0,0,0-1.19,0,4.66,4.66,0,0,0-1.4.54,3,3,0,0,0-.91.69,1.81,1.81,0,0,0-.38.61,1,1,0,0,0-.06.41.91.91,0,0,0,.1.33.39.39,0,0,0,.22.19,5.21,5.21,0,0,0,1.38.36,14.7,14.7,0,0,0,2.17.11l2.81-.06c1,0,2,0,3,0a15.87,15.87,0,0,1,3.15.39,10,10,0,0,1,3,1.19,6.89,6.89,0,0,1,2.48,2.6,9.11,9.11,0,0,1,1.12,3.54,8.59,8.59,0,0,1-.49,3.77,10.51,10.51,0,0,1-2.12,3.4A14.23,14.23,0,0,1,81.89,178.16Z"/><path class="cls-2" d="M112.44,160.54a2.48,2.48,0,0,1-2.22.07L104,157.69l-1.31,7.25a2.43,2.43,0,0,1-1.21,1.69l-1.76,1a2.43,2.43,0,0,1-3.57-2.56L98,154.9,89.6,151a2.42,2.42,0,0,1-1.4-2.11,2.45,2.45,0,0,1,1.25-2.22l3.77-2.09a2.44,2.44,0,0,1,2.2-.08l4.09,1.89.87-4.77a2.4,2.4,0,0,1,1.21-1.69l1.76-1a2.43,2.43,0,0,1,3.3.94,2.49,2.49,0,0,1,.26,1.67l-1.39,7.61,10.55,4.94a2.42,2.42,0,0,1,.15,4.32Z"/><path class="cls-2" d="M122.92,155.16a6.33,6.33,0,0,1-2.54.81,5.34,5.34,0,0,1-2.54-.4,6,6,0,0,1-2-1.41,8.76,8.76,0,0,1-1.42-1.94L109.24,143l-.67.37a2.43,2.43,0,0,1-3.3-.94l-.44-.8a2.43,2.43,0,0,1,.94-3.3,3,3,0,0,0,1.06-.87,2.29,2.29,0,0,0,.34-1,5.71,5.71,0,0,0-.14-1.66c-.18-.78-.41-1.6-.69-2.44a2.43,2.43,0,0,1,1.13-2.87l.92-.51a2.43,2.43,0,0,1,3.3.94l1.88,3.39,1.5-.83a2.43,2.43,0,0,1,3.3.94l.75,1.35a2.44,2.44,0,0,1-.94,3.31l-1.49.83,4.66,8.39.11-.16a2.76,2.76,0,0,1,1-1.08,2.52,2.52,0,0,1,1.4-.29l1.1.1a2.43,2.43,0,0,1,2.21,2.46,7.8,7.8,0,0,1-4.25,6.89Z"/><path class="cls-2" d="M135.07,155.08a6.61,6.61,0,0,1-1.7.67,5.56,5.56,0,0,1-1.85.12,4.68,4.68,0,0,1-1.86-.6h0a4.06,4.06,0,0,1-1.5-1.55,4.33,4.33,0,0,1-.52-1.63v0a4.29,4.29,0,0,1,.16-1.71v0a4.56,4.56,0,0,1,.79-1.51A4.75,4.75,0,0,1,130,147.6a5,5,0,0,1,1.71-.62h0a6,6,0,0,1,.93-.07V145.6l-15.74-10.09a2.43,2.43,0,0,1,.13-4.17l3.64-2a2.42,2.42,0,0,1,2.5.08l8.48,5.46-.91-9.46A2.41,2.41,0,0,1,132,123l1.71-1a2.43,2.43,0,0,1,3.3.94,2.36,2.36,0,0,1,.3,1l2.19,20.88a14,14,0,0,1-.08,3.32,11.11,11.11,0,0,1-.82,2.86,9.14,9.14,0,0,1-1.49,2.32A7.75,7.75,0,0,1,135.07,155.08Z"/><path class="cls-2" d="M156.5,136.7a14,14,0,0,1-3.48,1.4,10.43,10.43,0,0,1-3.44.26,9.87,9.87,0,0,1-3.23-.91,12.35,12.35,0,0,1-2.75-1.84,2.42,2.42,0,0,1-.31-3.35l1.46-1.83a2.36,2.36,0,0,1,.72-.61,2.43,2.43,0,0,1,2.84.35,5.73,5.73,0,0,0,1.32.94,4.14,4.14,0,0,0,1.32.42,3.85,3.85,0,0,0,1.31,0,4.54,4.54,0,0,0,1.39-.52,4.13,4.13,0,0,0,.9-.67,2.71,2.71,0,0,0,.51-.7,1.33,1.33,0,0,0,.14-.57h0a.63.63,0,0,0-.11-.35,1.14,1.14,0,0,0-.42-.45h0a4.36,4.36,0,0,0-1.32-.41,12.17,12.17,0,0,0-2.06-.13l-2.7.07c-1,0-1.94,0-2.89,0a14.68,14.68,0,0,1-3.1-.4,9.68,9.68,0,0,1-3-1.26,7.48,7.48,0,0,1-2.48-2.71A8.83,8.83,0,0,1,136,120a8.27,8.27,0,0,1,.47-3.58,9.76,9.76,0,0,1,2-3.17,13,13,0,0,1,3.3-2.53,11.31,11.31,0,0,1,6.85-1.65,10.28,10.28,0,0,1,5.85,2.85,2.43,2.43,0,0,1,.31,3.22l-1.35,1.83a2.44,2.44,0,0,1-1.72,1,2.44,2.44,0,0,1-1.88-.64,7.19,7.19,0,0,0-1.32-1,3.83,3.83,0,0,0-1.2-.45,3.34,3.34,0,0,0-1.18,0,4.66,4.66,0,0,0-1.41.53,3.51,3.51,0,0,0-.9.69,1.91,1.91,0,0,0-.38.61,1,1,0,0,0-.06.41.8.8,0,0,0,.09.33.42.42,0,0,0,.22.19,5.27,5.27,0,0,0,1.39.37,14.78,14.78,0,0,0,2.17.1l2.81-.06c1,0,2,0,3,0a15.87,15.87,0,0,1,3.15.4,10.09,10.09,0,0,1,2.95,1.19,6.89,6.89,0,0,1,2.48,2.6,9.11,9.11,0,0,1,1.12,3.54,8.53,8.53,0,0,1-.5,3.76,10.14,10.14,0,0,1-2.12,3.4A14.19,14.19,0,0,1,156.5,136.7Z"/><path class="cls-2" d="M189.53,117.93a2.46,2.46,0,0,1-2.61-.16L170.25,105.7a2.43,2.43,0,0,1,.25-4.09l3.36-1.87a2.45,2.45,0,0,1,2.6.16l8.18,5.92-.86-9.95A2.44,2.44,0,0,1,185,93.54l1.48-.82a2.42,2.42,0,0,1,3.6,2L191.89,115a2.41,2.41,0,0,1-1.24,2.34Z"/><path class="cls-2" d="M225.54,97.68a2.45,2.45,0,0,1-3.31-1l-6.13-11a2.11,2.11,0,0,0-.76-.91c-.11,0-.14-.05-.3,0a2.17,2.17,0,0,0-.44.35,4.94,4.94,0,0,0-.59.73,9.17,9.17,0,0,0-.59,1.08h0a2.88,2.88,0,0,0-.13.31v0l6.1,11a2.43,2.43,0,0,1-.94,3.3l-3.2,1.78a2.43,2.43,0,0,1-3.3-.94l-9-16.12a2.44,2.44,0,0,1,.94-3.31l3.2-1.77a2.44,2.44,0,0,1,2.2-.09l0,0,0,0,.2-.31a10.27,10.27,0,0,1,3.6-3.38,6.45,6.45,0,0,1,2.9-.81,7.25,7.25,0,0,1,2.83.49,8.42,8.42,0,0,1,2.45,1.51,8.7,8.7,0,0,1,1.9,2.37l6.43,11.57a2.42,2.42,0,0,1-.94,3.3Z"/><path class="cls-2" d="M205.63,109.19a11.32,11.32,0,0,1-4.34,1.39,11.71,11.71,0,0,1-4.34-.36,11.46,11.46,0,0,1-3.89-1.94,10.91,10.91,0,0,1-3-3.45,15.17,15.17,0,0,1-1.69-4.66,12.35,12.35,0,0,1,0-4.66,10.67,10.67,0,0,1,1.87-4.2,11.63,11.63,0,0,1,7.79-4.53,10.58,10.58,0,0,1,4,.31,10.29,10.29,0,0,1,3.51,1.77,10.07,10.07,0,0,1,2.59,3,2.42,2.42,0,0,1-.07,2.49l-.05.08.44,0a2.42,2.42,0,0,1,2.58,1.85,10.7,10.7,0,0,1,.23,3.79,12.43,12.43,0,0,1-.92,3.57,12.23,12.23,0,0,1-1.91,3.15A10.05,10.05,0,0,1,205.63,109.19Zm-7.95-8.66a2.64,2.64,0,0,0,.25.32,5.72,5.72,0,0,0,1.74,1.2,3.92,3.92,0,0,0,1.65.37,3.11,3.11,0,0,0,1.46-.4,4.61,4.61,0,0,0,1.19-1,6,6,0,0,0,.88-1.3,4.56,4.56,0,0,0,.41-1.3,3.07,3.07,0,0,0,0-1,2.33,2.33,0,0,1,0-1l0-.1Zm2.85-7.38-.1,0a3.69,3.69,0,0,0-1.45,0,4.17,4.17,0,0,0-1.48.52,2.8,2.8,0,0,0-.83.71,3.83,3.83,0,0,0-.6,1.15,1.21,1.21,0,0,1,0,.18Z"/><path class="cls-2" d="M174.3,126.6A11.22,11.22,0,0,1,170,128a11.71,11.71,0,0,1-4.34-.36,11.46,11.46,0,0,1-3.89-1.94,10.88,10.88,0,0,1-3-3.45,14.85,14.85,0,0,1-1.7-4.66,12.35,12.35,0,0,1,0-4.66,10.67,10.67,0,0,1,1.87-4.2,11.2,11.2,0,0,1,3.66-3.17,11,11,0,0,1,4.13-1.36,10.56,10.56,0,0,1,4,.31,10.29,10.29,0,0,1,3.51,1.77,9.93,9.93,0,0,1,2.59,3,2.42,2.42,0,0,1-.07,2.49l0,.08.44,0a2.41,2.41,0,0,1,1.64.44,2.47,2.47,0,0,1,1,1.41,11.18,11.18,0,0,1,.23,3.79,13.12,13.12,0,0,1-.92,3.57,12.51,12.51,0,0,1-1.91,3.15A10.09,10.09,0,0,1,174.3,126.6Zm-8-8.66a2.64,2.64,0,0,0,.25.32,6.06,6.06,0,0,0,1.74,1.21,4.11,4.11,0,0,0,1.66.36,3.11,3.11,0,0,0,1.45-.4,4.45,4.45,0,0,0,1.19-1,6,6,0,0,0,.88-1.3,4.56,4.56,0,0,0,.41-1.3,2.82,2.82,0,0,0,0-1,2.33,2.33,0,0,1,0-1.05l0-.1Zm2.86-7.38-.1,0a3.9,3.9,0,0,0-1.45,0,4.35,4.35,0,0,0-1.49.52,2.65,2.65,0,0,0-.82.71,3.61,3.61,0,0,0-.6,1.15,1.21,1.21,0,0,0-.05.18Z"/><path class="cls-2" d="M93.28,171.19a2.44,2.44,0,0,1-3.31-.95l-8.91-16a2.1,2.1,0,0,1,0-2.1l2.53-4.27a2.06,2.06,0,0,1,.79-.76,2.09,2.09,0,0,1,2.86.81L97.4,166.11a2.44,2.44,0,0,1-.94,3.31Z"/><path class="cls-2" d="M84.05,162.86a9.14,9.14,0,0,0-2.69-1.08,14.61,14.61,0,0,0-3-.37c-1,0-2,0-2.92,0l-2.81.06a15.29,15.29,0,0,1-2.31-.12,6,6,0,0,1-1.64-.43,1.39,1.39,0,0,1-.64-.58,1.92,1.92,0,0,1-.21-.69,2,2,0,0,1,.11-.79,2.76,2.76,0,0,1,.55-.9,3.86,3.86,0,0,1,1.16-.9,5.17,5.17,0,0,1,1.69-.63,4,4,0,0,1,1.51,0,4.71,4.71,0,0,1,1.47.55,8.28,8.28,0,0,1,1.49,1.1,1.52,1.52,0,0,0,1.17.39,1.6,1.6,0,0,0,.6-.18,1.52,1.52,0,0,0,.48-.43L79.45,156a1.53,1.53,0,0,0-.19-2,9.48,9.48,0,0,0-5.34-2.61,10.35,10.35,0,0,0-6.3,1.54,12,12,0,0,0-3.07,2.35,8.74,8.74,0,0,0-1.79,2.87,7.2,7.2,0,0,0-.42,3.18,7.73,7.73,0,0,0,1,3.07,6.56,6.56,0,0,0,2.18,2.39,8.7,8.7,0,0,0,2.69,1.14,13.55,13.55,0,0,0,2.91.37c.93,0,1.88,0,2.83,0l2.71-.06a13.12,13.12,0,0,1,2.23.13,5.5,5.5,0,0,1,1.59.5h0a2,2,0,0,1,.81.82,1.58,1.58,0,0,1,.23.82,2.5,2.5,0,0,1-.23,1,3.64,3.64,0,0,1-.7.95,4.8,4.8,0,0,1-1.09.82,5.46,5.46,0,0,1-1.65.62,4.91,4.91,0,0,1-1.62.05,5.33,5.33,0,0,1-1.6-.51,6.57,6.57,0,0,1-1.54-1.09,1.49,1.49,0,0,0-1.15-.4,1.43,1.43,0,0,0-.63.18,1.82,1.82,0,0,0-.45.38L69.4,174.3a1.51,1.51,0,0,0,.19,2.09,11.45,11.45,0,0,0,2.55,1.7,8.62,8.62,0,0,0,2.92.82,9.14,9.14,0,0,0,3.14-.23,13.1,13.1,0,0,0,3.25-1.31,13.25,13.25,0,0,0,3.39-2.6,9.52,9.52,0,0,0,1.93-3.09,7.67,7.67,0,0,0,.44-3.37,8,8,0,0,0-1-3.18A6,6,0,0,0,84.05,162.86Z"/><path class="cls-2" d="M115.68,154.94,104.5,149.7l1.51-8.31h0a1.55,1.55,0,0,0-.16-1,1.52,1.52,0,0,0-2.07-.59l-1.76,1a1.52,1.52,0,0,0-.75,1.06l-1.08,5.93L95,145.33a1.48,1.48,0,0,0-1.37,0l-3.77,2.09a1.52,1.52,0,0,0,.1,2.71l9,4.2-2,10.83a1.55,1.55,0,0,0,.61,1.51,1.53,1.53,0,0,0,1.63.09l1.75-1a1.51,1.51,0,0,0,.76-1.06l1.53-8.41,7.3,3.42a1.53,1.53,0,0,0,1.38,0l3.79-2.1a1.51,1.51,0,0,0-.1-2.7Z"/><path class="cls-2" d="M124.87,146.71l-1.09-.09a1.45,1.45,0,0,0-.87.18,1.85,1.85,0,0,0-.67.74c-.64,1.09-1.28.87-1.5.48l-5.29-9.53,2.29-1.27a1.53,1.53,0,0,0,.59-2.07l-.75-1.35a1.54,1.54,0,0,0-2.07-.59l-2.29,1.28-2.32-4.18a1.52,1.52,0,0,0-2.07-.59l-.91.5a1.53,1.53,0,0,0-.71,1.8c.28.86.52,1.71.7,2.51a6.37,6.37,0,0,1,.17,1.95,3.23,3.23,0,0,1-.47,1.44,3.89,3.89,0,0,1-1.4,1.19,1.52,1.52,0,0,0-.59,2.06l.45.8a1.52,1.52,0,0,0,2.06.59l1.47-.82,5.57,10a8.78,8.78,0,0,0,1.28,1.75,5.28,5.28,0,0,0,1.74,1.2,4.47,4.47,0,0,0,2.11.33,5.33,5.33,0,0,0,2.17-.69,7.27,7.27,0,0,0,2.85-2.68,7.17,7.17,0,0,0,.94-3.43A1.54,1.54,0,0,0,124.87,146.71Z"/><path class="cls-2" d="M134.15,122.87l-1.71.95a1.55,1.55,0,0,0-.78,1.48l1.1,11.33-10.06-6.47a1.49,1.49,0,0,0-1.56,0l-3.65,2a1.55,1.55,0,0,0-.78,1.28,1.53,1.53,0,0,0,.7,1.33l16.16,10.36v2.74h-.83a5.5,5.5,0,0,0-.89,0h0a4,4,0,0,0-1.39.51,3.87,3.87,0,0,0-1.17,1h0a3.72,3.72,0,0,0-.64,1.21h0a3.5,3.5,0,0,0-.12,1.37h0a3.37,3.37,0,0,0,.41,1.29,3.16,3.16,0,0,0,1.17,1.21h0a3.69,3.69,0,0,0,1.5.49,4.79,4.79,0,0,0,1.54-.11,5.89,5.89,0,0,0,1.47-.57,7.27,7.27,0,0,0,1.8-1.46,8.41,8.41,0,0,0,1.34-2.09,10.27,10.27,0,0,0,.75-2.62,12.6,12.6,0,0,0,.07-3.09h0l-2.18-20.9h0a1.47,1.47,0,0,0-.18-.65A1.54,1.54,0,0,0,134.15,122.87Z"/><path class="cls-2" d="M158.66,121.4a9.55,9.55,0,0,0-2.69-1.09,14.81,14.81,0,0,0-3-.36c-1,0-1.94,0-2.91,0l-2.81.06a15.22,15.22,0,0,1-2.31-.11,6,6,0,0,1-1.64-.44,1.22,1.22,0,0,1-.64-.58,1.55,1.55,0,0,1-.21-.68,2,2,0,0,1,.1-.79,3.11,3.11,0,0,1,.55-.91,4.31,4.31,0,0,1,1.16-.89A5.63,5.63,0,0,1,146,115a4.25,4.25,0,0,1,1.51,0,4.87,4.87,0,0,1,1.47.55,7.63,7.63,0,0,1,1.49,1.1,1.53,1.53,0,0,0,1.77.22,1.57,1.57,0,0,0,.49-.43l1.34-1.83a1.51,1.51,0,0,0-.19-2,9.38,9.38,0,0,0-5.33-2.62,10.54,10.54,0,0,0-6.31,1.54,11.76,11.76,0,0,0-3.06,2.36,8.8,8.8,0,0,0-1.79,2.86,7.24,7.24,0,0,0-.42,3.18,7.92,7.92,0,0,0,1,3.08,6.61,6.61,0,0,0,2.18,2.38,8.82,8.82,0,0,0,2.69,1.15,14.3,14.3,0,0,0,2.92.37c.93,0,1.88,0,2.83,0l2.71-.07a12,12,0,0,1,2.22.14,5.19,5.19,0,0,1,1.6.5h0a1.84,1.84,0,0,1,.81.82,1.55,1.55,0,0,1,.23.82h0a2.24,2.24,0,0,1-.23.94,3.29,3.29,0,0,1-.69,1,5.48,5.48,0,0,1-2.75,1.43,4.6,4.6,0,0,1-1.61.05,5,5,0,0,1-1.6-.5,6.83,6.83,0,0,1-1.55-1.09,1.5,1.5,0,0,0-1.77-.22,1.38,1.38,0,0,0-.45.38L144,132.83a1.52,1.52,0,0,0,.19,2.09,11.79,11.79,0,0,0,2.56,1.71,8.72,8.72,0,0,0,2.92.82,9.35,9.35,0,0,0,3.13-.24,13,13,0,0,0,3.25-1.31,13.45,13.45,0,0,0,3.39-2.59,9.59,9.59,0,0,0,1.94-3.1,7.64,7.64,0,0,0,.44-3.36,8.21,8.21,0,0,0-1-3.19A6,6,0,0,0,158.66,121.4Z"/><path class="cls-2" d="M186.94,93.52l-1.47.81a1.52,1.52,0,0,0-.78,1.46l1,11.93-9.79-7.08a1.51,1.51,0,0,0-1.63-.1l-3.36,1.87a1.51,1.51,0,0,0-.15,2.55L187.45,117a1.51,1.51,0,0,0,1.63.1l1.13-.62A1.52,1.52,0,0,0,191,115L189.2,94.78v0a1.43,1.43,0,0,0-.19-.66A1.51,1.51,0,0,0,186.94,93.52Z"/><path class="cls-2" d="M220.76,79.33A7.47,7.47,0,0,0,218.58,78a6.37,6.37,0,0,0-2.47-.43,5.44,5.44,0,0,0-2.49.69,9.47,9.47,0,0,0-3.28,3.09l-.19.29,0,.06-.54,1-.11-.19a1.23,1.23,0,0,0-.53-.48,1.53,1.53,0,0,0-1.38,0l-3.19,1.78a1.51,1.51,0,0,0-.59,2.06l9,16.12a1.51,1.51,0,0,0,2.06.59l3.2-1.77a1.54,1.54,0,0,0,.59-2.07l-6.32-11.38.17-.42.15-.35h0a9.78,9.78,0,0,1,.66-1.2,5.66,5.66,0,0,1,.7-.87,2.9,2.9,0,0,1,.65-.51,1.15,1.15,0,0,1,1.05-.09,2.76,2.76,0,0,1,1.25,1.32l6.13,11a1.52,1.52,0,0,0,2.07.59l3.21-1.78A1.53,1.53,0,0,0,228.9,93l-6.43-11.57A7.94,7.94,0,0,0,220.76,79.33Z"/><path class="cls-2" d="M209.64,95.6a1.54,1.54,0,0,0-1-.28l-1.37.13a1.16,1.16,0,0,0-.48.14,1.2,1.2,0,0,0-.58.79l-.05.23a1.43,1.43,0,0,0,0,.65,4,4,0,0,1,0,1.35,5.16,5.16,0,0,1-.5,1.56,6.53,6.53,0,0,1-1,1.51,5.5,5.5,0,0,1-1.43,1.13,3.93,3.93,0,0,1-1.89.52,5,5,0,0,1-2-.44,6.82,6.82,0,0,1-2-1.41,8.61,8.61,0,0,1-.89-1.27l10.53-5.85a1.3,1.3,0,0,0,.43-.41l0-.06a1.53,1.53,0,0,0,.05-1.56,9.18,9.18,0,0,0-2.36-2.75,9.28,9.28,0,0,0-3.2-1.61,9.55,9.55,0,0,0-3.67-.28,10.12,10.12,0,0,0-3.79,1.24A10.43,10.43,0,0,0,191,91.85a9.82,9.82,0,0,0-1.71,3.85,11.14,11.14,0,0,0,0,4.31,13.89,13.89,0,0,0,1.59,4.38,10.19,10.19,0,0,0,2.72,3.17,10.64,10.64,0,0,0,3.58,1.78,10.75,10.75,0,0,0,4,.33,10.4,10.4,0,0,0,4-1.27,9.19,9.19,0,0,0,2.63-2.2,11.34,11.34,0,0,0,1.77-2.92,12.12,12.12,0,0,0,.86-3.32,10.15,10.15,0,0,0-.21-3.48A1.55,1.55,0,0,0,209.64,95.6ZM195,97a5.26,5.26,0,0,1,.21-1.75,4.63,4.63,0,0,1,.76-1.44,3.57,3.57,0,0,1,1.1-1,5.17,5.17,0,0,1,1.79-.62,4.61,4.61,0,0,1,1.78,0,4.12,4.12,0,0,1,1.57.7l.25.19L195,97.25Z"/><path class="cls-2" d="M178.32,113a1.55,1.55,0,0,0-1-.28l-1.38.13a1.23,1.23,0,0,0-.47.14,1.25,1.25,0,0,0-.59.79l-.05.23a1.43,1.43,0,0,0,0,.65,3.79,3.79,0,0,1,0,1.35,5.42,5.42,0,0,1-.49,1.56,6.92,6.92,0,0,1-1,1.51,5.33,5.33,0,0,1-1.43,1.13,3.89,3.89,0,0,1-1.88.52,4.9,4.9,0,0,1-2-.44,6.87,6.87,0,0,1-2-1.41,9.44,9.44,0,0,1-.89-1.27l10.53-5.85a1.27,1.27,0,0,0,.43-.4l0-.07a1.53,1.53,0,0,0,0-1.56,9,9,0,0,0-2.36-2.75,9.42,9.42,0,0,0-3.19-1.61,9.61,9.61,0,0,0-3.68-.28,10.12,10.12,0,0,0-3.79,1.24,10.29,10.29,0,0,0-3.36,2.92,9.84,9.84,0,0,0-1.72,3.85,11.55,11.55,0,0,0,0,4.31,14.14,14.14,0,0,0,1.59,4.38,10.19,10.19,0,0,0,2.72,3.17,10.59,10.59,0,0,0,3.59,1.78,10.71,10.71,0,0,0,4,.33,10.41,10.41,0,0,0,4-1.27,9.37,9.37,0,0,0,2.64-2.2,11.63,11.63,0,0,0,1.77-2.92,12.1,12.1,0,0,0,.85-3.32,10.15,10.15,0,0,0-.21-3.48A1.61,1.61,0,0,0,178.32,113Zm-14.65,1.35a5,5,0,0,1,.21-1.75,4.4,4.4,0,0,1,.75-1.44,3.7,3.7,0,0,1,1.1-1,5.17,5.17,0,0,1,1.79-.62,4.8,4.8,0,0,1,1.78.05,4.23,4.23,0,0,1,1.58.7l.24.19-7.43,4.12C163.68,114.56,163.67,114.46,163.67,114.36Z"/><path class="cls-2" d="M85.45,147.71a1.21,1.21,0,0,0-.6.15,1.19,1.19,0,0,0-.45.44l-2.53,4.27a1.2,1.2,0,0,0,0,1.19l8.92,16a1.51,1.51,0,0,0,2.06.59L96,168.62a1.53,1.53,0,0,0,.59-2.07L86.47,148.33A1.18,1.18,0,0,0,85.45,147.71Z"/></g></g></svg>