<svg id="Desktop" xmlns="http://www.w3.org/2000/svg" viewBox="0 0 250 211.62"><defs><style>.cls-1{fill:#fff;}.cls-2{fill:#002a3a;}</style></defs><rect class="cls-1" width="250" height="211.62"/><g id="Logos"><g id="Pharos"><path id="Parenting" class="cls-2" d="M56.49,159.48a4.2,4.2,0,0,0-1.77-.34H52.21V170H53v-4.57h1.69a4.12,4.12,0,0,0,1.57-.27,3.1,3.1,0,0,0,1.07-.74,2.79,2.79,0,0,0,.61-1,3.72,3.72,0,0,0,.2-1.19,3.1,3.1,0,0,0-.43-1.71A2.58,2.58,0,0,0,56.49,159.48Zm.74,3.54a2.7,2.7,0,0,1-.43.82,2.19,2.19,0,0,1-.83.64,3,3,0,0,1-1.32.25H53v-4.87H54.8a3.33,3.33,0,0,1,1.09.17,2.3,2.3,0,0,1,.8.49,2,2,0,0,1,.5.75,2.59,2.59,0,0,1,.17.95A2.72,2.72,0,0,1,57.23,163ZM71,158.66,66.44,170h.75l1.44-3.6h4.81l1.41,3.6h.85l-4.6-11.36Zm-2.13,7.05,2.14-5.34,2.11,5.34Zm21-.53a2.92,2.92,0,0,0,1.07-.74,2.76,2.76,0,0,0,.6-1,3.71,3.71,0,0,0,.19-1.19,3,3,0,0,0-.31-1.4,2.76,2.76,0,0,0-.81-.95,3.27,3.27,0,0,0-1.1-.56,4.6,4.6,0,0,0-1.22-.17H85.88V170h.75v-4.57h1.69a5.13,5.13,0,0,0,.81-.06L92,170h.87l-2.94-4.83Zm-1.67-.45H86.63v-4.87h1.84a2.78,2.78,0,0,1,1.06.19,2.62,2.62,0,0,1,.81.52,2.17,2.17,0,0,1,.51.76,2.36,2.36,0,0,1,.18.92,2.83,2.83,0,0,1-.13.85,2.3,2.3,0,0,1-.44.81,2.14,2.14,0,0,1-.84.59A3.34,3.34,0,0,1,88.27,164.73ZM104,169.3h6.18V170h-6.93V159.14H110v.72h-6v4.32h5.37v.72H104Zm25.13-10.16h.72v11.14h0l-8.39-9.45,0,9.19h-.74V158.91h.05l8.38,9.52Zm11,0h7.13v.72H144V170h-.75V159.86h-3.17Zm17.38,0h.75V170h-.75Zm20.3,0h.72v11.14h0l-8.38-9.45V170h-.74V158.91h0l8.39,9.52Zm16.87,5.93h3.2v4.19a4.16,4.16,0,0,1-.67.34,6.73,6.73,0,0,1-.83.28,7,7,0,0,1-.91.2,7.23,7.23,0,0,1-.89.07,6,6,0,0,1-2.32-.43,5.28,5.28,0,0,1-1.77-1.16,5.13,5.13,0,0,1-1.13-1.73,5.81,5.81,0,0,1-.39-2.14,5.91,5.91,0,0,1,.44-2.29,5.57,5.57,0,0,1,1.2-1.8,5.45,5.45,0,0,1,1.78-1.17,5.57,5.57,0,0,1,2.15-.42,6.09,6.09,0,0,1,1.62.22,5.82,5.82,0,0,1,1.37.58l-.28.68a4,4,0,0,0-.8-.38,5.56,5.56,0,0,0-.91-.25,4.88,4.88,0,0,0-.93-.09,5.14,5.14,0,0,0-1.93.36,4.83,4.83,0,0,0-1.55,1,4.65,4.65,0,0,0-1,1.55,4.92,4.92,0,0,0-.37,1.93,5,5,0,0,0,.34,1.88,4.67,4.67,0,0,0,1,1.52,4.59,4.59,0,0,0,1.53,1,5.21,5.21,0,0,0,2,.36,6.49,6.49,0,0,0,1.35-.15,4.3,4.3,0,0,0,1.21-.45v-3h-2.45Z"/><path id="PHAROS-2" data-name="PHAROS" class="cls-2" d="M50.74,116.46a15.53,15.53,0,0,0-6.84-1.36H34v32.67h6.44V137.43h4.61a13,13,0,0,0,5.4-1,9.39,9.39,0,0,0,3.5-2.64,10.69,10.69,0,0,0,1.91-3.66,14.09,14.09,0,0,0,.6-4A11.3,11.3,0,0,0,55,120.27,9.77,9.77,0,0,0,50.74,116.46Zm-1,11.29a5.32,5.32,0,0,1-.8,1.62,4.25,4.25,0,0,1-1.53,1.29,5.22,5.22,0,0,1-2.44.51H40.44v-9.85h4.61a5.43,5.43,0,0,1,2.69.57,4,4,0,0,1,1.49,1.42,5.41,5.41,0,0,1,.64,1.67,7.87,7.87,0,0,1,.16,1.31A5.51,5.51,0,0,1,49.78,127.75Zm33.49,20V134.5H68.67v13.27H62.23V115.1h6.44v13.18h14.6V115.1h6.44v32.67Zm41,0-14.74-34h-.35l-14.74,34h6.35l2.66-6.39h10.85l2.51,6.39ZM105.72,136l3.31-8,3.14,8Zm43.44-2.22a10.28,10.28,0,0,0,2-3.64,13.79,13.79,0,0,0,.6-4,11.75,11.75,0,0,0-.84-4.55,9.51,9.51,0,0,0-2.47-3.46,11.18,11.18,0,0,0-4-2.22,17.64,17.64,0,0,0-5.46-.78H129v32.67h6.44V137.38h4.28l6.9,10.39h7.5l-7.61-11.87A9.29,9.29,0,0,0,149.16,133.74Zm-13.69-12.42h4.61a5.43,5.43,0,0,1,2.69.57,4,4,0,0,1,1.48,1.42,5.44,5.44,0,0,1,.65,1.67,7.86,7.86,0,0,1,.15,1.35,5.39,5.39,0,0,1-.24,1.53,5.24,5.24,0,0,1-.8,1.58,4.14,4.14,0,0,1-1.53,1.24,5.38,5.38,0,0,1-2.44.49h-4.57Zm49.33-1.58a17.68,17.68,0,0,0-5.35-3.66,16.35,16.35,0,0,0-12.92,0,17,17,0,0,0-5.3,3.66,17.29,17.29,0,0,0-3.57,5.35,16.07,16.07,0,0,0-1.29,6.39,16.3,16.3,0,0,0,1.29,6.48,16.75,16.75,0,0,0,8.87,8.88,16.94,16.94,0,0,0,12.92,0,17.27,17.27,0,0,0,5.35-3.58,16.76,16.76,0,0,0,3.64-5.3,16.14,16.14,0,0,0,1.31-6.48,15.92,15.92,0,0,0-1.31-6.39A17.33,17.33,0,0,0,184.8,119.74Zm-2.47,15.8a10.58,10.58,0,0,1-2.08,3.33,9.42,9.42,0,0,1-7,3,9.91,9.91,0,0,1-7.26-3,10.5,10.5,0,0,1-2.18-3.33,10.71,10.71,0,0,1-.77-4.06,11.22,11.22,0,0,1,.75-4.13,10.35,10.35,0,0,1,2.13-3.35,10,10,0,0,1,11.1-2.24,9.57,9.57,0,0,1,3.17,2.24,10.83,10.83,0,0,1,2.91,7.48A10.7,10.7,0,0,1,182.33,135.54Zm32.76-.75a10.52,10.52,0,0,1,.67,4,8.76,8.76,0,0,1-1.29,4.62,9.49,9.49,0,0,1-3.77,3.44,13.08,13.08,0,0,1-6.13,1.3,19.78,19.78,0,0,1-3.79-.37,19.34,19.34,0,0,1-3.8-1.16,18.84,18.84,0,0,1-3.59-2l2.84-5a15.15,15.15,0,0,0,2.5,1.49,15.82,15.82,0,0,0,2.73,1,10,10,0,0,0,2.53.35,8.57,8.57,0,0,0,2.33-.33,4.3,4.3,0,0,0,2-1.13,3.07,3.07,0,0,0,.77-2.22,2.78,2.78,0,0,0-.64-1.78,6.71,6.71,0,0,0-1.73-1.46,14.17,14.17,0,0,0-2.38-1.15c-1-.39-2-.83-3.1-1.34a15.38,15.38,0,0,1-3-1.84,8.4,8.4,0,0,1-2.26-2.71,8.29,8.29,0,0,1-.87-4,9.24,9.24,0,0,1,1.27-4.92,8.86,8.86,0,0,1,3.57-3.31,12.49,12.49,0,0,1,5.33-1.36,18.43,18.43,0,0,1,6.41.94,22.54,22.54,0,0,1,4.42,2.22L213.63,123a24.46,24.46,0,0,0-3.8-1.68,11,11,0,0,0-3.62-.67,5.63,5.63,0,0,0-3.28.84,2.9,2.9,0,0,0-1.2,2.53,2.85,2.85,0,0,0,.91,2.07,9.16,9.16,0,0,0,2.35,1.62,31.08,31.08,0,0,0,3,1.28,26,26,0,0,1,2.82,1.27,10.48,10.48,0,0,1,2.5,1.82A7.89,7.89,0,0,1,215.09,134.79Z"/><path id="icon" class="cls-2" d="M107.44,62v-7a2,2,0,0,0,1.57.88h.09a2.24,2.24,0,0,0,2.14-2.13,1.85,1.85,0,0,0,.9.3h.07a2.16,2.16,0,0,0,2.08-2.44,1.28,1.28,0,0,0,.42.07,1.06,1.06,0,0,0,1.06-1.46h0a1.16,1.16,0,0,1-1.12.88l-.22,0a1.18,1.18,0,0,1-.7-.44,2,2,0,0,1,0,.87A1.92,1.92,0,0,1,111.87,53a2.46,2.46,0,0,1-.37,0,1.88,1.88,0,0,1-.86-.42,2.15,2.15,0,0,1-2.09,1.66,2,2,0,0,1-.42,0,2.07,2.07,0,0,1-.69-.27V50.94h0l16.17-4.68L119,48.39a2,2,0,0,1-2.33,2.74,3,3,0,0,1,.27,1.23,3.55,3.55,0,0,1-1.74,3.09,1,1,0,0,0,.21,0c.54,0,2-.23,2.41-2.66,0,0,1.62,3.63-2.88,4.23C108.75,57.87,107.44,62,107.44,62Zm44.82-5.88a28.21,28.21,0,0,1-1.2,8.05,21.46,21.46,0,0,1-3.82,7.34,18.22,18.22,0,0,1-2.61,2.67,5.24,5.24,0,0,1-3.34,1.2H141a25.48,25.48,0,0,1-6.77-1.42,2.26,2.26,0,0,0-.11-1,1.55,1.55,0,0,0-.47-.64c-.6-.37-.94-.13-1.31-.56a2.15,2.15,0,0,0-1.52-1l.29,3.92a58.63,58.63,0,0,0,9.55,1.51c-10.18,3-28.52-4-26.63-11.93.77-3,5.39-3.67,6.65-.66-1.73-.77-5.48.48-3.38,4a2.32,2.32,0,0,1,.64-1.14,1.94,1.94,0,0,1,3.29.68,1.44,1.44,0,0,0-2.35,1.19c0,1.19,1.35,2.28,3.13,3.22l.09,0L123,55.82l-2.18-1.43V52.26h.77v-1.7H123V47.5h.81V43.77l2-.6a.68.68,0,0,1-.2-.49.7.7,0,0,1,.39-.63V39.63h.62v2.42a.7.7,0,0,1,.39.63.67.67,0,0,1-.19.47l2,.62V47.5h.81v3.06h1.42v1.7h.77v2.13l-2.18,1.43.91,12.29a1.19,1.19,0,0,0,.58.93,5.5,5.5,0,0,0,2.56.67,4.47,4.47,0,0,0,1.27-.18c4.22-1.2,8.26-11.59,4.65-22.41A14.5,14.5,0,0,0,126,36.7h-5.89a3.26,3.26,0,0,1,.5,1.24,2.9,2.9,0,0,1-.83,2.47,3,3,0,0,1,0,4.1l3.84,1.74-16.17-4.68h0V38.93a2.09,2.09,0,0,1,.69-.28,3,3,0,0,1,.42,0,2.16,2.16,0,0,1,2.09,1.66,1.86,1.86,0,0,1,.86-.41,1.61,1.61,0,0,1,.37,0,1.92,1.92,0,0,1,1.88,1.55,2,2,0,0,1,0,.87,1.14,1.14,0,0,1,.7-.44.82.82,0,0,1,.22,0,1.15,1.15,0,0,1,1.12.87h0a1.08,1.08,0,0,0-1-1.46,1.53,1.53,0,0,0-.45.08,2,2,0,0,0-2-2.45,2.36,2.36,0,0,0-1.14.31,2.2,2.2,0,0,0-1.82-2h-.17a2.4,2.4,0,0,0-1.81.71V37a3,3,0,0,1,2.4-2.92l.41,0a3.17,3.17,0,0,1,2.5,1.12,3.49,3.49,0,0,1,.78,1.86,4.35,4.35,0,0,1,2.77,1.37,3.56,3.56,0,0,1,.74,3.14c2.37.46,2.13,2,2.13,2A2,2,0,0,0,117.82,41c.82-4.35-3.62-4.66-3.62-4.66A2.69,2.69,0,0,0,113.05,34h14a31.34,31.34,0,0,1,13.69,2.71,19.55,19.55,0,0,1,8.54,7.65A22.52,22.52,0,0,1,152.26,56.07Zm-23.19,0-2.73,0V58.1a.83.83,0,0,0-.83.82v1.57a.18.18,0,0,0,.17.18h.66v2.15a.83.83,0,0,0-.83.82v1.58a.18.18,0,0,0,.17.17h.66v2.15a.83.83,0,0,0-.83.83v1.57a.17.17,0,0,0,.17.17h.66a2.41,2.41,0,0,0,2.28,2.41l1.19.06Zm-.43-4.84v1.07h1.84V51.19Zm-4.22-3.69h3.83v-3h-3.83Zm-.81,3.06h5.46v-.89h-5.46Zm3,.63v1.07h1.49V51.19Zm-2,0v1.07h1.49V51.19Zm-2.38,1.07H124V51.19H122.2Zm1.2,3.1h5.87l1.34-1h-8.54Zm26.86.71a20.6,20.6,0,0,0-2.65-10.67,17.65,17.65,0,0,0-7.69-6.86,24.07,24.07,0,0,0-6.66-2,16.73,16.73,0,0,1,8.31,10A29.34,29.34,0,0,1,143,57.72a23.19,23.19,0,0,1-2.4,8.94c-1.36,2.58-3.09,4.23-5,4.79a4.75,4.75,0,0,1,.33.59c0,.13.1.25.14.37a23.49,23.49,0,0,0,5,.92h.19a3.23,3.23,0,0,0,2.06-.74,16.13,16.13,0,0,0,2.32-2.38,19.46,19.46,0,0,0,3.47-6.66A26.35,26.35,0,0,0,150.26,56.07Zm-38.9,18.74a12.47,12.47,0,0,1-3.92-4.53v8.38A9.74,9.74,0,0,1,111.36,74.81Zm6.33-1.74a13.76,13.76,0,0,1-3.91-3.74c-3.69-5.64,1.35-10.16,5.13-8.56-.73-2.29-3.24-2.45-4.09-2.45a7.38,7.38,0,0,0-7.38,7.39c0,6.38,6.12,9.23,6.14,9.24-4.23,1.54-6,4.7-6.14,7.44V98.72h8.17a5,5,0,0,0,5-5L120.55,80c-7.8-.68-11.15,7.41-4.61,13.79-6-2.85-5.39-8.46-4.45-10.51,1.82-4,5.08-4.52,9-4.52h6.26a46.89,46.89,0,0,0,8.93-.42,48.85,48.85,0,0,1-7.26-1.09A31.14,31.14,0,0,1,117.69,73.07ZM107.44,47.52h0l16.17-1.26L107.44,45Zm20.08-1.9c0,.73-1.18,1.32-1.18,1.32s-1.18-.59-1.18-1.32a.61.61,0,0,1,.61-.61.62.62,0,0,0,1.14,0A.61.61,0,0,1,127.52,45.62Zm3.28-2.68c-.22-.08-.36-.62-.8-.73a6.64,6.64,0,0,0-1.58,0,5.61,5.61,0,0,1,1.49.56c.35.29.42.83.65.83s.78-.4,1.07-.4a11.73,11.73,0,0,1,1.28.2,3.2,3.2,0,0,0-1-.72C131.45,42.57,131,43,130.8,42.94Zm1.46-3.15c-.33.06-.47.52-.65.53s-.45-.3-.79-.23a5.23,5.23,0,0,0-1.06.51,4.22,4.22,0,0,1,1.19-.1c.33.08.56.42.71.35s.4-.53.6-.63.93-.28.93-.28A2.55,2.55,0,0,0,132.26,39.79Zm-3.74-.92c-.16-.07-.27-.47-.61-.56a5.56,5.56,0,0,0-1.18,0,4.51,4.51,0,0,1,1.12.42c.27.22.32.63.49.63s.59-.31.81-.31a9,9,0,0,1,1,.15,2.49,2.49,0,0,0-.78-.54C129,38.58,128.69,38.93,128.52,38.87Z"/></g></g></svg>