<svg id="Desktop" xmlns="http://www.w3.org/2000/svg" viewBox="0 0 250 211.62"><defs><style>.cls-1{fill:#fff;}.cls-2{fill:#002a3a;}</style></defs><rect class="cls-1" width="250" height="211.62"/><g id="Logos"><g id="twisp"><path class="cls-2" d="M50.92,79.94H40.23a2,2,0,0,0-2,2h0a2,2,0,0,0,2,2H50.92v46.16a2,2,0,0,0,2,2h0a2,2,0,0,0,2-2V83.89H65.55a2,2,0,0,0,2-2h0a2,2,0,0,0-2-2H50.92Z"/><rect class="cls-2" x="148.86" y="79.94" width="3.95" height="52.08" rx="1.98"/><path class="cls-2" d="M216.46,79.94H201.59v50.11a2,2,0,0,0,2,2h0a2,2,0,0,0,2-2V108h11.29a14,14,0,0,0,14-13.77A14.31,14.31,0,0,0,216.46,79.94Zm.37,24.06H205.54V83.89h11.29a10.06,10.06,0,0,1,0,20.11Z"/><path class="cls-2" d="M179,104h-1a10.25,10.25,0,0,1-10.34-9.55,10.07,10.07,0,0,1,10.05-10.56h10.92a2,2,0,0,0,2-2h0a2,2,0,0,0-2-2H178.08A14.32,14.32,0,0,0,163.7,94.19a14,14,0,0,0,14,13.77h1A10.24,10.24,0,0,1,189,117a10.06,10.06,0,0,1-10,11H168.05a2,2,0,0,0-2,2h0a2,2,0,0,0,2,2H178.6c7.84,0,14.51-6.41,14.38-14.24A14,14,0,0,0,179,104Z"/><path class="cls-2" d="M108.22,112.94l-5.88,16.49c-.32,1-3,9.46.23,13.92a7.26,7.26,0,0,0,11.18,0c3.22-4.46.55-13,.22-13.95Z"/><path class="cls-2" d="M136.33,81.24,121.05,124.1,111.57,97l-2.15,5.82,9.75,27.92A2,2,0,0,0,121,132h0a2,2,0,0,0,1.86-1.31l17.15-48.14a2,2,0,0,0-1.86-2.63h0A2,2,0,0,0,136.33,81.24Z"/><path class="cls-2" d="M114,82.53c.32-1,3-9.46-.23-13.92a7.26,7.26,0,0,0-11.18,0c-3.22,4.46-.55,13-.22,14L106,93.08,95,124.1,80,81.25a2,2,0,0,0-1.87-1.32h0a2,2,0,0,0-1.87,2.62L93.09,130.7A2,2,0,0,0,95,132h0a2,2,0,0,0,1.86-1.31Zm-8.2-11.61a3.36,3.36,0,0,1,4.76,0c1.55,2.14.63,7.5-.3,10.32l-2.1,5.91-2-5.86C105.15,78.42,104.23,73.06,105.78,70.92Z"/><path class="cls-2" d="M74,140.64l1.15,1.21L69.79,147l-1.15-1.2,2.27-2.18-1.94-2-2.27,2.17-1.15-1.2,5.35-5.13,1.15,1.21-2,2,1.94,2Z"/><path class="cls-2" d="M76.71,152.44c.09-.25.17-.52.26-.79s.16-.55.25-.83l-2.34-1.7-.71.49-.68.48-1.4-1,2-1.32c.6-.4,1.18-.77,1.72-1.11s1.08-.67,1.58-1,1-.58,1.52-.85l1.27.93c-.1.56-.22,1.13-.34,1.7s-.27,1.18-.43,1.8-.34,1.29-.54,2-.42,1.45-.66,2.26Zm1.77-5.81-.39.26-.58.37-.72.47-.82.54,1.71,1.25.28-.94c.08-.3.16-.57.23-.83s.12-.47.17-.66Z"/><path class="cls-2" d="M86.06,149.24a4.62,4.62,0,0,1,2,1.67,2.06,2.06,0,0,1,0,2.05,2.1,2.1,0,0,1-.89,1,2.43,2.43,0,0,1-1.26.22c0,.23.09.49.13.78s.08.58.11.89,0,.61,0,.93,0,.63,0,.93l-1.67-.83c0-.28,0-.56,0-.85s0-.56-.06-.84-.05-.54-.09-.79a6.26,6.26,0,0,0-.13-.7l-.74-.37-1.2,2.42-1.5-.74L84,148.45a9.19,9.19,0,0,1,1.08.37C85.47,149,85.79,149.11,86.06,149.24Zm-.55,1.32-.29-.14-.26-.1-.89,1.8.42.21a2.83,2.83,0,0,0,1.31.39.85.85,0,0,0,.72-.54.82.82,0,0,0,0-.87A2.6,2.6,0,0,0,85.51,150.56Z"/><path class="cls-2" d="M96.44,157.13a4.43,4.43,0,0,1-.77,1.52,3.2,3.2,0,0,1-1.15.9,3.77,3.77,0,0,1-1.49.29,6.13,6.13,0,0,1-1.77-.28c-.29-.09-.62-.2-1-.34a10.43,10.43,0,0,1-1.08-.48l2.07-6.92a8.76,8.76,0,0,1,1.19.21c.41.09.75.18,1,.27a6.71,6.71,0,0,1,1.6.69,3.68,3.68,0,0,1,1.08,1,2.92,2.92,0,0,1,.48,1.37A4.38,4.38,0,0,1,96.44,157.13Zm-5.3.87.26.1.35.11a2.49,2.49,0,0,0,2-.07,2.45,2.45,0,0,0,1.08-1.5,2.1,2.1,0,0,0-1.63-3l-.34-.09a2.29,2.29,0,0,0-.34-.07Z"/><path class="cls-2" d="M104.5,160.65a2.21,2.21,0,0,0,.59,0,.9.9,0,0,0,.37-.14.51.51,0,0,0,.21-.23.73.73,0,0,0,.07-.3.71.71,0,0,0-.3-.63,5.2,5.2,0,0,0-1.14-.59c-.24-.1-.48-.21-.71-.33A2.69,2.69,0,0,1,103,158a2.06,2.06,0,0,1-.43-.64,1.88,1.88,0,0,1-.13-.88,2.19,2.19,0,0,1,.25-.91,2,2,0,0,1,.59-.67,2.62,2.62,0,0,1,.88-.39,3.79,3.79,0,0,1,1.14-.08,4.63,4.63,0,0,1,1.29.24,4.44,4.44,0,0,1,.87.41l-.56,1.28a5.22,5.22,0,0,0-.67-.33,3.57,3.57,0,0,0-.91-.18,1.7,1.7,0,0,0-.87.12.55.55,0,0,0-.29.49.61.61,0,0,0,.07.34,1,1,0,0,0,.26.27,2.87,2.87,0,0,0,.39.23l.5.22c.38.17.7.33,1,.48a2.86,2.86,0,0,1,.68.53,1.9,1.9,0,0,1,.38.68,2.57,2.57,0,0,1,.08.91,1.94,1.94,0,0,1-.82,1.57,3.54,3.54,0,0,1-2.23.43,7,7,0,0,1-.88-.11,6.66,6.66,0,0,1-.69-.19,4.42,4.42,0,0,1-.51-.21,2.87,2.87,0,0,1-.36-.21l.55-1.29a4.3,4.3,0,0,0,.8.37A4.14,4.14,0,0,0,104.5,160.65Z"/><path class="cls-2" d="M110.48,162.05l-.61-7.39,5-.41.11,1.39-3.32.28.12,1.45,3-.25.12,1.37-3,.24.15,1.78,3.57-.29.12,1.39Z"/><path class="cls-2" d="M123.26,158.57l.32,1.4-4.83,1.12-1.67-7.22,1.63-.38,1.35,5.82Z"/><path class="cls-2" d="M128,150.53l.5,1.34-2.1.77,2.09,5.62-1.57.58-2.08-5.61-2.1.77-.49-1.33Z"/><path class="cls-2" d="M134.89,148.11c-.08.31-.17.71-.26,1.19s-.18,1-.26,1.55-.14,1.11-.2,1.68-.09,1.1-.1,1.6l3.29-1.84.69,1.22L133,156.36l-.49-.87c0-.42,0-.89.05-1.42s.08-1.07.13-1.62.12-1.08.2-1.61.15-1,.23-1.44l-2.9,1.63-.69-1.23,4.84-2.7Z"/><path class="cls-2" d="M140.56,151.8,136,145.94l4-3.06.86,1.11-2.64,2,.89,1.15,2.34-1.81.84,1.08-2.34,1.81,1.09,1.41,2.83-2.19.86,1.11Z"/><path class="cls-2" d="M143.12,139.7a4.58,4.58,0,0,1,2.18-1.45,2,2,0,0,1,1.95.62,2.07,2.07,0,0,1,.68,1.13,2.38,2.38,0,0,1-.15,1.27c.23,0,.5,0,.78.1s.58.1.88.16.6.13.91.22.61.17.89.26L150,143.37l-.82-.21-.82-.18-.79-.15c-.25,0-.49-.06-.71-.08l-.56.6,2,1.86-1.14,1.21-5.31-5a7.84,7.84,0,0,1,.66-.92A10,10,0,0,1,143.12,139.7Zm1.1.91a2.29,2.29,0,0,0-.22.24l-.17.21,1.46,1.38.32-.34a2.91,2.91,0,0,0,.76-1.14.85.85,0,0,0-.31-.85.81.81,0,0,0-.84-.23A2.46,2.46,0,0,0,144.22,140.61Z"/><path class="cls-2" d="M79.62,64.15a2.62,2.62,0,0,0,.45-.38,1,1,0,0,0,.21-.34.53.53,0,0,0,0-.3,1.23,1.23,0,0,0-.13-.29.74.74,0,0,0-.62-.31,5,5,0,0,0-1.27.23c-.25.07-.5.12-.77.17a2.85,2.85,0,0,1-.77,0A2.18,2.18,0,0,1,76,62.7a1.79,1.79,0,0,1-.64-.62,2.18,2.18,0,0,1-.36-.87,1.92,1.92,0,0,1,.06-.89,2.33,2.33,0,0,1,.46-.84,3.76,3.76,0,0,1,.85-.77,4.71,4.71,0,0,1,1.16-.59,5.46,5.46,0,0,1,.94-.21l.34,1.36a5.58,5.58,0,0,0-.73.15,3.13,3.13,0,0,0-.82.41,1.7,1.7,0,0,0-.62.62.56.56,0,0,0,.06.57.61.61,0,0,0,.28.23.81.81,0,0,0,.36,0,1.86,1.86,0,0,0,.45-.06l.53-.12c.4-.1.75-.17,1.07-.22a2.73,2.73,0,0,1,.86,0,1.55,1.55,0,0,1,.71.3,2.56,2.56,0,0,1,.63.67,1.94,1.94,0,0,1,.3,1.75,3.57,3.57,0,0,1-1.5,1.7,7.15,7.15,0,0,1-.76.45c-.24.11-.47.2-.67.27a3.51,3.51,0,0,1-.53.14l-.41.06-.35-1.36a4.84,4.84,0,0,0,.86-.19A4.36,4.36,0,0,0,79.62,64.15Z"/><path class="cls-2" d="M89.56,56.12A4.52,4.52,0,0,1,90,57.76a3.29,3.29,0,0,1-.21,1.42A3.16,3.16,0,0,1,89,60.34a4.27,4.27,0,0,1-1.23.82,4,4,0,0,1-1.4.37A3.21,3.21,0,0,1,85,61.35a3.35,3.35,0,0,1-1.22-.77,4.67,4.67,0,0,1-1-1.4,4.47,4.47,0,0,1-.42-1.65,3.58,3.58,0,0,1,.24-1.44,3.29,3.29,0,0,1,.76-1.16,4,4,0,0,1,1.18-.8A4,4,0,0,1,86,53.76a3.19,3.19,0,0,1,1.37.18,3.55,3.55,0,0,1,1.23.78A4.48,4.48,0,0,1,89.56,56.12Zm-5.15,2.35a3.45,3.45,0,0,0,.53.84,2.3,2.3,0,0,0,.66.52,1.72,1.72,0,0,0,.77.19,2.09,2.09,0,0,0,1.51-.69,1.56,1.56,0,0,0,.36-.7,2.13,2.13,0,0,0,0-.84,3.63,3.63,0,0,0-.28-.95,3.35,3.35,0,0,0-.54-.85,2.17,2.17,0,0,0-.66-.53,1.72,1.72,0,0,0-.77-.19,1.87,1.87,0,0,0-1.87,1.4,2.39,2.39,0,0,0,0,.85A3.38,3.38,0,0,0,84.41,58.47Z"/><path class="cls-2" d="M96.2,58.23a3.64,3.64,0,0,1-1.36.11,2.52,2.52,0,0,1-1-.36,2.43,2.43,0,0,1-.76-.77,3.92,3.92,0,0,1-.46-1.12l-1.11-4.47,1.62-.4,1.08,4.33a2.46,2.46,0,0,0,.28.72,1.39,1.39,0,0,0,.4.43,1,1,0,0,0,.48.18,1.75,1.75,0,0,0,.55-.06,1.27,1.27,0,0,0,.87-.6,1.72,1.72,0,0,0,.07-1.32l-1.08-4.34,1.62-.41,1.11,4.48a3.87,3.87,0,0,1,.11,1.2,2.47,2.47,0,0,1-.31,1.05,2.5,2.5,0,0,1-.78.81A4,4,0,0,1,96.2,58.23Z"/><path class="cls-2" d="M106.5,49.15l.12,1.42-2.23.18.49,6-1.66.14-.49-6-2.23.18-.12-1.42Z"/><path class="cls-2" d="M114.18,49.5l1.67.14-.6,7.39-1.67-.14.26-3.13-2.79-.23-.26,3.14-1.66-.14.6-7.39,1.66.14-.23,2.82,2.79.23Z"/><path class="cls-2" d="M117.85,57.51l1.79-7.19,4.86,1.21-.34,1.36-3.24-.81-.35,1.41,2.88.72-.34,1.33-2.87-.72-.43,1.73,3.47.87-.34,1.36Z"/><path class="cls-2" d="M129.88,53.42A4.61,4.61,0,0,1,132,55a2.09,2.09,0,0,1,.1,2,2.06,2.06,0,0,1-.83,1,2.27,2.27,0,0,1-1.25.3c.07.23.13.49.19.77s.11.58.15.88.08.62.11.93.05.63.06.93l-1.72-.73-.09-.84c0-.28-.06-.56-.11-.84s-.09-.53-.14-.78a6.52,6.52,0,0,0-.17-.7l-.76-.32-1.05,2.49L125,59.47l2.85-6.73a9.05,9.05,0,0,1,1.1.31C129.27,53.17,129.6,53.3,129.88,53.42Zm-.47,1.34-.3-.11-.26-.09-.79,1.85.43.18a2.8,2.8,0,0,0,1.34.31.82.82,0,0,0,.68-.58.8.8,0,0,0-.07-.87A2.55,2.55,0,0,0,129.41,54.76Z"/><path class="cls-2" d="M136.49,65.51c.06-1,.08-2,.06-3a25.41,25.41,0,0,0-.21-2.93L133.7,63.7l-1.39-.9,4-6.22,1.14.74c.07.33.13.71.18,1.16s.1.9.14,1.39.06,1,.08,1.49,0,1,0,1.46l2.38-3.67,1.39.9-4,6.22Z"/><path class="cls-2" d="M172.88,142.88c0-.16-.1-.33-.16-.5l-.18-.51h-1.81l-.18.51c-.06.17-.11.34-.16.5h-1.08c.17-.5.34-1,.49-1.39s.31-.82.46-1.19.3-.73.44-1.07.3-.67.46-1h1q.22.48.45,1c.14.34.29.69.44,1.07s.31.77.46,1.19.33.89.5,1.39Zm-1.25-3.59c0,.07-.06.16-.1.28s-.1.25-.16.4-.12.32-.19.5-.14.38-.21.58h1.32l-.2-.58-.19-.5c-.06-.16-.12-.29-.16-.4Z"/><path class="cls-2" d="M178,142v.9h-3.09v-4.64h1V142Z"/><path class="cls-2" d="M182.12,142v.9H179v-4.64h1V142Z"/><path class="cls-2" d="M188.18,142.88c-.3-.53-.63-1.06-1-1.57a16.62,16.62,0,0,0-1.11-1.47v3h-1v-4.64h.85c.14.15.31.33.48.55s.36.44.55.68.37.5.55.76l.52.75v-2.74h1v4.64Z"/><path class="cls-2" d="M193.56,142.88c-.05-.16-.1-.33-.16-.5l-.18-.51h-1.81c-.06.17-.12.34-.17.51s-.12.34-.17.5H190c.17-.5.34-1,.49-1.39s.31-.82.46-1.19.3-.73.45-1.07.29-.67.45-1h1l.45,1c.15.34.29.69.44,1.07s.31.77.46,1.19.33.89.5,1.39Zm-1.25-3.59c0,.07-.06.16-.1.28s-.1.25-.15.4l-.2.5c-.07.18-.14.38-.21.58H193l-.2-.58-.19-.5c-.06-.16-.11-.29-.16-.4S192.34,139.36,192.31,139.29Z"/><path class="cls-2" d="M198.5,138.24v.89h-1.4v3.75h-1v-3.75h-1.4v-.89Z"/><path class="cls-2" d="M201.31,143a2.18,2.18,0,0,1-.84-.14,1.47,1.47,0,0,1-.58-.38,1.35,1.35,0,0,1-.34-.58,2.17,2.17,0,0,1-.11-.74v-2.89h1V141a1.65,1.65,0,0,0,.06.48.77.77,0,0,0,.18.32.56.56,0,0,0,.26.17,1,1,0,0,0,.35.06.84.84,0,0,0,.62-.24,1.11,1.11,0,0,0,.23-.79v-2.8h1v2.89a2.17,2.17,0,0,1-.12.74,1.5,1.5,0,0,1-.34.59,1.67,1.67,0,0,1-.6.38A2.47,2.47,0,0,1,201.31,143Z"/><path class="cls-2" d="M205.92,138.19a2.85,2.85,0,0,1,1.6.37,1.28,1.28,0,0,1,.55,1.15,1.33,1.33,0,0,1-.22.8,1.52,1.52,0,0,1-.64.48c.09.11.19.24.29.39l.3.47q.15.24.3.51l.26.52h-1.17l-.26-.46-.27-.46-.27-.42a3.55,3.55,0,0,0-.27-.35h-.51v1.69h-1.05v-4.57a5.51,5.51,0,0,1,.71-.09Zm.06.89h-.37v1.26h.29a1.72,1.72,0,0,0,.84-.15.54.54,0,0,0,.26-.5.52.52,0,0,0-.26-.49A1.66,1.66,0,0,0,206,139.08Z"/><path class="cls-2" d="M212.68,142.88c-.06-.16-.11-.33-.17-.5l-.18-.51h-1.81c-.06.17-.12.34-.17.51s-.12.34-.17.5H209.1c.17-.5.34-1,.49-1.39s.31-.82.46-1.19.3-.73.45-1.07.29-.67.45-1h1q.23.48.45,1c.15.34.3.69.45,1.07s.3.77.46,1.19.32.89.49,1.39Zm-1.26-3.59c0,.07-.06.16-.1.28s-.1.25-.15.4-.12.32-.2.5-.14.38-.21.58h1.32l-.2-.58-.19-.5c-.06-.16-.11-.29-.16-.4S211.45,139.36,211.42,139.29Z"/><path class="cls-2" d="M217.82,142v.9h-3.1v-4.64h1V142Z"/><path class="cls-2" d="M220.46,141.65a1.41,1.41,0,0,1,.07-.47,1.72,1.72,0,0,1,.2-.38,1.64,1.64,0,0,1,.29-.3,2.88,2.88,0,0,1,.34-.23,3.13,3.13,0,0,1-.29-.42,1,1,0,0,1-.12-.49,1.2,1.2,0,0,1,.35-.91,1.42,1.42,0,0,1,1-.31,1.55,1.55,0,0,1,.55.08,1.26,1.26,0,0,1,.39.23.94.94,0,0,1,.23.33,1,1,0,0,1,.08.41,1.16,1.16,0,0,1-.23.73,2,2,0,0,1-.58.53l.75.75a2.58,2.58,0,0,0,.12-.34,3.21,3.21,0,0,0,.07-.36l.82.11a1.45,1.45,0,0,1,0,.28,1.71,1.71,0,0,1-.09.3,2.83,2.83,0,0,1-.11.31,1.83,1.83,0,0,1-.14.28,5.76,5.76,0,0,1,.42.53,4.38,4.38,0,0,1,.35.57h-1a1.44,1.44,0,0,0-.15-.22,2.31,2.31,0,0,0-.18-.23,2.16,2.16,0,0,1-.63.36,2,2,0,0,1-.79.15,2.17,2.17,0,0,1-.78-.12,1.56,1.56,0,0,1-.51-.3,1,1,0,0,1-.27-.41A1.54,1.54,0,0,1,220.46,141.65Zm2.23-2.41a.45.45,0,0,0-.1-.27.43.43,0,0,0-.34-.12.42.42,0,0,0-.33.13.46.46,0,0,0-.12.33.7.7,0,0,0,.1.34,1.86,1.86,0,0,0,.26.31,1.34,1.34,0,0,0,.37-.28A.66.66,0,0,0,222.69,139.24Zm-1.3,2.31a.59.59,0,0,0,0,.21.59.59,0,0,0,.13.19.76.76,0,0,0,.23.15.86.86,0,0,0,.34.06,1.54,1.54,0,0,0,.5-.08,1,1,0,0,0,.35-.2l-1.08-1.07a1.88,1.88,0,0,0-.18.12.8.8,0,0,0-.17.15,2,2,0,0,0-.12.21A.68.68,0,0,0,221.39,141.55Z"/><path class="cls-2" d="M176,147.07a1.31,1.31,0,0,0-1,.4,1.71,1.71,0,0,0-.32,1.11,2,2,0,0,0,.08.62,1.35,1.35,0,0,0,.24.48,1,1,0,0,0,.4.31,1.4,1.4,0,0,0,.56.11h.3l.21,0v-1.62h1v2.3a3.66,3.66,0,0,1-.6.15,5,5,0,0,1-1,.09,2.54,2.54,0,0,1-.94-.16,1.92,1.92,0,0,1-.73-.47,2.06,2.06,0,0,1-.46-.76,2.91,2.91,0,0,1-.17-1,2.74,2.74,0,0,1,.18-1,2.24,2.24,0,0,1,.5-.76,2.18,2.18,0,0,1,.74-.47,2.44,2.44,0,0,1,.9-.16,5,5,0,0,1,.59,0l.46.1a2,2,0,0,1,.31.12l.18.1-.3.83a3.83,3.83,0,0,0-.49-.2A2.37,2.37,0,0,0,176,147.07Z"/><path class="cls-2" d="M181.91,150v.89h-3.1v-4.63h1V150Z"/><path class="cls-2" d="M184.66,151a2.4,2.4,0,0,1-.85-.14,1.58,1.58,0,0,1-.58-.38,1.48,1.48,0,0,1-.34-.58,2.27,2.27,0,0,1-.11-.75v-2.88h1v2.79a1.65,1.65,0,0,0,.06.48.89.89,0,0,0,.18.32.68.68,0,0,0,.26.18,1,1,0,0,0,.35.05.88.88,0,0,0,.62-.23,1.09,1.09,0,0,0,.23-.8v-2.79h1v2.88a2.27,2.27,0,0,1-.12.75,1.46,1.46,0,0,1-.34.58,1.54,1.54,0,0,1-.6.38A2.4,2.4,0,0,1,184.66,151Z"/><path class="cls-2" d="M191.34,146.27v.89h-1.4v3.74h-1v-3.74h-1.4v-.89Z"/><path class="cls-2" d="M192.35,150.9v-4.63h3.12v.87h-2.08v.91h1.85v.86h-1.85V150h2.24v.87Z"/><path class="cls-2" d="M199.84,150.9c-.3-.53-.62-1.05-1-1.57a15.12,15.12,0,0,0-1.11-1.46v3h-1v-4.63h.85a7.11,7.11,0,0,1,.49.54c.18.21.36.44.54.68l.56.76.51.75v-2.73h1v4.63Z"/><path class="cls-2" d="M204.06,150.9v-4.63h3.1v.87H205.1v1h1.84V149H205.1v1.91Z"/><path class="cls-2" d="M209.59,146.21a2.84,2.84,0,0,1,1.6.38,1.27,1.27,0,0,1,.55,1.15,1.3,1.3,0,0,1-.22.79,1.56,1.56,0,0,1-.65.48,4.63,4.63,0,0,1,.3.4c.1.15.2.3.3.47s.2.33.29.5.18.35.26.52h-1.16l-.26-.46-.27-.45q-.14-.23-.27-.42t-.27-.36h-.51v1.69h-1.05v-4.57c.23,0,.46-.07.71-.09Zm.06.89h-.37v1.26h.29a1.74,1.74,0,0,0,.84-.15.52.52,0,0,0,.26-.5.5.5,0,0,0-.26-.48A1.55,1.55,0,0,0,209.65,147.1Z"/><path class="cls-2" d="M213,150.9v-4.63h3.13v.87h-2.09v.91h1.85v.86h-1.85V150h2.24v.87Z"/><path class="cls-2" d="M217.41,150.9v-4.63h3.13v.87h-2.08v.91h1.85v.86h-1.85V150h2.24v.87Z"/></g></g></svg>