<svg id="Desktop" xmlns="http://www.w3.org/2000/svg" viewBox="0 0 250 211.62"><defs><style>.cls-1{fill:#fff;}.cls-2{fill:#002a3a;}</style></defs><rect class="cls-1" width="250" height="211.62"/><g id="Logos"><g id="Grand_Strand" data-name="Grand Strand"><path class="cls-1" d="M173.11,62.06c-.77.23-1.24-.13-1.25-1l-.5-13a1.52,1.52,0,0,1,1.17-1.67l2.22-.63c2-.57,3-.59,3.06,2.14,0,0,.35,9.61.36,9.66.12,2.62-.87,3.26-2.84,3.83Zm-7.93-21.15A1.55,1.55,0,0,0,164,42.62l1,28.05c0,.83.51,1.19,1.29,1L175.5,69c7.71-2.21,10.15-6.32,9.84-13.51L185,45.88c-.27-7.2-3-9.81-10.66-7.6ZM137.1,49a1.09,1.09,0,0,1,1.47.6l6.16,13c.17.35.48.17.47-.27l-.53-14.18a1.53,1.53,0,0,1,1.16-1.67l4.6-1.31c.82-.24,1.27.07,1.29,1l1.06,28.1a1.51,1.51,0,0,1-1.17,1.66l-6,1.73A1.1,1.1,0,0,1,144.1,77L138,64c-.2-.34-.51-.16-.5.28L138,78.43a1.52,1.52,0,0,1-1.17,1.67l-4.59,1.31c-.78.23-1.24-.13-1.29-1l-1.06-28.1a1.53,1.53,0,0,1,1.17-1.66ZM111.2,67.13c-.1-2.11-.44-3.07-3.14-2.3s-3,1.91-2.85,4l.19,4.79c0,.84.47,1.19,1.25,1l3.53-1a1.63,1.63,0,0,0,1.2-1.72ZM119,83.72a1.65,1.65,0,0,1-1.18,1.85l-4.59,1.31c-.78.23-1.24-.09-1.29-1l-.12-3.82c-.06-.88-.47-1.2-1.29-1l-3.53,1a1.5,1.5,0,0,0-1.17,1.66l.12,3.83a1.49,1.49,0,0,1-1.17,1.67l-4.59,1.31c-.78.23-1.26-.17-1.29-1.14l-.69-18.61c-.22-5.53.39-11.66,9.62-14.3s10.25,3,10.47,8.53ZM76.51,74c2-.57,3-.59,3.06,2.14s-.87,3.26-2.84,3.83l-2.09.6a1,1,0,0,1-1.3-1l-.12-3.24a1.69,1.69,0,0,1,1.2-1.72Zm7.22,10.22a.53.53,0,0,1,.13-.61c2.08-2.29,2.94-5.42,2.77-9.5-.27-7.2-3.37-9.68-10.67-7.59l-9,2.58a1.69,1.69,0,0,0-1.2,1.72l1,28a1,1,0,0,0,1.34,1l4.59-1.32A1.71,1.71,0,0,0,74,96.75l-.26-6.93a1.74,1.74,0,0,1,1.24-1.73l1.64-.48a.36.36,0,0,1,.33.13l4.58,7.61a.81.81,0,0,0,1,.34l4.68-1.34a2,2,0,0,0,1.28-2.77ZM34.3,99.52c.1,2.9,1,10.5,10.69,7.71s10-10.72,9.9-13.62l-.26-5.91c0-.89-.43-1.21-1.25-1l-8.2,2.35A1.59,1.59,0,0,0,44,90.75l.14,3.51c0,.83.51,1.19,1.29,1l2.38-.68c.06,2.16-.05,4.28-3.09,5.15s-3.33-1.13-3.44-4.52L41,88.85c-.11-3.38,0-5.5,3-6.37,2.34-.67,3.08.36,3.34,2.41.1.9.59,1.16,1.38.76l4.62-2.43a1.78,1.78,0,0,0,1-1.76c-.36-3.36-2-9-10.61-6.54-9.72,2.79-10,10.73-9.89,13.62Z"/><path class="cls-2" d="M81.23,85.26c2.14-2.37,3.09-5.61,2.91-9.93-.15-3.89-1.12-6.44-3-7.79s-4.67-1.49-8.51-.39l-9,2.57A2.34,2.34,0,0,0,62,72.08l1,28a1.77,1.77,0,0,0,.69,1.37,1.6,1.6,0,0,0,.93.29,2.15,2.15,0,0,0,.55-.08l4.59-1.32A2.35,2.35,0,0,0,71.47,98l-.26-7A1.12,1.12,0,0,1,72,90l1.38-.4L77.8,97a1.44,1.44,0,0,0,1.72.63l4.67-1.34A2.73,2.73,0,0,0,86,94.61a2.35,2.35,0,0,0-.16-2.1ZM75.8,77.41c.09,2.38-.67,2.69-2.38,3.18l-2.09.6a.43.43,0,0,1-.36,0,.51.51,0,0,1-.12-.39l-.12-3.26a1.06,1.06,0,0,1,.73-1.07l2.09-.6c.77-.22,1.52-.39,1.81-.18S75.75,76.21,75.8,77.41Z"/><path class="cls-2" d="M51.55,87.54a1.64,1.64,0,0,0-1.48-.16l-8.2,2.35a2.21,2.21,0,0,0-1.67,2.32l.13,3.52A1.71,1.71,0,0,0,41,97a1.62,1.62,0,0,0,1.46.17L44,96.67c0,1.75-.42,3-2.62,3.67a2.15,2.15,0,0,1-1.78,0c-.68-.49-.78-2.13-.84-3.91l-.26-6.31c-.11-3.52.09-5,2.57-5.74a2.3,2.3,0,0,1,1.78,0c.38.25.62.85.75,1.87a1.66,1.66,0,0,0,.77,1.37,1.61,1.61,0,0,0,1.55-.11l4.62-2.44a2.45,2.45,0,0,0,1.35-2.39c-.34-3.13-1.45-5.34-3.3-6.59s-4.7-1.49-8.13-.5C31,78.29,29.92,85.68,30.11,89.84l.42,11c.12,3.59,1.22,6.24,3.19,7.67a7.14,7.14,0,0,0,4.33,1.28,14.55,14.55,0,0,0,4-.63c6.92-2,10.6-7,10.36-14.27L52.15,89A1.73,1.73,0,0,0,51.55,87.54Z"/><path class="cls-2" d="M182.85,56.75l-.35-9.62c-.15-4.06-1.07-6.57-2.9-7.89S175,37.8,171,38.94l-9.15,2.62h0a2.18,2.18,0,0,0-1.59,2.34l1,28.08a1.7,1.7,0,0,0,.66,1.37,1.46,1.46,0,0,0,.86.26,2.43,2.43,0,0,0,.6-.09l9.14-2.62C180.2,68.71,183.19,64.61,182.85,56.75ZM172,62.09l-2.21.63c-.22.06-.33,0-.35,0s-.08-.12-.08-.4l-.5-13a.86.86,0,0,1,.7-1l2.21-.64a5.93,5.93,0,0,1,1.4-.28.67.67,0,0,1,.41.1c.17.13.39.53.44,1.72v0c0,.21.1,2.66.18,5,.13,3.54.16,4.38.18,4.61h0C174.5,61.15,173.79,61.58,172,62.09Z"/><path class="cls-2" d="M112.73,57.65c-1.87-1.34-4.57-1.48-8.26-.43C95.19,59.88,94.14,66,94.38,72.16l.7,18.62a1.86,1.86,0,0,0,.67,1.55,1.42,1.42,0,0,0,.86.27,2.17,2.17,0,0,0,.58-.08l4.59-1.32a2.12,2.12,0,0,0,1.63-2.3l-.12-3.85a.88.88,0,0,1,.71-1l3.52-1c.28-.08.37,0,.37,0s.08.08.11.4l.11,3.85a1.7,1.7,0,0,0,.66,1.38,1.62,1.62,0,0,0,1.46.16l4.59-1.32A2.26,2.26,0,0,0,116.46,85h0l-.7-18.62C115.63,62.88,115.16,59.42,112.73,57.65Zm-5.31,10.78.18,4.72a1,1,0,0,1-.73,1.09l-3.53,1a.51.51,0,0,1-.34,0,.68.68,0,0,1-.09-.4l-.19-4.79c-.09-2,.08-2.7,2.38-3.36a5.13,5.13,0,0,1,1.35-.24.9.9,0,0,1,.54.12C107.31,66.84,107.38,67.62,107.42,68.43Z"/><path class="cls-2" d="M148.63,46a1.67,1.67,0,0,0-1.51-.17l-4.6,1.32a2.17,2.17,0,0,0-1.63,2.31l.46,12.39L136,50.55a1.74,1.74,0,0,0-2.23-.93l-6,1.72a2.17,2.17,0,0,0-1.63,2.31l1.05,28.12a1.71,1.71,0,0,0,.66,1.37,1.49,1.49,0,0,0,.86.26,2.43,2.43,0,0,0,.6-.09L133.89,82a2.14,2.14,0,0,0,1.63-2.31l-.46-12.48,5.33,11.36a1.74,1.74,0,0,0,2.23.93l6-1.73a2.16,2.16,0,0,0,1.64-2.31l-1.06-28.09A1.67,1.67,0,0,0,148.63,46Z"/><path class="cls-1" d="M173.11,62.06c-.77.23-1.24-.13-1.25-1l-.5-13a1.52,1.52,0,0,1,1.17-1.67l2.22-.63c2-.57,3-.59,3.06,2.14,0,0,.35,9.61.36,9.66.12,2.62-.87,3.26-2.84,3.83Zm-7.93-21.15A1.55,1.55,0,0,0,164,42.62l1,28.05c0,.83.51,1.19,1.29,1L175.5,69c7.71-2.21,10.15-6.32,9.84-13.51L185,45.88c-.27-7.2-3-9.81-10.66-7.6ZM137.1,49a1.09,1.09,0,0,1,1.47.6l6.16,13c.17.35.48.17.47-.27l-.53-14.18a1.53,1.53,0,0,1,1.16-1.67l4.6-1.31c.82-.24,1.27.07,1.29,1l1.06,28.1a1.51,1.51,0,0,1-1.17,1.66l-6,1.73A1.1,1.1,0,0,1,144.1,77L138,64c-.2-.34-.51-.16-.5.28L138,78.43a1.52,1.52,0,0,1-1.17,1.67l-4.59,1.31c-.78.23-1.24-.13-1.29-1l-1.06-28.1a1.53,1.53,0,0,1,1.17-1.66ZM111.2,67.13c-.1-2.11-.44-3.07-3.14-2.3s-3,1.91-2.85,4l.19,4.79c0,.84.47,1.19,1.25,1l3.53-1a1.63,1.63,0,0,0,1.2-1.72ZM119,83.72a1.65,1.65,0,0,1-1.18,1.85l-4.59,1.31c-.78.23-1.24-.09-1.29-1l-.12-3.82c-.06-.88-.47-1.2-1.29-1l-3.53,1a1.5,1.5,0,0,0-1.17,1.66l.12,3.83a1.49,1.49,0,0,1-1.17,1.67l-4.59,1.31c-.78.23-1.26-.17-1.29-1.14l-.69-18.61c-.22-5.53.39-11.66,9.62-14.3s10.25,3,10.47,8.53ZM76.51,74c2-.57,3-.59,3.06,2.14s-.87,3.26-2.84,3.83l-2.09.6a1,1,0,0,1-1.3-1l-.12-3.24a1.69,1.69,0,0,1,1.2-1.72Zm7.22,10.22a.53.53,0,0,1,.13-.61c2.08-2.29,2.94-5.42,2.77-9.5-.27-7.2-3.37-9.68-10.67-7.59l-9,2.58a1.69,1.69,0,0,0-1.2,1.72l1,28a1,1,0,0,0,1.34,1l4.59-1.32A1.71,1.71,0,0,0,74,96.75l-.26-6.93a1.74,1.74,0,0,1,1.24-1.73l1.64-.48a.36.36,0,0,1,.33.13l4.58,7.61a.81.81,0,0,0,1,.34l4.68-1.34a2,2,0,0,0,1.28-2.77ZM34.3,99.52c.1,2.9,1,10.5,10.69,7.71s10-10.72,9.9-13.62l-.26-5.91c0-.89-.43-1.21-1.25-1l-8.2,2.35A1.59,1.59,0,0,0,44,90.75l.14,3.51c0,.83.51,1.19,1.29,1l2.38-.68c.06,2.16-.05,4.28-3.09,5.15s-3.33-1.13-3.44-4.52L41,88.85c-.11-3.38,0-5.5,3-6.37,2.34-.67,3.08.36,3.34,2.41.1.9.59,1.16,1.38.76l4.62-2.43a1.78,1.78,0,0,0,1-1.76c-.36-3.36-2-9-10.61-6.54-9.72,2.79-10,10.73-9.89,13.62Z"/><path class="cls-2" d="M41.18,108.48a7.16,7.16,0,0,1-4.33-1.27c-2-1.44-3.07-4.09-3.19-7.67l-.42-11C33.05,84.41,34.13,77,43.6,74.3c3.43-1,6.17-.81,8.13.5s3,3.47,3.31,6.59a2.47,2.47,0,0,1-1.36,2.4l-4.62,2.43a1.61,1.61,0,0,1-1.55.11A1.65,1.65,0,0,1,46.74,85c-.13-1-.37-1.63-.75-1.88a2.24,2.24,0,0,0-1.77,0c-2.49.71-2.69,2.21-2.58,5.73l.26,6.31c.06,1.79.16,3.42.84,3.91a2.14,2.14,0,0,0,1.78,0c2.2-.63,2.6-1.92,2.62-3.68l-1.56.45a1.6,1.6,0,0,1-1.46-.17,1.68,1.68,0,0,1-.66-1.37l-.13-3.52A2.23,2.23,0,0,1,45,88.45l8.2-2.35a1.64,1.64,0,0,1,1.48.16,1.7,1.7,0,0,1,.6,1.43l.25,5.89c.24,7.23-3.44,12.29-10.36,14.27A14.55,14.55,0,0,1,41.18,108.48ZM47.6,75a13.28,13.28,0,0,0-3.64.58c-8.62,2.47-9.61,9.19-9.43,13l.42,11h0c.1,3.18,1,5.48,2.66,6.68s4.07,1.34,7.21.44c8.06-2.31,9.58-8.33,9.43-13L54,87.72c0-.32-.07-.42-.08-.42h-.06a1.13,1.13,0,0,0-.29,0l-8.2,2.35a1,1,0,0,0-.75,1l.14,3.5c0,.25.08.36.12.38s.13,0,.35,0l2.38-.68a.66.66,0,0,1,.56.1.63.63,0,0,1,.26.5c.06,1.88.15,4.73-3.55,5.79A3.23,3.23,0,0,1,42,100.1c-1.15-.84-1.3-2.64-1.37-4.91l-.25-6.31c-.11-3.07-.2-6,3.5-7A3.33,3.33,0,0,1,46.7,82,3.77,3.77,0,0,1,48,84.81a.84.84,0,0,0,.11.39,1.61,1.61,0,0,0,.33-.12l4.62-2.43a1.13,1.13,0,0,0,.67-1.16c-.29-2.69-1.22-4.59-2.74-5.62A6,6,0,0,0,47.6,75Zm20.19,25.53a1.6,1.6,0,0,1-.93-.29,1.72,1.72,0,0,1-.68-1.37l-1-28a2.35,2.35,0,0,1,1.66-2.36l9-2.58c3.84-1.1,6.62-1,8.51.4s2.83,3.89,3,7.79c.18,4.31-.77,7.56-2.91,9.92L89,91.24a2.33,2.33,0,0,1,.15,2.09A2.75,2.75,0,0,1,87.33,95l-4.68,1.34a1.47,1.47,0,0,1-1.72-.63L76.5,88.31l-1.38.39a1.13,1.13,0,0,0-.78,1.09l.26,6.94a2.34,2.34,0,0,1-1.67,2.36l-4.59,1.32A2.15,2.15,0,0,1,67.79,100.49ZM80.31,66.42a15.47,15.47,0,0,0-4.17.69l-9,2.57a1.07,1.07,0,0,0-.74,1.08l1,28a.51.51,0,0,0,.15.37.44.44,0,0,0,.37,0l4.6-1.31a1.06,1.06,0,0,0,.73-1.08l-.26-6.94a2.38,2.38,0,0,1,1.71-2.37L76.4,87a.94.94,0,0,1,.95.27.49.49,0,0,1,.11.14L82,95s.07.1.26,0L87,93.73a1.46,1.46,0,0,0,1-.87,1.06,1.06,0,0,0-.05-.94l-4.7-7.38,0-.09a1.18,1.18,0,0,1,.25-1.32c1.91-2.09,2.76-5,2.59-9-.13-3.48-.93-5.7-2.45-6.8A5.32,5.32,0,0,0,80.31,66.42ZM76.76,88.23Zm23,3.1a1.37,1.37,0,0,1-.86-.27,1.85,1.85,0,0,1-.68-1.56l-.7-18.61c-.24-6.19.81-12.28,10.09-14.94,3.69-1.06,6.39-.92,8.26.43,2.43,1.76,2.9,5.22,3,8.7l.69,18.62h0A2.27,2.27,0,0,1,118,86.19l-4.59,1.31a1.66,1.66,0,0,1-1.46-.15,1.72,1.72,0,0,1-.65-1.39l-.12-3.85a.7.7,0,0,0-.11-.4h0s-.09,0-.36,0l-3.53,1a.89.89,0,0,0-.71,1l.12,3.85a2.11,2.11,0,0,1-1.63,2.31l-4.59,1.31A2.22,2.22,0,0,1,99.75,91.33ZM111.9,56.54a14.51,14.51,0,0,0-3.94.65c-8.85,2.53-9.37,8.37-9.16,13.65l.7,18.62c0,.36.09.52.14.56s.15,0,.32,0l4.59-1.31a.86.86,0,0,0,.71-1l-.12-3.85a2.14,2.14,0,0,1,1.63-2.3l3.53-1a1.66,1.66,0,0,1,1.47.14,1.76,1.76,0,0,1,.64,1.39l.12,3.85c0,.27.09.38.11.39s.12,0,.36,0L117.59,85c.35-.1.74-.33.71-1.21l-.69-18.61c-.13-3.15-.52-6.27-2.51-7.71A5.39,5.39,0,0,0,111.9,56.54Zm19.93,25.58a1.42,1.42,0,0,1-.86-.26,1.68,1.68,0,0,1-.65-1.37l-1.06-28.11a2.17,2.17,0,0,1,1.63-2.31l6-1.73a1.73,1.73,0,0,1,2.23.93l5.34,11.27L144,48.15a2.18,2.18,0,0,1,1.64-2.32l4.59-1.31a1.5,1.5,0,0,1,2.11,1.57l1.06,28.08a2.16,2.16,0,0,1-1.64,2.31l-6,1.73a1.74,1.74,0,0,1-2.24-.93l-5.33-11.36.47,12.49A2.16,2.16,0,0,1,137,80.72L132.43,82A2,2,0,0,1,131.83,82.12Zm5.77-32.6a1.1,1.1,0,0,0-.32.06h0l-6,1.73a.89.89,0,0,0-.7,1l1,28.09c0,.25.08.36.12.38a.48.48,0,0,0,.35,0l4.6-1.32a.88.88,0,0,0,.7-1l-.54-14.2a1,1,0,0,1,.69-1.09.9.9,0,0,1,1,.46l6.15,13.08c.13.27.24.39.71.25l6-1.72a.87.87,0,0,0,.7-1l-1-28.11c0-.32-.08-.4-.08-.4s-.1,0-.4,0L146,47.07a.91.91,0,0,0-.7,1l.53,14.17a1,1,0,0,1-.71,1.1.85.85,0,0,1-1-.54l-6.16-13C137.9,49.64,137.81,49.52,137.6,49.52Zm7.72,12.77Zm-71,18.95a1.59,1.59,0,0,1-1-.31,1.69,1.69,0,0,1-.62-1.4l-.13-3.22A2.35,2.35,0,0,1,74.24,74l2.09-.6c1.09-.32,2.14-.55,2.92,0,.61.45.91,1.29,1,2.72.12,3.24-1.3,3.9-3.31,4.48l-2.09.6A2.15,2.15,0,0,1,74.27,81.24Zm3.82-6.93a5.75,5.75,0,0,0-1.4.28h0l-2.1.6a1.05,1.05,0,0,0-.73,1.07L74,79.51a.51.51,0,0,0,.12.39.42.42,0,0,0,.36,0l2.1-.6c1.7-.49,2.46-.81,2.37-3.19-.05-1.2-.26-1.6-.44-1.73A.74.74,0,0,0,78.09,74.31Zm28.14,1a1.4,1.4,0,0,1-.87-.28,1.63,1.63,0,0,1-.6-1.4l-.19-4.76c-.1-2.07.08-3.73,3.31-4.66,1.43-.41,2.35-.38,3,.08.8.57.92,1.65,1,2.81h0l.18,4.74a2.26,2.26,0,0,1-1.63,2.36l-3.56,1A2.3,2.3,0,0,1,106.23,75.31Zm3.35-10.1a5.13,5.13,0,0,0-1.35.24c-2.29.66-2.47,1.4-2.38,3.36L106,73.6c0,.28.07.39.09.4s.12,0,.34,0L110,73a1,1,0,0,0,.74-1.09l-.19-4.73c0-.81-.11-1.59-.43-1.82A1,1,0,0,0,109.58,65.21Zm56.36,7.13a1.39,1.39,0,0,1-.86-.26,1.68,1.68,0,0,1-.66-1.37l-1-28.07A2.17,2.17,0,0,1,165,40.3h0l9.15-2.62c4-1.15,6.72-1.06,8.59.29s2.74,3.83,2.89,7.89l.35,9.62c.34,7.86-2.64,12-10.3,14.16l-9.14,2.62A2,2,0,0,1,165.94,72.34Zm-.56-30.82a.92.92,0,0,0-.72,1l1.05,28.08c0,.25.08.36.12.38s.14,0,.35,0l9.15-2.62c7-2,9.67-5.63,9.36-12.86l-.35-9.63c-.13-3.63-.88-5.82-2.36-6.89s-3.94-1.12-7.48-.11Zm7.31,21.25a1.43,1.43,0,0,1-.87-.27,1.66,1.66,0,0,1-.6-1.41l-.5-13a2.15,2.15,0,0,1,1.64-2.31l2.21-.63c1.09-.32,2.14-.55,2.92,0,.61.45.91,1.29,1,2.72h0c0,.25.05,1.13.18,4.83.09,2.33.17,4.66.18,4.81.14,3-1.05,3.85-3.3,4.5l-2.22.63h0A1.94,1.94,0,0,1,172.69,62.77Zm3.64-16.63a5.91,5.91,0,0,0-1.41.28l-2.21.63a.87.87,0,0,0-.7,1l.5,13c0,.28.06.38.08.4a.55.55,0,0,0,.35,0l2.21-.63c1.77-.51,2.48-.94,2.38-3.18h0c0-.24-.05-1.11-.18-4.84-.09-2.33-.17-4.66-.18-4.81,0-1.22-.26-1.62-.44-1.75A.74.74,0,0,0,176.33,46.14Z"/><path class="cls-1" d="M197.37,96.88c-.78.22-1.25-.13-1.25-1l-.5-13a1.49,1.49,0,0,1,1.17-1.66l2.21-.64c2-.56,3-.58,3.07,2.14,0,0,.34,9.62.35,9.66.13,2.63-.87,3.27-2.84,3.84Zm-7.94-21.16a1.54,1.54,0,0,0-1.15,1.71l1,28.06c.05.83.52,1.18,1.29,1l9.15-2.62c7.71-2.21,10.14-6.33,9.83-13.52l-.35-9.62c-.27-7.2-3-9.8-10.66-7.59Zm-28.08,8a1.12,1.12,0,0,1,1.48.6l6.16,13c.16.36.47.18.46-.26l-.53-14.18a1.54,1.54,0,0,1,1.17-1.67L174.68,80c.82-.23,1.28.08,1.29,1L177,109a1.52,1.52,0,0,1-1.17,1.67l-6,1.73a1.1,1.1,0,0,1-1.47-.6l-6.12-13c-.2-.34-.51-.17-.51.28l.54,14.18a1.51,1.51,0,0,1-1.17,1.66l-4.59,1.32c-.78.22-1.25-.13-1.3-1l-1.05-28.1a1.54,1.54,0,0,1,1.17-1.67Zm-25.9,18.17c-.1-2.1-.43-3.07-3.14-2.29s-2.94,1.91-2.84,4l.19,4.78c0,.84.47,1.2,1.25,1l3.52-1a1.61,1.61,0,0,0,1.2-1.72Zm7.75,16.6a1.63,1.63,0,0,1-1.17,1.84l-4.6,1.32c-.78.22-1.23-.09-1.29-1l-.12-3.83c-.05-.87-.47-1.2-1.29-1l-3.52,1a1.5,1.5,0,0,0-1.17,1.67l.11,3.82a1.47,1.47,0,0,1-1.16,1.67l-4.6,1.32c-.78.22-1.25-.17-1.28-1.14l-.7-18.62c-.22-5.53.4-11.65,9.62-14.3s10.26,3,10.48,8.54Zm-42.44-9.76c2-.56,3-.58,3.07,2.14s-.87,3.27-2.84,3.83l-2.09.6a1,1,0,0,1-1.31-1l-.12-3.25a1.69,1.69,0,0,1,1.2-1.72ZM108,119a.57.57,0,0,1,.13-.62c2.08-2.28,2.94-5.41,2.77-9.49-.27-7.2-3.36-9.69-10.66-7.59l-9,2.57A1.69,1.69,0,0,0,90,105.6l1,28a1,1,0,0,0,1.35,1L97,133.29a1.69,1.69,0,0,0,1.2-1.72L98,124.63a1.76,1.76,0,0,1,1.24-1.73l1.64-.47c.13,0,.23,0,.34.13l4.57,7.61a.82.82,0,0,0,1,.33l4.67-1.34a1.94,1.94,0,0,0,1.29-2.76Zm-42.31,1.17c0-.88-.47-1.2-1.29-1l-5.74,1.65c-.78.22-1.25-.13-1.29-1L57.17,115a1.55,1.55,0,0,1,1.17-1.67l21-6c.82-.23,1.27.08,1.29,1l.17,4.92a1.5,1.5,0,0,1-1.16,1.67l-5.75,1.65a1.49,1.49,0,0,0-1.16,1.66l.75,20.56a1.5,1.5,0,0,1-1.17,1.66l-4.59,1.32c-.78.22-1.24-.13-1.29-1Zm-17.53,5.95a1.67,1.67,0,0,0,1-1.75c-.35-3.1-2.57-8.41-11-6C29,121,28.52,129,28.63,130.31c.36,10.1,12.7,5.72,13.62,9.23.28,1.12-1.14,2.81-3.15,3.39s-3.49-.24-3.75-2.3c-.11-.9-.6-1.16-1.38-.76l-4.62,2.44a1.78,1.78,0,0,0-1,1.75c.37,3.36,2.41,8.9,11,6.43,9.71-2.79,10.85-11,10.79-12.28-.41-10.09-13.35-6.29-14-9.56-.21-1,.74-2.25,2.34-2.71,1.92-.55,3.3.21,3.67,1.92.17.84.58,1.12,1.41.71Z"/><path class="cls-2" d="M77.54,108.12A1.65,1.65,0,0,0,76,108l-21,6a2.17,2.17,0,0,0-1.63,2.31l.17,4.93a1.72,1.72,0,0,0,.66,1.38,1.66,1.66,0,0,0,1.46.17l5.74-1.65c.27-.08.36,0,.36,0s.09.08.11.41L62.66,142a1.68,1.68,0,0,0,.65,1.37,1.42,1.42,0,0,0,.86.26,2,2,0,0,0,.6-.09l4.59-1.31A2.16,2.16,0,0,0,71,140l-.76-20.57a.87.87,0,0,1,.7-1l5.74-1.64a2.17,2.17,0,0,0,1.64-2.31l-.18-4.91A1.66,1.66,0,0,0,77.54,108.12Z"/><path class="cls-2" d="M37.41,131.05c-1.79-.26-3.65-.52-3.8-1.26-.12-.55.54-1.57,1.88-1.95a2.53,2.53,0,0,1,2,.1,2,2,0,0,1,.85,1.33,1.74,1.74,0,0,0,.83,1.28,1.66,1.66,0,0,0,1.51-.14L45.31,128a2.32,2.32,0,0,0,1.36-2.4,8.35,8.35,0,0,0-3.31-6c-2.1-1.4-5-1.6-8.52-.58-10.44,3-10,12.49-10,12.56.25,6.94,5.94,7.62,9.71,8.06,1.91.23,3.71.44,3.93,1.3.17.68-.91,2.1-2.7,2.62a2.54,2.54,0,0,1-2.08-.16,2.2,2.2,0,0,1-.86-1.6,1.45,1.45,0,0,0-2.31-1.25L25.91,143a2.44,2.44,0,0,0-1.35,2.39c.18,1.66.86,4.7,3.39,6.4A7.62,7.62,0,0,0,32.31,153a14.82,14.82,0,0,0,4.09-.64c9.71-2.78,11.35-10.9,11.26-12.92C47.38,132.46,41.38,131.61,37.41,131.05Z"/><path class="cls-2" d="M207.1,91.57,206.75,82c-.15-4.07-1.07-6.57-2.89-7.89s-4.59-1.45-8.59-.3l-9.14,2.62h0a2.18,2.18,0,0,0-1.6,2.34l1.05,28.07a1.68,1.68,0,0,0,.65,1.37,1.42,1.42,0,0,0,.86.27,2.3,2.3,0,0,0,.6-.09l9.15-2.63C204.46,103.53,207.44,99.43,207.1,91.57ZM196.27,96.9l-2.21.64a.55.55,0,0,1-.34,0s-.09-.12-.09-.4l-.5-13a.88.88,0,0,1,.7-1l2.22-.63a5.75,5.75,0,0,1,1.4-.28.66.66,0,0,1,.4.1c.18.12.4.53.44,1.72v0c0,.21.1,2.66.19,5,.13,3.54.16,4.38.17,4.61h0C198.75,96,198,96.39,196.27,96.9Z"/><path class="cls-2" d="M105.48,120.07c2.14-2.36,3.09-5.61,2.91-9.92-.14-3.9-1.12-6.44-3-7.79s-4.67-1.5-8.5-.4l-9,2.58a2.35,2.35,0,0,0-1.67,2.36l1,28a1.73,1.73,0,0,0,.68,1.37,1.53,1.53,0,0,0,.93.29,1.75,1.75,0,0,0,.55-.08l4.6-1.31a2.37,2.37,0,0,0,1.66-2.37l-.26-6.94a1.1,1.1,0,0,1,.78-1.08l1.38-.4,4.44,7.37a1.46,1.46,0,0,0,1.71.63l4.68-1.34a2.79,2.79,0,0,0,1.81-1.64,2.36,2.36,0,0,0-.16-2.09Zm-5.43-7.85c.09,2.38-.66,2.7-2.37,3.19l-2.09.6a.39.39,0,0,1-.36,0c-.08,0-.12-.19-.12-.39L95,112.35a1.06,1.06,0,0,1,.74-1.07l2.09-.6c.76-.22,1.51-.39,1.8-.18S100,111,100.05,112.22Z"/><path class="cls-2" d="M172.89,80.78a1.66,1.66,0,0,0-1.52-.17l-4.59,1.32a2.18,2.18,0,0,0-1.64,2.31l.47,12.39-5.33-11.27a1.75,1.75,0,0,0-2.24-.93l-6,1.73a2.17,2.17,0,0,0-1.64,2.31l1.06,28.11a1.72,1.72,0,0,0,.65,1.38,1.49,1.49,0,0,0,.86.26,2.3,2.3,0,0,0,.6-.09l4.59-1.32a2.16,2.16,0,0,0,1.64-2.31L159.31,102l5.34,11.36a1.73,1.73,0,0,0,2.23.93l6-1.72a2.17,2.17,0,0,0,1.63-2.31l-1-28.09A1.68,1.68,0,0,0,172.89,80.78Z"/><path class="cls-2" d="M137,92.47c-1.86-1.35-4.56-1.49-8.26-.43-9.27,2.66-10.33,8.75-10.08,14.94l.69,18.62a1.88,1.88,0,0,0,.68,1.55,1.39,1.39,0,0,0,.86.27,2.09,2.09,0,0,0,.57-.09L126,126a2.13,2.13,0,0,0,1.64-2.31l-.12-3.85a.86.86,0,0,1,.7-1l3.53-1a.65.65,0,0,1,.37,0s.08.08.1.4l.12,3.84a1.75,1.75,0,0,0,.65,1.39,1.66,1.66,0,0,0,1.46.15l4.59-1.31a2.27,2.27,0,0,0,1.64-2.49h0L140,101.17C139.88,97.69,139.42,94.23,137,92.47Zm-5.3,10.78.18,4.72a1,1,0,0,1-.74,1.09l-3.52,1c-.22.06-.33,0-.35,0s-.08-.12-.08-.4L127,104.9c-.09-2,.08-2.7,2.38-3.36a5,5,0,0,1,1.35-.24,1,1,0,0,1,.53.12C131.56,101.65,131.64,102.43,131.68,103.25Z"/><path class="cls-1" d="M197.37,96.88c-.78.22-1.25-.13-1.25-1l-.5-13a1.49,1.49,0,0,1,1.17-1.66l2.21-.64c2-.56,3-.58,3.07,2.14,0,0,.34,9.62.35,9.66.13,2.63-.87,3.27-2.84,3.84Zm-7.94-21.16a1.54,1.54,0,0,0-1.15,1.71l1,28.06c.05.83.52,1.18,1.29,1l9.15-2.62c7.71-2.21,10.14-6.33,9.83-13.52l-.35-9.62c-.27-7.2-3-9.8-10.66-7.59Zm-28.08,8a1.12,1.12,0,0,1,1.48.6l6.16,13c.16.36.47.18.46-.26l-.53-14.18a1.54,1.54,0,0,1,1.17-1.67L174.68,80c.82-.23,1.28.08,1.29,1L177,109a1.52,1.52,0,0,1-1.17,1.67l-6,1.73a1.1,1.1,0,0,1-1.47-.6l-6.12-13c-.2-.34-.51-.17-.51.28l.54,14.18a1.51,1.51,0,0,1-1.17,1.66l-4.59,1.32c-.78.22-1.25-.13-1.3-1l-1.05-28.1a1.54,1.54,0,0,1,1.17-1.67Zm-25.9,18.17c-.1-2.1-.43-3.07-3.14-2.29s-2.94,1.91-2.84,4l.19,4.78c0,.84.47,1.2,1.25,1l3.52-1a1.61,1.61,0,0,0,1.2-1.72Zm7.75,16.6a1.63,1.63,0,0,1-1.17,1.84l-4.6,1.32c-.78.22-1.23-.09-1.29-1l-.12-3.83c-.05-.87-.47-1.2-1.29-1l-3.52,1a1.5,1.5,0,0,0-1.17,1.67l.11,3.82a1.47,1.47,0,0,1-1.16,1.67l-4.6,1.32c-.78.22-1.25-.17-1.28-1.14l-.7-18.62c-.22-5.53.4-11.65,9.62-14.3s10.26,3,10.48,8.54Zm-42.44-9.76c2-.56,3-.58,3.07,2.14s-.87,3.27-2.84,3.83l-2.09.6a1,1,0,0,1-1.31-1l-.12-3.25a1.69,1.69,0,0,1,1.2-1.72ZM108,119a.57.57,0,0,1,.13-.62c2.08-2.28,2.94-5.41,2.77-9.49-.27-7.2-3.36-9.69-10.66-7.59l-9,2.57A1.69,1.69,0,0,0,90,105.6l1,28a1,1,0,0,0,1.35,1L97,133.29a1.69,1.69,0,0,0,1.2-1.72L98,124.63a1.76,1.76,0,0,1,1.24-1.73l1.64-.47c.13,0,.23,0,.34.13l4.57,7.61a.82.82,0,0,0,1,.33l4.67-1.34a1.94,1.94,0,0,0,1.29-2.76Zm-42.31,1.17c0-.88-.47-1.2-1.29-1l-5.74,1.65c-.78.22-1.25-.13-1.29-1L57.17,115a1.55,1.55,0,0,1,1.17-1.67l21-6c.82-.23,1.27.08,1.29,1l.17,4.92a1.5,1.5,0,0,1-1.16,1.67l-5.75,1.65a1.49,1.49,0,0,0-1.16,1.66l.75,20.56a1.5,1.5,0,0,1-1.17,1.66l-4.59,1.32c-.78.22-1.24-.13-1.29-1Zm-17.53,5.95a1.67,1.67,0,0,0,1-1.75c-.35-3.1-2.57-8.41-11-6C29,121,28.52,129,28.63,130.31c.36,10.1,12.7,5.72,13.62,9.23.28,1.12-1.14,2.81-3.15,3.39s-3.49-.24-3.75-2.3c-.11-.9-.6-1.16-1.38-.76l-4.62,2.44a1.78,1.78,0,0,0-1,1.75c.37,3.36,2.41,8.9,11,6.43,9.71-2.79,10.85-11,10.79-12.28-.41-10.09-13.35-6.29-14-9.56-.21-1,.74-2.25,2.34-2.71,1.92-.55,3.3.21,3.67,1.92.17.84.58,1.12,1.41.71Z"/><path class="cls-2" d="M35.44,151.75a7.7,7.7,0,0,1-4.36-1.21c-2.53-1.7-3.21-4.74-3.39-6.41A2.45,2.45,0,0,1,29,141.74l4.63-2.44a1.59,1.59,0,0,1,1.54-.11,1.66,1.66,0,0,1,.78,1.37,2.11,2.11,0,0,0,.86,1.59,2.48,2.48,0,0,0,2.07.16c1.79-.51,2.87-1.94,2.7-2.61-.22-.86-2-1.08-3.93-1.3-3.76-.45-9.46-1.13-9.71-8.07,0-.06-.46-9.56,10-12.56,3.55-1,6.42-.82,8.52.59a8.33,8.33,0,0,1,3.31,5.94,2.32,2.32,0,0,1-1.36,2.4l-4.61,2.44A1.47,1.47,0,0,1,41.49,128a2,2,0,0,0-.85-1.34,2.58,2.58,0,0,0-2-.1c-1.34.39-2,1.4-1.88,2,.15.73,2,1,3.8,1.25,4,.56,10,1.41,10.25,8.41.09,2-1.54,10.14-11.26,12.93A15.2,15.2,0,0,1,35.44,151.75Zm-.84-11.42a.81.81,0,0,0-.34.12l-4.61,2.43A1.14,1.14,0,0,0,29,144c.16,1.4.73,4,2.83,5.44,1.74,1.17,4.22,1.3,7.38.4,10.09-2.9,10.33-11.55,10.32-11.63-.24-5.93-5.17-6.63-9.14-7.19-2.43-.35-4.54-.65-4.88-2.26-.3-1.39,1-2.94,2.79-3.47a3.78,3.78,0,0,1,3,.24,3.2,3.2,0,0,1,1.45,2.17,1.1,1.1,0,0,0,.14.39,1.5,1.5,0,0,0,.35-.13l4.6-2.43h0a1,1,0,0,0,.68-1.12,7,7,0,0,0-2.75-5c-1.77-1.19-4.28-1.33-7.45-.42-9.46,2.72-9.06,11.16-9,11.25.21,5.86,4.65,6.39,8.57,6.86,2.46.29,4.58.54,5,2.26.39,1.53-1.33,3.52-3.59,4.17a3.76,3.76,0,0,1-3.14-.32,3.38,3.38,0,0,1-1.43-2.52A.93.93,0,0,0,34.6,140.33Zm32.7,2.07a1.49,1.49,0,0,1-.86-.26,1.7,1.7,0,0,1-.65-1.38L65,120.21a.81.81,0,0,0-.1-.42h0a.8.8,0,0,0-.37,0l-5.74,1.65a1.63,1.63,0,0,1-1.46-.17,1.68,1.68,0,0,1-.66-1.37L56.53,115a2.17,2.17,0,0,1,1.63-2.31l21-6a1.51,1.51,0,0,1,2.11,1.57l.18,4.91a2.16,2.16,0,0,1-1.64,2.31l-5.74,1.65a.86.86,0,0,0-.7,1l.76,20.57A2.16,2.16,0,0,1,72.49,141l-4.59,1.32A2.3,2.3,0,0,1,67.3,142.4Zm-2.45-23.9a1.41,1.41,0,0,1,.82.24,1.73,1.73,0,0,1,.64,1.4h0l.75,20.55c0,.25.08.36.12.39a.51.51,0,0,0,.35,0l4.6-1.32a.88.88,0,0,0,.7-1l-.76-20.56a2.14,2.14,0,0,1,1.64-2.31l5.74-1.65a.88.88,0,0,0,.7-1L80,108.28c0-.33-.07-.41-.07-.41a.75.75,0,0,0-.4,0l-21,6a.89.89,0,0,0-.7,1l.17,4.91c0,.24.08.36.12.38a.51.51,0,0,0,.35,0l5.74-1.64A2.24,2.24,0,0,1,64.85,118.5ZM92,135.31a1.55,1.55,0,0,1-.92-.29,1.74,1.74,0,0,1-.69-1.37l-1-28a2.35,2.35,0,0,1,1.67-2.36l9-2.57c3.84-1.1,6.62-1,8.5.39s2.84,3.9,3,7.79c.18,4.32-.77,7.56-2.91,9.93l4.62,7.25a2.35,2.35,0,0,1,.16,2.1,2.76,2.76,0,0,1-1.81,1.63l-4.67,1.34a1.45,1.45,0,0,1-1.72-.63l-4.43-7.37-1.39.4a1.11,1.11,0,0,0-.77,1.08l.25,7a2.34,2.34,0,0,1-1.66,2.36l-4.6,1.32A2.09,2.09,0,0,1,92,135.31Zm12.52-34.08a15.53,15.53,0,0,0-4.17.69l-9,2.58a1.07,1.07,0,0,0-.73,1.07l1,28a.48.48,0,0,0,.15.38.44.44,0,0,0,.37,0l4.59-1.32a1.06,1.06,0,0,0,.74-1.07l-.26-6.94A2.39,2.39,0,0,1,99,122.28l1.64-.47a1,1,0,0,1,1,.28.53.53,0,0,1,.11.14l4.57,7.6s.07.11.26,0l4.67-1.34a1.44,1.44,0,0,0,1-.86,1.06,1.06,0,0,0,0-.94l-4.7-7.39a.41.41,0,0,1,0-.09,1.21,1.21,0,0,1,.26-1.32c1.9-2.09,2.75-5,2.59-9-.13-3.48-.93-5.71-2.45-6.81A5.4,5.4,0,0,0,104.56,101.23ZM124,126.14a1.49,1.49,0,0,1-.86-.26,1.9,1.9,0,0,1-.68-1.56l-.69-18.62c-.25-6.18.81-12.28,10.09-14.94,3.69-1.05,6.39-.91,8.25.44,2.44,1.76,2.9,5.22,3,8.69l.69,18.62h0A2.25,2.25,0,0,1,142.2,121l-4.59,1.32a1.63,1.63,0,0,1-1.46-.16,1.73,1.73,0,0,1-.65-1.38l-.12-3.85c0-.32-.1-.4-.1-.4h0s-.09,0-.37,0l-3.53,1a.88.88,0,0,0-.7,1l.12,3.85a2.13,2.13,0,0,1-1.64,2.3l-4.59,1.32A2.05,2.05,0,0,1,124,126.14Zm12.15-34.78a14.46,14.46,0,0,0-3.94.64c-8.84,2.54-9.36,8.38-9.15,13.66l.69,18.61c0,.37.1.53.15.56a.42.42,0,0,0,.32,0l4.59-1.32a.84.84,0,0,0,.7-1l-.12-3.85a2.15,2.15,0,0,1,1.64-2.31l3.52-1a1.66,1.66,0,0,1,1.47.15,1.72,1.72,0,0,1,.65,1.39l.12,3.85c0,.26.08.37.11.39a.54.54,0,0,0,.35,0l4.6-1.32c.34-.1.73-.32.71-1.2l-.7-18.62c-.12-3.15-.51-6.26-2.5-7.7A5.35,5.35,0,0,0,136.15,91.36Zm19.93,25.58a1.49,1.49,0,0,1-.86-.26,1.7,1.7,0,0,1-.65-1.38l-1.06-28.11a2.19,2.19,0,0,1,1.64-2.31l6-1.72h0a1.74,1.74,0,0,1,2.23.93l5.33,11.27L168.28,83a2.17,2.17,0,0,1,1.63-2.31l4.59-1.32a1.69,1.69,0,0,1,1.52.17,1.67,1.67,0,0,1,.6,1.4l1,28.09A2.15,2.15,0,0,1,176,111.3L170,113a1.74,1.74,0,0,1-2.23-.93l-5.34-11.36.47,12.48a2.16,2.16,0,0,1-1.63,2.31l-4.6,1.32A2.3,2.3,0,0,1,156.08,116.94Zm5.45-32.55-6,1.73a.91.91,0,0,0-.7,1l1.06,28.09a.57.57,0,0,0,.11.38.54.54,0,0,0,.36,0l4.59-1.32a.86.86,0,0,0,.7-1l-.53-14.19a1,1,0,0,1,.68-1.09.9.9,0,0,1,1,.46l6.15,13.08c.13.27.25.38.71.25l6-1.73a.87.87,0,0,0,.71-1l-1.06-28.11c0-.33-.08-.4-.08-.4s-.1-.05-.39,0l-4.59,1.32c-.36.1-.72.3-.71,1l.54,14.16a1,1,0,0,1-.72,1.11.87.87,0,0,1-1-.55l-6.15-13c-.14-.27-.25-.39-.72-.26Zm8,12.72Zm-71,18.94a1.55,1.55,0,0,1-.94-.3,1.7,1.7,0,0,1-.63-1.4l-.12-3.22a2.36,2.36,0,0,1,1.66-2.37l2.09-.6h0c1.1-.31,2.14-.55,2.92,0,.62.44.92,1.28,1,2.72.12,3.24-1.29,3.9-3.3,4.47l-2.1.6A1.75,1.75,0,0,1,98.52,116.05Zm2.42-6.65-2.09.6a1.06,1.06,0,0,0-.74,1.07l.13,3.26a.48.48,0,0,0,.12.39.43.43,0,0,0,.36,0l2.09-.6c1.71-.49,2.46-.8,2.37-3.19,0-1.19-.26-1.59-.44-1.72s-1,0-1.8.18Zm29.54.72a1.43,1.43,0,0,1-.87-.27,1.66,1.66,0,0,1-.6-1.4l-.19-4.77c-.1-2.07.09-3.73,3.31-4.65,1.43-.41,2.36-.39,3,.07.81.58.92,1.66,1,2.81h0l.18,4.74a2.26,2.26,0,0,1-1.64,2.35l-3.56,1A1.94,1.94,0,0,1,130.48,110.12ZM133.84,100a5,5,0,0,0-1.35.24c-2.3.66-2.47,1.4-2.38,3.36l.19,4.79c0,.28.06.38.08.4a.55.55,0,0,0,.35,0l3.53-1a1,1,0,0,0,.73-1.09l-.18-4.72c0-.81-.12-1.59-.44-1.82A.87.87,0,0,0,133.84,100Zm56.35,7.13a1.49,1.49,0,0,1-.86-.26,1.7,1.7,0,0,1-.65-1.38l-1.05-28.06a2.2,2.2,0,0,1,1.6-2.35h0l9.14-2.62c4-1.14,6.73-1,8.59.3s2.75,3.83,2.9,7.89l.34,9.62c.34,7.86-2.64,12-10.29,14.16l-9.15,2.62A2.3,2.3,0,0,1,190.19,107.16Zm-.56-30.82a.91.91,0,0,0-.71,1L190,105.46a.58.58,0,0,0,.11.39.54.54,0,0,0,.36,0l9.14-2.62c7-2,9.68-5.63,9.37-12.87l-.35-9.62c-.14-3.64-.89-5.83-2.37-6.9s-3.94-1.11-7.47-.1ZM197,97.59a1.38,1.38,0,0,1-.87-.28,1.63,1.63,0,0,1-.61-1.4l-.49-13a2.13,2.13,0,0,1,1.63-2.31l2.21-.64c1.1-.31,2.14-.55,2.92,0,.62.45.92,1.28,1,2.72h0c0,.24,0,1.13.18,4.83.08,2.33.17,4.66.18,4.81.14,2.94-1.06,3.85-3.31,4.49l-2.21.64A2.43,2.43,0,0,1,197,97.59ZM200.58,81a5.75,5.75,0,0,0-1.4.28l-2.22.64a.87.87,0,0,0-.7,1l.5,13c0,.28.07.39.09.4s.12,0,.34,0h0l2.22-.63c1.76-.51,2.48-.94,2.37-3.19h0c0-.23,0-1.1-.18-4.83-.08-2.33-.17-4.66-.18-4.81,0-1.22-.26-1.62-.44-1.75A.66.66,0,0,0,200.58,81Z"/><path class="cls-2" d="M220.05,125.19c-.17,1.58-2.26,6.26-2.82,6.36-.16,0-.12-.18-.12-.28.1-.41.21-.86.34-1.24a29.77,29.77,0,0,1,2.17-4.65,1.59,1.59,0,0,1,.17-.25.13.13,0,0,1,.26.06m-3.5-4.37c-.3.43-.62.39-.39-.51.58-2.31,1.24-4.62,2-6.89a4,4,0,0,1,.12-.56.89.89,0,0,0-.13-.79,3.2,3.2,0,0,0-.7-.63c-.17-.13-.39,0-.52.22a4.13,4.13,0,0,0-.21.47,67.63,67.63,0,0,0-2.38,7.79,16,16,0,0,0-.25,1.77,3,3,0,0,0,.67,2.23,1.19,1.19,0,0,0,1.88,0,6.17,6.17,0,0,0,1.15-1.3c.68-1.13,1.39-2.27,2-3.43s1.32-2.42,2-3.64c.87-1.57.06,2.13-.23,3.53a2.28,2.28,0,0,1-.35.72c-.36.56-.76,1.12-1.12,1.64a38.64,38.64,0,0,0-3.53,6.07,17.72,17.72,0,0,0-1.17,3.77,3.22,3.22,0,0,0,.26,2,1.51,1.51,0,0,0,2.26.64,2.6,2.6,0,0,0,.67-.57,12,12,0,0,0,1-1.44,24.46,24.46,0,0,0,1.88-4.56c.64-2.23,1.14-4.48,1.57-6.72a2.68,2.68,0,0,1,.62-1.46,29.34,29.34,0,0,1,2.74-3.14,4.46,4.46,0,0,1,1.28-1.1.42.42,0,0,0,.27-.49.68.68,0,0,0-1.11-.51,5.44,5.44,0,0,0-1,.76c-.66.6-.86.76-1.51,1.4,0,0-.13.14-.19.19s-.39.08-.38-.13a.63.63,0,0,0,0-.14A8.41,8.41,0,0,0,224,115c.12-.9.22-1.76.28-2.64a1.6,1.6,0,0,0-.61-1.39c-.55-.47-.8-.39-1.23.28s-.92,1.41-1.34,2.12c-1,1.63-1.9,3.28-2.88,4.92-.55.88-1.1,1.73-1.65,2.58m-.43-3.79a.48.48,0,0,0-.5.21,1.74,1.74,0,0,0-.26.53c-.94,1.79-1.8,3.63-2.91,5.34-.37.52-.71,1-1.09,1.52a.4.4,0,0,1-.29.19c-.52-.13.2-2.59.63-4.58.86-3.89,1.06-4.29.92-5.12A2.5,2.5,0,0,0,211,113.6a1.08,1.08,0,0,0-.44,0,3.08,3.08,0,0,0-.75.42c-2.66,1.95-4.4,9.06-2.29,1.81a1.1,1.1,0,0,0-.35-1.25c-.8-.61-1-.45-1.22.1s-1.27,4.63-1.35,5c-.4,1.64-1.51,6.81-1.42,8a1.64,1.64,0,0,0,.86,1.31c.45.22.81,0,1-.52.46-1.2,1.5-7.7,5.13-12.1.6-.7.84-.56.67.05-.82,2.93-2.06,6.82-1.56,8.59a3,3,0,0,0,.86,1.55,1.78,1.78,0,0,0,.71.39,1.4,1.4,0,0,0,1.48-.5,9.09,9.09,0,0,0,1.15-1.68,47.39,47.39,0,0,0,2.47-5.14,12.6,12.6,0,0,0,.66-1.58c.18-.57,0-.9-.49-1m-20.66,11.61c-.16,0-.07-.5-.07-.74a16.82,16.82,0,0,1,1.31-5.58,22.43,22.43,0,0,1,1.08-2.28,1.64,1.64,0,0,1,.26-.42c.16-.16.27-.15.35,0s0,.26.07.36c.07.85.06,1.68.09,2.5a1.17,1.17,0,0,1-.16.64c-.28.6-2.54,5.41-2.93,5.52m4.47-9.57s0,0-.07,0-.18-.29-.3-.46a2.9,2.9,0,0,0-1.49-1.31c-.55-.23-1-.07-1.41.51A11.66,11.66,0,0,0,196,119a21.73,21.73,0,0,0-2.32,7.52,13.19,13.19,0,0,0,0,2.81,3.21,3.21,0,0,0,.85,1.87c.58.56,1.24.48,1.88-.22a8.38,8.38,0,0,0,1-1.6c.39-.8.78-1.64,1.16-2.48a4,4,0,0,1,.27-.49.06.06,0,0,1,.1,0c.18.15.13.34.16.54a4.15,4.15,0,0,0,1.12,2.35,1.6,1.6,0,0,0,.86.48,1.19,1.19,0,0,0,1.38-.64,11.15,11.15,0,0,0,.63-1.18c.84-1.8,1.66-3.63,2.46-5.46a2.08,2.08,0,0,0,.2-.51.52.52,0,0,0-.15-.51c-.42-.4-.78-.29-1.13.29l-.13.25c-.32.61-.66,1.23-1,1.85-.53,1.06-1.14,2.1-1.71,3.13l0,0c-.21.34-.64.29-.64-.06l0-.1c0-.41,0-.82,0-1.24a24.58,24.58,0,0,1,.56-4.6c.27-1.08.41-1.71.63-2.74a1.26,1.26,0,0,0-.4-1.52c-.52-.37-.71-.31-1,.38s-.27.85-.48,1.46a4.29,4.29,0,0,1-.24.48m-13.18,12.06c.12,0,.14.14.11.25a.44.44,0,0,1-.37.28c-.19.06-.3,0-.37-.2a.22.22,0,0,1,.15-.32,1.12,1.12,0,0,1,.48,0m3-9c0,.07,0,.17,0,.28a27.68,27.68,0,0,1-1.34,5.62,1,1,0,0,1-.63.7c-.48.14-.93.27-1.42.37-.22.07-.29-.05-.23-.31s0-.19.09-.3a41.45,41.45,0,0,1,2.62-5.61c.19-.3.43-.57.63-.84l0,0a.16.16,0,0,1,.28.13m-3.93,2.37c-.45,1-.59.73-.33-.07s.43-1.76.61-2.57a1.25,1.25,0,0,0-.52-1.58c-.57-.4-.75-.31-1,.49-.75,2.47-1.41,5-2,7.54a89.89,89.89,0,0,0-2,10.61,9.67,9.67,0,0,0-.15,2,1.37,1.37,0,0,0,1,1.36.78.78,0,0,0,1-.56,1.21,1.21,0,0,1,.07-.37c.52-2.3,1-4.62,1.66-6.89.22-.58.36-1.17.54-1.75s.31-.61.63-.21c.19.18.35.38.55.57a2,2,0,0,0,1,.6,1.21,1.21,0,0,0,1.17-.3,3.21,3.21,0,0,0,.58-.75c.34-.73.66-1.44,1-2.19a1.23,1.23,0,0,1,.59-.73,25.09,25.09,0,0,0,4.3-3.11,5.52,5.52,0,0,0,.49-.48.89.89,0,0,0,.22-.79c-.07-.61-.3-.71-.82-.32a33.41,33.41,0,0,1-3.12,2c-.15.07-.32.19-.44.05s0-.26,0-.44,0-.07,0-.12a32.44,32.44,0,0,0,.68-4,2.52,2.52,0,0,0-1.16-2.68,1,1,0,0,0-.22-.18,1.1,1.1,0,0,0-1.56.24,8.93,8.93,0,0,0-.89,1.12,39.38,39.38,0,0,0-1.91,3.49m-1.85,1.78a.46.46,0,0,0-.49.21,2.86,2.86,0,0,0-.3.54c-.91,1.78-1.8,3.63-2.9,5.34-.34.51-.68,1-1.06,1.51a.42.42,0,0,1-.29.19c-.52-.13.43-3.69.57-4.43.89-3.89.68-3.66.55-4.49a2.39,2.39,0,0,0-1.5-1.71.78.78,0,0,0-.45,0,3.68,3.68,0,0,0-.74.42c-1.75,1.27-2.64,4.22-2.47,3a2.06,2.06,0,0,0-1.38-2.38,1.29,1.29,0,0,0-1.07.13,1.47,1.47,0,0,0-.31.23c-1.81,1.32-2.79,4.16-2.9,4.16s-.06,0,.64-2.37a1.21,1.21,0,0,0-.36-1.25c-.8-.6-1-.43-1.22.11s-1.27,4.63-1.34,5c-.43,1.65-1.52,6.81-1.42,8a1.56,1.56,0,0,0,.86,1.31c.41.23.8,0,.93-.51.48-1.21,1.49-7.74,5.15-12.12,1.85-2.15-1.21,6.28-1,8.91a1.35,1.35,0,0,0,.7,1.22c.45.22.8,0,1-.52.46-1.21,1.35-6.18,4.57-10.56,1.47-2.12-1.45,5-.64,8a3.27,3.27,0,0,0,.89,1.54,2.16,2.16,0,0,0,.67.4,1.47,1.47,0,0,0,1.52-.51,10.19,10.19,0,0,0,1.15-1.68,51.43,51.43,0,0,0,2.47-5.14c.23-.52.47-1,.66-1.58s0-.9-.5-1m-21.31,3.86a1.72,1.72,0,0,1-.23,1.14,6.73,6.73,0,0,0-.86,3.54,2.78,2.78,0,0,1-.09.89,14,14,0,0,1-1.63,3.38c-.35.45-.51.15-.53-.4-.13-2.63.9-5.94,1.91-8.59a1,1,0,0,1,.76-.7c.59-.14.61.17.67.74m1.7,4.85c-1.12,1.15-.16-1.27,0-3.66a3.64,3.64,0,0,0-2-3.73c-.69-.36-1.14,0-1.64,0-.25,0-.38.15-.52.36a5.46,5.46,0,0,0-.74,1.56,3.12,3.12,0,0,1-.25.7,27.05,27.05,0,0,0-1.36,4.44,15.07,15.07,0,0,0-.32,3.22,5.38,5.38,0,0,0,.88,2.83c.64.89,1.6,1.34,2.51.42.16-.18.28-.36.44-.54a14.27,14.27,0,0,0,1.43-2.63c.32-.79.49-1.28,1.23-1.25.92.08,1.94-1.22,2.56-2.09a16.49,16.49,0,0,0,1.53-2.62.93.93,0,0,0-.33-.91c-.47-.42-.74.21-.93.51-1.76,2.68-1.88,2.75-2.47,3.34m-5.46-1.38c-.33-.22-.85,1.35-1.8,2.91a26,26,0,0,1-2.81,4.09c-2,2.22-2.39-.14-2.54-1a13.88,13.88,0,0,1,.38-3.26,12.68,12.68,0,0,1,2.21-4.27c.13-.15.28-.36.5-.32s.08.77,0,1c-.11.48-.88,1.88.39,2.32h0c.15.06.33-.06.41-.26a11.86,11.86,0,0,0,.55-2,2.94,2.94,0,0,0-1-3c-.54-.4-.91-.37-1.53.12a1.33,1.33,0,0,0-.22.2,8.56,8.56,0,0,0-1.29,1.66,13,13,0,0,0-1.21,2.67,13.54,13.54,0,0,0-.84,5.16,6.47,6.47,0,0,0,.46,2.09,2.88,2.88,0,0,0,1.06,1.39,2.2,2.2,0,0,0,2.84-.36,28.63,28.63,0,0,0,4.94-8,.82.82,0,0,0-.55-1.16m-20,15.4a1.22,1.22,0,0,1,0,.38,14.25,14.25,0,0,1-1.69,5.12c-.09.17-.21.34-.33.52,0,0-.07,0-.09.06a.16.16,0,0,1-.2-.09,1,1,0,0,1,0-.34,9.36,9.36,0,0,1,.67-2.62c.37-.87.82-1.73,1.19-2.6a2.66,2.66,0,0,1,.33-.44s.07,0,.1,0M136,144.74v0a18,18,0,0,1,2.6-8.34,4.09,4.09,0,0,1,.52-.7c.27-.29.59-.27.72.07a1.15,1.15,0,0,1,.13.59c0,.6-.1,1.21-.15,1.77a2.47,2.47,0,0,1-.34,1.11c-.87,1.91-1.9,3.76-3,5.6,0,0,0,0,0,.05-.17.25-.47.17-.45-.12m3.59-1.72c0,.07,0,.17,0,.25,0,.46-.12.9-.13,1.35a2.9,2.9,0,0,1-.45,1.21c-.62,1-1.21,1.94-1.77,2.9a22.3,22.3,0,0,0-2,4.61,8.1,8.1,0,0,0-.31,2.07,2.82,2.82,0,0,0,.53,1.58,1.57,1.57,0,0,0,2,.44,2.66,2.66,0,0,0,1-.89c.31-.5.65-1,.92-1.51a15.31,15.31,0,0,0,1.43-5.3c.13-1.35.22-2.73.35-4.08a1.7,1.7,0,0,1,.36-1l.95-1.28c1.16-1.62,2.39-3.25,3.58-4.91a.92.92,0,0,0,.24-.38.56.56,0,0,0-.26-.65c-.24-.14-.37-.1-.59.1s-.28.36-.44.54c-.9,1.09-1.79,2.21-2.69,3.3-.15.18-.33.41-.43.44s0-.46.05-.68c.18-.84.34-1.72.51-2.57a15.27,15.27,0,0,1,1.25-3.86.7.7,0,0,0,0-.77,1.35,1.35,0,0,0-.33-.45c-.5-.52-.88-.41-1.3.3a12,12,0,0,0-.57,1.27h0a.31.31,0,0,1-.55.13,3.32,3.32,0,0,0-1.46-1.46,1.23,1.23,0,0,0-1.62.4,3.35,3.35,0,0,0-.42.57,19.66,19.66,0,0,0-2.49,5.7,13.86,13.86,0,0,0-.47,5,5.31,5.31,0,0,0,.64,2,1.2,1.2,0,0,0,.67.64c.4.2.76.13,1.15-.33a3.51,3.51,0,0,0,.4-.64c.26-.45.51-.9.73-1.35.37-.76.67-1.51,1-2.26a1.88,1.88,0,0,0,.22-.45c.13-.14.28-.11.29.06m-3.83-3c-.18-.05-.33,0-.49.21a1.74,1.74,0,0,0-.26.53c-1,1.79-1.8,3.63-2.91,5.34-.37.52-.71,1-1.09,1.52a.4.4,0,0,1-.29.19c-.52-.13.19-2.59.63-4.58.86-3.89,1.05-4.29.92-5.12a2.53,2.53,0,0,0-1.58-1.52,1.06,1.06,0,0,0-.44,0,3.08,3.08,0,0,0-.75.42c-2.66,2-4.4,9.06-2.29,1.8a1.08,1.08,0,0,0-.36-1.24c-.79-.61-1-.45-1.21.1s-1.28,4.63-1.35,5c-.4,1.64-1.52,6.81-1.42,8a1.64,1.64,0,0,0,.86,1.31c.45.22.8,0,1-.52.45-1.2,1.5-7.7,5.12-12.1.6-.7.85-.56.68,0-.82,2.94-2.06,6.83-1.56,8.6a3,3,0,0,0,.86,1.55,1.81,1.81,0,0,0,.7.39,1.42,1.42,0,0,0,1.49-.5,9.61,9.61,0,0,0,1.15-1.68,52.5,52.5,0,0,0,2.47-5.14,12.6,12.6,0,0,0,.66-1.58c.18-.57,0-.9-.5-1m-14.82-3a1.32,1.32,0,0,0,.64,1.13c.36.18.56.05.69-.37s.21-.82.34-1.24c.26-.77.48-1.56.78-2.34a1.21,1.21,0,0,0-.4-1.51,1.52,1.52,0,0,0-.38-.24c-.36-.17-.51-.1-.7.34,0,.07-.06.15-.07.23-.25.94-.54,1.88-.75,2.81a9,9,0,0,0-.15,1.19m-3.06,13c.07.36.14.72.23,1a2.93,2.93,0,0,0,.86,1.55,1.48,1.48,0,0,0,.7.39,1.43,1.43,0,0,0,1.49-.49,10.36,10.36,0,0,0,1.14-1.68,56.5,56.5,0,0,0,2.48-5.15,13.64,13.64,0,0,0,.62-1.56c.22-.59,0-.91-.46-1a.45.45,0,0,0-.49.22,2.13,2.13,0,0,0-.31.5,56.44,56.44,0,0,1-2.9,5.37c-.37.52-.7,1-1,1.52-.08.09-.22.2-.29.18s-.16-.16-.16-.3c0-.41,0-.82,0-1.21A27.71,27.71,0,0,1,121,143.2c.17-.74.44-1.51.66-2.3a1.09,1.09,0,0,0-.4-1.27.33.33,0,0,1-.17-.12c-.63-.38-.81-.29-1.1.52a42.12,42.12,0,0,0-1.84,6.63,13.22,13.22,0,0,0-.2,3.42m-10.65,2c-.91,2-.83,2-1,2s0-3.19,1.54-9.48a1.13,1.13,0,0,0-.45-1.33c-.91-.64-.85,0-1.72,3.16a44.52,44.52,0,0,0-1.05,5.16,12.87,12.87,0,0,0,0,3.77c.32,2.06,1.71,2.56,2.49,1.4a3.9,3.9,0,0,0,.44-.75c.23-.51.49-1.07.7-1.65.4-1,.76-2.06,1.16-3.11.1-.24.25-.45.35-.69,0,.34.12.66.15,1,.31,2.79,1.87,3.73,3,2.58a10.14,10.14,0,0,0,1.94-4.12c.12-.66.18-.68.69-.48.9.37,2.28.11,3.54-2.4.16-.39.33-.55.13-.76-.86-.94-.92.54-2.48,1.64a2.89,2.89,0,0,1-.44.27c-.31.12-.52-.13-.54-.44a4.71,4.71,0,0,1-.1-1.18,20.32,20.32,0,0,1,.84-4.44.88.88,0,0,0-.25-1c-.08,0-.14-.13-.26-.2a.59.59,0,0,0-1,.27,17.08,17.08,0,0,0-.59,1.84,14.63,14.63,0,0,0-.43,4,1.81,1.81,0,0,1-.11.72,13.8,13.8,0,0,1-1.67,4.33c-.12.17-.26.42-.48.38s-.22-.29-.2-.47a21,21,0,0,1,.23-5.61,11.46,11.46,0,0,0,.11-1.42A1.12,1.12,0,0,0,111,144a.4.4,0,0,0-.56.23,6.63,6.63,0,0,0-.27.63,71.17,71.17,0,0,1-2.9,7.28m-5.88-4.79a1.53,1.53,0,0,1,0,1,7.45,7.45,0,0,1-.94,2.52,5.37,5.37,0,0,1-.64.91,4.33,4.33,0,0,1-.67.68.22.22,0,0,1-.37-.21c.07-.36.16-.77.18-.81a9.32,9.32,0,0,1,2-3.79c.13-.14.29-.32.5-.31m-4.7,7.93a7.11,7.11,0,0,0,.47,2.11,3.21,3.21,0,0,0,1.06,1.4,2.2,2.2,0,0,0,2.83-.4,28.07,28.07,0,0,0,4.94-8,.81.81,0,0,0-.54-1.16c-.34-.22-.86,1.35-1.79,2.93a28.33,28.33,0,0,1-2.82,4.07c-2,2.21-2.5,0-2.54-1.14,0-.35.06-.5.38-.6a4.12,4.12,0,0,0,2-1.48,10.14,10.14,0,0,0,2.06-4.54,2.92,2.92,0,0,0-1-3c-.53-.4-.9-.36-1.52.13a2,2,0,0,0-.25.21,9.61,9.61,0,0,0-1.26,1.64,13,13,0,0,0-1.21,2.67,14.1,14.1,0,0,0-.85,5.17m-11.57,2.9c.25-.11-.7,2-1.13,2.71-.1.14-.13.25-.21.34s-.29.19-.4.08a6.24,6.24,0,0,1-1.1-1.45l0-.1c0-.08.07-.12.13-.14.44-.16.88-.32,1.34-.52s.93-.61,1.4-.92m1.29-6.85c.27.2.07,1.43,0,1.91a2.81,2.81,0,0,1-1.07,2.29,12.74,12.74,0,0,1-2.18,2,2.2,2.2,0,0,1-.61.28c-.18.09-.22,0-.2-.22s.14-.35.19-.54a36.45,36.45,0,0,1,2-4c.34-.51.79-1,1.2-1.49a.83.83,0,0,1,.28-.22.27.27,0,0,1,.38,0m-5.87,11.77c.59-2.15.53-2.48.73-2.53s.24.48,1.18,1.7a9,9,0,0,0,1,1c.52.47,1.36.4,1.94-.6a12.5,12.5,0,0,0,1.07-2.21,20.09,20.09,0,0,0,1.25-4.69,3.32,3.32,0,0,1,.7-1.66,29.25,29.25,0,0,0,2.8-4.4c.17-.36.3-.4.57-.17l.85.8c.33.29.38.34.15.86-.31.75-.67,1.54-1,2.32a13.69,13.69,0,0,0-.92,3.8,10,10,0,0,0,0,1.73,2.49,2.49,0,0,0,.61,1.52,1.32,1.32,0,0,0,2.12-.12,4.49,4.49,0,0,0,.44-.51c.31-.5.65-1,.91-1.54,1.13-2.23,2.26-4.46,3.35-6.68a1.05,1.05,0,0,0,.05-.19c.15-.32.14-.49-.08-.67a.62.62,0,0,0-.91.23l-.07.12c-.44.75-.85,1.5-1.3,2.25a36.75,36.75,0,0,1-2.55,4.16,4.27,4.27,0,0,1-.51.63,1.66,1.66,0,0,1-.32.2c0-.24,0-.37,0-.54a15.8,15.8,0,0,1,.63-2.85c.4-1.16.85-2.36,1.32-3.5a1.38,1.38,0,0,0-.13-1.56c-.31-.36-.68-.67-1-1s-.56-.5-.86-.69a.89.89,0,0,1-.32-1c.12-.45.22-.93.38-1.36a1.42,1.42,0,0,0-.36-1.73c-.24-.24-.48-.21-.65.15a5,5,0,0,0-.81,3.21,1.07,1.07,0,0,1-.18.71,19.67,19.67,0,0,1-2.15,3.25c-.08.1-.13.15-.2.16s-.19.06-.25,0-.07-.12-.06-.19a3.47,3.47,0,0,0-1.44-2.15c-.48-.35-.82-.32-1.37.08a5.76,5.76,0,0,0-1.39,1.44c-.56.92-1.11,1.81-1.63,2.76-.44.78-.78,1.64-1.17,2.44s-.44.54-.3-.19c.25-1.18.47-2.35.79-3.52.72-2.8,1.5-5.66,2.25-8.47.08-.34.16-.67.22-1a1,1,0,0,0-.2-1c-.26-.2-.55-.36-.81-.53s-.35,0-.45.24a.77.77,0,0,0-.12.31,14.43,14.43,0,0,0-.42,1.44c-.39,1.43-.75,2.81-1.14,4.24-.74,2.6-1.45,5.2-2,7.82a57.7,57.7,0,0,0-1,7.68,3.17,3.17,0,0,0,1.32,1.84c.52.23.89,0,1.06-.55s.26-.91.42-1.33"/></g></g></svg>