<svg id="Desktop" xmlns="http://www.w3.org/2000/svg" viewBox="0 0 250 211.62"><defs><style>.cls-1{fill:#fff;}.cls-2{fill:#002a3a;}</style></defs><rect class="cls-1" width="250" height="211.62"/><g id="Logos"><g id="in_garden" data-name="in garden"><path class="cls-2" d="M131,76.6a55.73,55.73,0,0,0,7.41,6.3,35.27,35.27,0,0,0,7.94,4,39.67,39.67,0,0,0,4.37-9h0c2.49-8.36-1.63-15.93-9.93-18.11a18.56,18.56,0,0,0-20.43,7.41l-1.06,1.56c4.52,1,8,4.37,11.71,7.9"/><path class="cls-2" d="M128.64,101c-3.91,2.57-7.27,4.3-7.27,4.3l-8.55-5c-9.1-5-13.51-9.92-14.71-11.39a5.16,5.16,0,0,1-.35-.44c6.22,11.58,23.71,20,23.71,20A80.6,80.6,0,0,0,133,101.35a37.44,37.44,0,0,1-4.32-.38"/><path class="cls-2" d="M137.42,84.32c-7.32-4.9-11.92-12.54-18.7-14a6.15,6.15,0,0,1-2.48-1.68s-1.76-1.92-2.47-2.78c-2.79-3.35-5.15-5.24-8.7-6.24s-9.16-1-12.63,2-2.52,2.51-4.44,2.9a20.37,20.37,0,0,0-5.07,1.54s8.36,1.87,10.69,5.34C94.45,72.77,94.72,74,95,77c.39,4.54.61,6.53,1.64,9a12.64,12.64,0,0,1,5.78-9.73A14.46,14.46,0,0,1,100,75a30.59,30.59,0,0,1-3.72-3.59h0c-.68-.61-1.35-1.22-2-1.69h0a8.17,8.17,0,0,0-.68-.52h0a16.25,16.25,0,0,0-3.49-2,11.57,11.57,0,0,0,0-1.68h0a1,1,0,0,1,.56-.93,1.91,1.91,0,0,1,1-.21c.6,0,1.51.72,2.9,1a2.41,2.41,0,0,1,1.64-3.78,2.47,2.47,0,0,1,2.61,1.71c-2.18-2.25-4-.19-3.4,1.4.78,2.2,6-.62,10.19.53a23.47,23.47,0,0,1,9.7,5.24,18.86,18.86,0,0,0-8.16,3c-1.89,1.28-2.09,1.78-2.09,1.78a9.89,9.89,0,0,1,9.12.72c4.69,3,13.14,15,27.31,16.45,0,0-6.8,1.42-15.06-3.94s-11.68-10.1-14.47-11.22c-1.87-.75-4-1-5.66.45a4.82,4.82,0,0,0-1.24,2.52c-.85,6.11,3.49,13.51,18.26,17.8,21.53,6.24,34.25-8,34.25-8-4.46.6-12.48-.59-20.24-5.8"/><path class="cls-2" d="M145.28,150.48a5.24,5.24,0,0,1,1,.1,2.59,2.59,0,0,1,.73.28,1.37,1.37,0,0,1,.44.42,1,1,0,0,1,.14.51.74.74,0,0,1-.07.34.92.92,0,0,1-.22.26,1.07,1.07,0,0,1-.32.16,1.29,1.29,0,0,1-.4.06,1.9,1.9,0,0,0-.07-.54,1.53,1.53,0,0,0-.23-.48,1.15,1.15,0,0,0-.43-.35,1.35,1.35,0,0,0-.64-.14,2.44,2.44,0,0,0-1.12.25,2,2,0,0,0-.75.7,3.45,3.45,0,0,0-.42,1.15,8.89,8.89,0,0,0-.13,1.55,7,7,0,0,0,.14,1.43,3.26,3.26,0,0,0,.43,1.11,2.15,2.15,0,0,0,.75.72,2.26,2.26,0,0,0,1.1.26,2.88,2.88,0,0,0,.76-.09,2,2,0,0,0,.58-.22,2.32,2.32,0,0,0,.44-.31,3.92,3.92,0,0,0,.34-.37.5.5,0,0,1,.15.17.47.47,0,0,1,.07.28.81.81,0,0,1-.15.45,1.35,1.35,0,0,1-.46.42,2.82,2.82,0,0,1-.78.31,4.63,4.63,0,0,1-1.12.12,3.66,3.66,0,0,1-1.53-.3,3.16,3.16,0,0,1-1.11-.87,3.85,3.85,0,0,1-.67-1.36,6.34,6.34,0,0,1-.23-1.75,5.88,5.88,0,0,1,.24-1.73,3.79,3.79,0,0,1,.71-1.35,3.21,3.21,0,0,1,1.17-.87,3.87,3.87,0,0,1,1.62-.32"/><path class="cls-2" d="M158.34,154.75a6,6,0,0,1-.24,1.75,3.91,3.91,0,0,1-.71,1.36,3.22,3.22,0,0,1-1.15.87,3.81,3.81,0,0,1-1.56.3,4,4,0,0,1-1.62-.3,3.1,3.1,0,0,1-1.14-.87,3.86,3.86,0,0,1-.68-1.36,6.85,6.85,0,0,1,0-3.52,3.77,3.77,0,0,1,.68-1.34,3,3,0,0,1,1.15-.86,3.87,3.87,0,0,1,1.62-.31,3.65,3.65,0,0,1,1.56.31,3.13,3.13,0,0,1,1.14.86,4,4,0,0,1,.71,1.35,6,6,0,0,1,.24,1.76m-6,0a8.08,8.08,0,0,0,.13,1.55,3.26,3.26,0,0,0,.41,1.14,1.89,1.89,0,0,0,.74.72,2.55,2.55,0,0,0,2.2,0,1.8,1.8,0,0,0,.73-.72,3.26,3.26,0,0,0,.41-1.14,9,9,0,0,0,.12-1.55,8.84,8.84,0,0,0-.12-1.54,3.24,3.24,0,0,0-.41-1.15,1.84,1.84,0,0,0-.73-.71,2.25,2.25,0,0,0-1.09-.25,2.32,2.32,0,0,0-1.1.25,1.89,1.89,0,0,0-.75.71,3.24,3.24,0,0,0-.41,1.15,7.9,7.9,0,0,0-.13,1.54"/><path class="cls-2" d="M165.55,159a4.75,4.75,0,0,1-1.24-.14,2.41,2.41,0,0,1-.92-.46,2,2,0,0,1-.58-.82,3.27,3.27,0,0,1-.2-1.2v-4.53a.83.83,0,0,0-.08-.41.68.68,0,0,0-.2-.24.76.76,0,0,0-.31-.11,2.1,2.1,0,0,0-.36,0h-.15v-.49h3.39v.49h-.16a2.31,2.31,0,0,0-.37,0,.79.79,0,0,0-.3.12.63.63,0,0,0-.2.25.94.94,0,0,0-.08.44v4.54a2.48,2.48,0,0,0,.14.87,1.52,1.52,0,0,0,.41.57,1.64,1.64,0,0,0,.61.33,2.78,2.78,0,0,0,.78.1,2.58,2.58,0,0,0,.88-.14,1.78,1.78,0,0,0,.61-.37,1.51,1.51,0,0,0,.35-.58,2.11,2.11,0,0,0,.12-.73v-4.64a.83.83,0,0,0-.08-.41.68.68,0,0,0-.2-.24.76.76,0,0,0-.31-.11,2.1,2.1,0,0,0-.36,0h-.15v-.49h2.92v.49h-.15a2.22,2.22,0,0,0-.37,0,.77.77,0,0,0-.31.12.63.63,0,0,0-.2.25,1.08,1.08,0,0,0-.08.44v4.61a2.89,2.89,0,0,1-.18,1.05,2.09,2.09,0,0,1-.55.78,2.33,2.33,0,0,1-.89.49,3.89,3.89,0,0,1-1.23.17"/><path class="cls-2" d="M178.64,158.92l-4.37-6.71v5.38a1,1,0,0,0,.08.44.67.67,0,0,0,.2.26,1,1,0,0,0,.31.11,2.13,2.13,0,0,0,.37,0h.15v.49h-2.92v-.49h.14a2.25,2.25,0,0,0,.38,0,1,1,0,0,0,.3-.11.52.52,0,0,0,.2-.26,1,1,0,0,0,.08-.44v-5.71a1,1,0,0,0-.08-.41.68.68,0,0,0-.2-.24.76.76,0,0,0-.31-.11,2.13,2.13,0,0,0-.37,0h-.14v-.49h2.13l4.17,6.44v-5.16a1,1,0,0,0-.08-.41.61.61,0,0,0-.21-.24.67.67,0,0,0-.3-.11,2.22,2.22,0,0,0-.37,0h-.15v-.49h2.92v.49h-.14a2.25,2.25,0,0,0-.38,0,.79.79,0,0,0-.3.12.58.58,0,0,0-.21.25,1.1,1.1,0,0,0-.07.44v7Z"/><path class="cls-2" d="M186.11,159a3.75,3.75,0,0,1-1-.12,2.34,2.34,0,0,1-.73-.33,1.3,1.3,0,0,1-.44-.52,1.45,1.45,0,0,1-.15-.66.74.74,0,0,1,.22-.57.83.83,0,0,1,.62-.22,3.2,3.2,0,0,0,.11.7,1.91,1.91,0,0,0,.29.59,1.33,1.33,0,0,0,.47.41,1.54,1.54,0,0,0,.7.16,1.85,1.85,0,0,0,1.23-.38,1.39,1.39,0,0,0,.44-1.09,1.7,1.7,0,0,0-.09-.57,1.27,1.27,0,0,0-.3-.45,2.61,2.61,0,0,0-.56-.4c-.23-.12-.51-.26-.85-.4a5.61,5.61,0,0,1-.95-.47,2.92,2.92,0,0,1-.67-.57,2,2,0,0,1-.4-.69,2.83,2.83,0,0,1-.13-.86,2.11,2.11,0,0,1,.19-.89,2,2,0,0,1,.53-.66,2.38,2.38,0,0,1,.81-.41,3.31,3.31,0,0,1,1-.15,3.71,3.71,0,0,1,.93.11,2.36,2.36,0,0,1,.68.29,1.2,1.2,0,0,1,.42.42.91.91,0,0,1,.15.49.67.67,0,0,1-.25.57,1,1,0,0,1-.67.19,2.48,2.48,0,0,0-.06-.54,1.56,1.56,0,0,0-.22-.47,1.15,1.15,0,0,0-.41-.34,1.27,1.27,0,0,0-.62-.13,1.89,1.89,0,0,0-.6.09,1.48,1.48,0,0,0-.44.27,1.19,1.19,0,0,0-.28.42,1.35,1.35,0,0,0-.1.55,1.91,1.91,0,0,0,.09.61,1.41,1.41,0,0,0,.31.48,2.61,2.61,0,0,0,.56.4,6.32,6.32,0,0,0,.85.39,6.43,6.43,0,0,1,.91.45,2.84,2.84,0,0,1,.68.52,2,2,0,0,1,.43.64,2.09,2.09,0,0,1,.15.81,2.38,2.38,0,0,1-.2,1,2.1,2.1,0,0,1-.58.74,2.73,2.73,0,0,1-.9.46,4.4,4.4,0,0,1-1.19.15"/><path class="cls-2" d="M194.63,158.34h2.24a1.34,1.34,0,0,0,.48-.08.92.92,0,0,0,.32-.2,1,1,0,0,0,.21-.31,1.44,1.44,0,0,0,.1-.37l.08-.5h.61l-.08,2h-6.25v-.49h.15l.37,0a.89.89,0,0,0,.3-.11.5.5,0,0,0,.21-.24.93.93,0,0,0,.08-.41v-5.72a1.08,1.08,0,0,0-.08-.44.56.56,0,0,0-.2-.25.77.77,0,0,0-.31-.12,2.13,2.13,0,0,0-.37,0h-.15v-.49h5.87l.06,2h-.6l-.06-.5a1.18,1.18,0,0,0-.09-.37.92.92,0,0,0-.18-.3,1,1,0,0,0-.31-.21,1.17,1.17,0,0,0-.45-.08h-2v3.1h2.81v.57h-2.81Z"/><path class="cls-2" d="M201.93,158.92v-.49h.15a2.13,2.13,0,0,0,.37,0,1,1,0,0,0,.31-.11.67.67,0,0,0,.2-.26,1,1,0,0,0,.08-.44v-5.66a1.08,1.08,0,0,0-.08-.44.63.63,0,0,0-.2-.25.77.77,0,0,0-.31-.12,2.13,2.13,0,0,0-.37,0h-.15v-.49h3.39v.49h-.15a2.22,2.22,0,0,0-.37,0,.77.77,0,0,0-.3.11.61.61,0,0,0-.21.24,1,1,0,0,0-.08.41v6.46h2.3a1,1,0,0,0,.45-.09,1.05,1.05,0,0,0,.3-.25,1.25,1.25,0,0,0,.19-.34,2.49,2.49,0,0,0,.09-.37l.11-.87h.61l-.08,2.5Z"/><path class="cls-2" d="M211.52,158.92v-.49h.15a2.13,2.13,0,0,0,.37,0,1,1,0,0,0,.31-.11.67.67,0,0,0,.2-.26,1.06,1.06,0,0,0,.07-.44v-5.66a1.1,1.1,0,0,0-.07-.44.63.63,0,0,0-.2-.25.77.77,0,0,0-.31-.12,2.13,2.13,0,0,0-.37,0h-.15v-.49h3.39v.49h-.15a2.22,2.22,0,0,0-.37,0,.77.77,0,0,0-.31.12.63.63,0,0,0-.2.25,1.08,1.08,0,0,0-.08.44v5.66a1,1,0,0,0,.08.44.67.67,0,0,0,.2.26,1,1,0,0,0,.31.11,2.22,2.22,0,0,0,.37,0h.15v.49Z"/><path class="cls-2" d="M224.31,158.92l-4.37-6.71v5.38a1,1,0,0,0,.08.44.67.67,0,0,0,.2.26,1,1,0,0,0,.31.11,2.22,2.22,0,0,0,.37,0h.15v.49h-2.92v-.49h.15a2.22,2.22,0,0,0,.37,0,.89.89,0,0,0,.3-.11.61.61,0,0,0,.21-.26,1.06,1.06,0,0,0,.07-.44v-5.71a1,1,0,0,0-.07-.41.83.83,0,0,0-.21-.24.76.76,0,0,0-.31-.11,2,2,0,0,0-.36,0h-.15v-.49h2.13l4.17,6.44v-5.16a.83.83,0,0,0-.08-.41.68.68,0,0,0-.2-.24.76.76,0,0,0-.31-.11,2.1,2.1,0,0,0-.36,0h-.16v-.49h2.93v.49h-.15a2.13,2.13,0,0,0-.37,0,.77.77,0,0,0-.31.12.56.56,0,0,0-.2.25,1.08,1.08,0,0,0-.08.44v7Z"/><path class="cls-2" d="M233.58,159a4.75,4.75,0,0,1-1.77-.3,3.43,3.43,0,0,1-1.25-.87,3.65,3.65,0,0,1-.74-1.36,5.65,5.65,0,0,1-.25-1.75,5.56,5.56,0,0,1,.26-1.73,3.75,3.75,0,0,1,.77-1.35,3.63,3.63,0,0,1,1.28-.87,4.62,4.62,0,0,1,1.77-.32,6.16,6.16,0,0,1,1.13.1,2.87,2.87,0,0,1,.8.28,1.26,1.26,0,0,1,.48.42.86.86,0,0,1,.16.51.74.74,0,0,1-.08.34,1,1,0,0,1-.23.26,1.13,1.13,0,0,1-.35.16,1.42,1.42,0,0,1-.42.06,1.91,1.91,0,0,0-.08-.54,1.29,1.29,0,0,0-.74-.83,1.74,1.74,0,0,0-.72-.14,2.86,2.86,0,0,0-1.26.25,2.07,2.07,0,0,0-.85.7,3.09,3.09,0,0,0-.48,1.15,7.21,7.21,0,0,0-.15,1.55,6.59,6.59,0,0,0,.16,1.55,3,3,0,0,0,.5,1.14,2.24,2.24,0,0,0,.9.7,3.5,3.5,0,0,0,1.34.23c.23,0,.44,0,.66,0a2.92,2.92,0,0,0,.56-.11v-1.88a1,1,0,0,0-.08-.41.61.61,0,0,0-.21-.24,1,1,0,0,0-.3-.11,2.22,2.22,0,0,0-.37,0H234v-.49h3v.49h0a1.66,1.66,0,0,0-.32,0,.53.53,0,0,0-.25.12.5.5,0,0,0-.17.26,1.06,1.06,0,0,0-.07.44v2.09a5.29,5.29,0,0,1-1.2.4,6.51,6.51,0,0,1-1.37.13"/><path class="cls-2" d="M26.1,123a2.2,2.2,0,0,0,2.19-2.2,2.23,2.23,0,0,0-.65-1.59,2.11,2.11,0,0,0-1.54-.66,2.29,2.29,0,0,0-2.27,2.25,2.08,2.08,0,0,0,.68,1.56,2.22,2.22,0,0,0,1.59.64"/><path class="cls-2" d="M233.18,145.16a1.81,1.81,0,0,1-1.56-.79,5.1,5.1,0,0,1-.83-2.25,18.88,18.88,0,0,1-.26-2.67c0-1,0-2,0-3.08V132a7.6,7.6,0,0,0-1.36-4.77,5.21,5.21,0,0,0-4.39-1.75,5.4,5.4,0,0,0-2.87.78,6.92,6.92,0,0,0-2,1.95,5.87,5.87,0,0,0-.64,1.61v-3.38h-3.12a4.94,4.94,0,0,1-2.27,4.39,3.31,3.31,0,0,0,2.27-.76v6.36h0c0,1.07,0,2.25,0,3.56,0,1.73.2,4.69.36,6.73h3.12c-.06-1-.2-2.91-.25-3.63s-.08-1.42-.11-2.08,0-1.32,0-2v-2.39c0-.49,0-1,0-1.65s.06-1.23.14-1.86.19-1.25.32-1.86a8.44,8.44,0,0,1,.57-1.74,5.91,5.91,0,0,1,1.4-1.85,3,3,0,0,1,2.07-.75,3.53,3.53,0,0,1,1.8.41,3.05,3.05,0,0,1,1.1,1.1,4.91,4.91,0,0,1,.57,1.63,11.32,11.32,0,0,1,.17,2v4.38a41,41,0,0,0,.22,4.91,8.45,8.45,0,0,0,.88,3,4,4,0,0,0,1.8,1.79,5.58,5.58,0,0,0,2.49.55,4.25,4.25,0,0,0,2.13-.48,3.56,3.56,0,0,0,1.35-1.32,6,6,0,0,0,.72-2c-.94,1.27-1.59,2.3-3.78,2.36"/><path class="cls-2" d="M179.76,129.17a3.3,3.3,0,0,0-1.17-2.81,4.48,4.48,0,0,0-2.77-.89,5.28,5.28,0,0,0-2.78.78,8.37,8.37,0,0,0-2.68,2.66v-2.48h-3.12v.09h0a4.93,4.93,0,0,1-2.27,4.3,3.33,3.33,0,0,0,2.27-.75v.11h0v6.24c0,1.69,0,3.27.07,4.75s.16,4,.28,5.53h3.12c-.06-1-.14-3-.19-3.74s-.08-1.46-.11-2.13,0-1.36,0-2v-2.42c0-.3,0-.7,0-1.21s.05-1.06.1-1.67a14.88,14.88,0,0,1,.24-1.85,5.89,5.89,0,0,1,.46-1.62c1.6-3.12,6.34-4.26,8.58-.85"/><path class="cls-2" d="M141,140.31a4.5,4.5,0,0,1-.59,2.3,10.17,10.17,0,0,1-1.61,2v-14.1c1.44-.19,6.63-1.23,8.35-6.76a20.91,20.91,0,0,1-12.59,5.76,12.13,12.13,0,0,0-4.16,1.5,4.79,4.79,0,0,0-2,3.41,7.8,7.8,0,0,1,1.43-1.67,7.5,7.5,0,0,1,2.8-1.17l2.55-.4.77-.15q-.07,7.35-1.59,11.12c-1.06,2.64-2.61,4-4.63,4a4.17,4.17,0,0,1-2.88-1.09,7.78,7.78,0,0,1-1.94-3.09,21.09,21.09,0,0,1-1.07-4.81,52.28,52.28,0,0,1-.34-6.3c0-.86,0-1.8.11-2.81s.19-2,.35-3.11a12.24,12.24,0,0,0,2.06.15,13.79,13.79,0,0,0,4.74-.79,12.44,12.44,0,0,0,3.82-2.18,10,10,0,0,0,2.56-3.33,9.77,9.77,0,0,0,.92-4.23A5.19,5.19,0,0,0,136.8,111a4.77,4.77,0,0,0-3.81-1.45,8.84,8.84,0,0,0-5,1.71,14,14,0,0,0-4.37,5.29,21.57,21.57,0,0,0-1.32,3c-.38,1.06-1,3.31-1,3.31l-.06.22a28.41,28.41,0,0,1-9.12-4.52c1.6,2.91,5.88,4.69,8.84,5.6l0,.1a67.42,67.42,0,0,0-.73,7.35,37.62,37.62,0,0,0,.47,6.06,17.81,17.81,0,0,0,1.52,5.05,9,9,0,0,0,2.8,3.46,7.14,7.14,0,0,0,4.33,1.28,6.24,6.24,0,0,0,2-.34,5.71,5.71,0,0,0,1.92-1.11,6.15,6.15,0,0,0,1.54-2.09,26.19,26.19,0,0,0,1.46-5.69l.06,8.52q-1.32,1-2.73,2.16a20.89,20.89,0,0,0-2.58,2.47,12.66,12.66,0,0,0-1.89,2.86,7.68,7.68,0,0,0-.74,3.35,4.82,4.82,0,0,0,1,3.25,3.53,3.53,0,0,0,2.81,1.15,4.56,4.56,0,0,0,3.07-1.12,7.89,7.89,0,0,0,2.07-2.85,13.65,13.65,0,0,0,.79-2.53,28.91,28.91,0,0,0,.47-2.86c.1-1,.17-2,.2-3s0-1.91,0-2.8v-.52c3.65-2.95,2.2-6.47,2.2-6.47ZM125.29,119a19.19,19.19,0,0,1,1.8-4.07,10.31,10.31,0,0,1,2.52-2.91,5.35,5.35,0,0,1,3.34-1.11,3.6,3.6,0,0,1,2.75,1,3.93,3.93,0,0,1,.94,2.78,8.44,8.44,0,0,1-3,6.52,10.44,10.44,0,0,1-3.39,1.89,12.87,12.87,0,0,1-4.29.68,12.3,12.3,0,0,1-1.52-.09l-.28,0a32,32,0,0,1,1.12-4.66m11,31.49c0,.84,0,1.69-.09,2.56s-.12,1.7-.24,2.53a12.38,12.38,0,0,1-.45,2.12,4.87,4.87,0,0,1-1.28,2.21,2.88,2.88,0,0,1-2,.78,2.26,2.26,0,0,1-1.73-.76,3.27,3.27,0,0,1-.72-2.32,7,7,0,0,1,.58-2.87,10,10,0,0,1,1.5-2.45,16.18,16.18,0,0,1,2.11-2.11q1.18-1,2.37-1.92c0,.65,0,1.39,0,2.23"/><path class="cls-2" d="M162.15,145.16a1.81,1.81,0,0,1-1.56-.79,5.07,5.07,0,0,1-.83-2.25,17.51,17.51,0,0,1-.26-2.67c0-.82-.05-1.21-.06-2V137c0-4.06-.69-7-2-8.79a7.21,7.21,0,0,0-11.33,0q-2,2.76-2,7.85a20,20,0,0,0,.39,4.06,10.48,10.48,0,0,0,1.26,3.33,6.65,6.65,0,0,0,2.21,2.29,6,6,0,0,0,3.26.84,4.64,4.64,0,0,0,3.44-1.3,6.8,6.8,0,0,0,2-4,9.11,9.11,0,0,0,.17,1.37,7.1,7.1,0,0,0,.6,1.59,4.11,4.11,0,0,0,1.81,1.79,5.54,5.54,0,0,0,2.48.55,4.29,4.29,0,0,0,2.14-.48,3.71,3.71,0,0,0,1.35-1.32,6.24,6.24,0,0,0,.71-2c-.93,1.27-1.58,2.3-3.77,2.36m-7-2.31a3.69,3.69,0,0,1-6.85,0,16.13,16.13,0,0,1-1.14-6.86q0-9.08,4.58-9.07a3.65,3.65,0,0,1,3.41,2.33,15.93,15.93,0,0,1,1.16,6.84,15.63,15.63,0,0,1-1.16,6.78"/><path class="cls-2" d="M206.83,138.66a8.1,8.1,0,0,0,2.84-1.44,6.34,6.34,0,0,0,1.84-2.38,7.71,7.71,0,0,0,.65-3.24,6,6,0,0,0-1.7-4.41,6.17,6.17,0,0,0-4.59-1.72,6.91,6.91,0,0,0-3.39.81,7.24,7.24,0,0,0-2.45,2.23,10.32,10.32,0,0,0-1.48,3.36A16.33,16.33,0,0,0,198,136a18.45,18.45,0,0,0,.59,4.95h0v0a9.78,9.78,0,0,0,.7,1.8,7.34,7.34,0,0,0,.88,1.52,5.64,5.64,0,0,0,.89,1c1.86,1.79,5.77,1.74,8.64.27a4,4,0,0,0,2.23-4.29c-.68,1.63-2.95,3.26-5.75,3.49h0c-4.3.33-4.92-5.69-4.92-5.69h1.92a12.77,12.77,0,0,0,3.61-.48m-5.67-.95a33.29,33.29,0,0,1,.18-4.8A12.79,12.79,0,0,1,202,130a5.91,5.91,0,0,1,1.36-2.19,3.19,3.19,0,0,1,2.33-.87,2.76,2.76,0,0,1,2.71,1.59,5.84,5.84,0,0,1,.51,1.61,11.57,11.57,0,0,1,.14,1.75,5.46,5.46,0,0,1-1.73,4.37,6.43,6.43,0,0,1-4.37,1.49Z"/><path class="cls-2" d="M50.41,145.16a1.81,1.81,0,0,1-1.56-.79,5.1,5.1,0,0,1-.83-2.25,18.88,18.88,0,0,1-.26-2.67c0-1,0-2,0-3.08V132a7.54,7.54,0,0,0-1.36-4.77A5.18,5.18,0,0,0,42,125.47a5.4,5.4,0,0,0-2.87.78,6.76,6.76,0,0,0-1.43,1.2l-.05.06-.15.17a7.72,7.72,0,0,0-1,1.71v-3H33.32s-.71,3.8-2.84,3.8c-2.38,0-2.87-5.11-2.87-5.11H24.49v11.25c0,1.08,0,2.11,0,3.08a22.74,22.74,0,0,1-.23,2.67c0,.14-.05.27-.07.41a4.82,4.82,0,0,1-.77,1.95,1.81,1.81,0,0,1-1.56.79c-2.19-.06-2.84-1.09-3.78-2.36a6,6,0,0,0,.72,2,3.71,3.71,0,0,0,1.35,1.32,4.25,4.25,0,0,0,2.13.48,5.55,5.55,0,0,0,2.49-.55,4,4,0,0,0,1.8-1.79,8.45,8.45,0,0,0,.88-3,41,41,0,0,0,.22-4.91v-.73h0v-5.69a2.8,2.8,0,0,0,2.84,2.18,2.86,2.86,0,0,0,2.87-2.18v5.35c0,1.31,0,2.83,0,4.56s.19,4.69.34,6.73h3.12c-.06-1-.18-2.91-.23-3.63s-.09-1.42-.12-2.08,0-1.32,0-2v-2.39c0-.49,0-1,0-1.65s.06-1.23.14-1.86.18-1.25.32-1.86a8.44,8.44,0,0,1,.57-1.74,5.91,5.91,0,0,1,1.4-1.85A3,3,0,0,1,41,126.9a3.55,3.55,0,0,1,1.8.41,3.13,3.13,0,0,1,1.1,1.1,4.91,4.91,0,0,1,.57,1.63,11.32,11.32,0,0,1,.17,2v4.38a41,41,0,0,0,.22,4.91,8.45,8.45,0,0,0,.88,3A4,4,0,0,0,47.5,146a5.55,5.55,0,0,0,2.49.55,4.25,4.25,0,0,0,2.13-.48,3.71,3.71,0,0,0,1.35-1.32,6.23,6.23,0,0,0,.72-2c-.94,1.27-1.59,2.3-3.78,2.36"/><path class="cls-2" d="M96,145.16a1.81,1.81,0,0,1-1.56-.79,5.07,5.07,0,0,1-.83-2.25,18.88,18.88,0,0,1-.26-2.67c0-1,0-2,0-3.08V132a7.07,7.07,0,0,0-1.42-4.7,5.24,5.24,0,0,0-4.23-1.68,5.44,5.44,0,0,0-3.09.87,7,7,0,0,0-1.8,1.71,5.05,5.05,0,0,0-.74,1.46v-2.07a36.67,36.67,0,0,0,3.27-3.41,27,27,0,0,0,2.8-4,22.3,22.3,0,0,0,1.06-2.06c.51-.05,1-.12,1.57-.19h0a46.52,46.52,0,0,0,17.44-5.74,63,63,0,0,1-13.77,3.66c-1.42.21-3,.39-4.58.53.06-.19.13-.37.19-.55a14.86,14.86,0,0,0,.72-4.55,7.33,7.33,0,0,0-1.16-4.37,3.81,3.81,0,0,0-3.31-1.63,4.73,4.73,0,0,0-3.41,1.33,8.86,8.86,0,0,0-2.1,3.12,18.85,18.85,0,0,0-1.28,4.84c-.11.79-.27,2.34-.27,2.34l-8.85,0V109.1H67.26v8.11c-1.17.13-2.29.29-3.37.5a16.84,16.84,0,0,0-7.36,3.35,14.24,14.24,0,0,0-3.3,3.8,9.48,9.48,0,0,0-1.3,5,6.09,6.09,0,0,0,1.24,4,4.38,4.38,0,0,0,3.58,1.5,4.15,4.15,0,0,0,3-1.14,3.87,3.87,0,0,0,1.19-2.92,3.43,3.43,0,0,0-1.17-2.81,4.47,4.47,0,0,0-3-1,3.33,3.33,0,0,1,2,1.34,3.65,3.65,0,0,1-.28,4.17,2.44,2.44,0,0,1-1.78.67,2.66,2.66,0,0,1-2.15-1,4.4,4.4,0,0,1-.83-2.87,8.9,8.9,0,0,1,1-4.32,10.77,10.77,0,0,1,2.64-3.2,15.14,15.14,0,0,1,5.38-2.82,21.63,21.63,0,0,1,4.51-.84v17.75a41,41,0,0,0,.22,4.91,8.45,8.45,0,0,0,.88,3A4.06,4.06,0,0,0,70.17,146a5.51,5.51,0,0,0,2.48.55,4.25,4.25,0,0,0,2.13-.48,3.56,3.56,0,0,0,1.35-1.32,6,6,0,0,0,.72-2c-.94,1.27-1.58,2.3-3.78,2.36a1.81,1.81,0,0,1-1.56-.79,5.33,5.33,0,0,1-.83-2.25,18.88,18.88,0,0,1-.26-2.67c0-1,0-2,0-3.08V118.56c1.46,0,8.73-.08,8.73-.08,0,.45,0,.89-.07,1.33,0,.94-.05,1.74-.07,2.39s0,1.31,0,1.94,0,1.32,0,2.07.06,1.64,0,2.68a.66.66,0,0,1-.1.31,27.87,27.87,0,0,1-3.89,3.1,6.12,6.12,0,0,0,4-1.9h0l0,0v5c0,1.31,0,2.83,0,4.56s.25,4.69.4,6.73h3.12c-.06-1-.24-2.9-.29-3.61s-.08-1.39-.11-2,0-1.28,0-1.93v-2.38c0-.49,0-1,0-1.63s.07-1.23.14-1.87a13.68,13.68,0,0,1,.31-1.9,12.26,12.26,0,0,1,.55-1.71,5.82,5.82,0,0,1,1.42-1.85,3.07,3.07,0,0,1,2.05-.75,3.64,3.64,0,0,1,1.8.39,2.87,2.87,0,0,1,1.1,1.06,4.55,4.55,0,0,1,.57,1.59,10.6,10.6,0,0,1,.17,1.91v4.38a41,41,0,0,0,.22,4.91,8.45,8.45,0,0,0,.88,3,4,4,0,0,0,1.8,1.79,5.55,5.55,0,0,0,2.49.55,4.25,4.25,0,0,0,2.13-.48,3.71,3.71,0,0,0,1.35-1.32,6.23,6.23,0,0,0,.72-2c-.94,1.27-1.59,2.3-3.78,2.36M82.43,114.32a24.63,24.63,0,0,1,.68-3.76,7.23,7.23,0,0,1,1.29-2.7,2.61,2.61,0,0,1,2.14-1,2.12,2.12,0,0,1,2,1.33,7.61,7.61,0,0,1,.65,3.34A15.34,15.34,0,0,1,88.5,116c0,.16-.1.33-.16.49-2,.15-4.12.25-6.13.32.06-.85.13-1.7.22-2.53m-.41,9c0-.79,0-1.47,0-2s0-1.07,0-1.51,0-.83,0-1.17v-.08c.5,0,1,0,1.45,0,1,0,2.37,0,4.06-.17a22.16,22.16,0,0,1-1.44,2.62c-.54.85-1.16,1.71-1.85,2.59A26.05,26.05,0,0,1,82,126.06Z"/><path class="cls-2" d="M194.49,136.11v-6.63a8.46,8.46,0,0,0,4,1.92s-1.8-1.42-4-3.36c0-.27-.06-6.1-.08-6.74s0-1.45-.07-2.39a50.3,50.3,0,0,0-.46-5.21,18.74,18.74,0,0,0-1.27-4.84,8.69,8.69,0,0,0-2.1-3.12,4.76,4.76,0,0,0-3.41-1.34,3.84,3.84,0,0,0-3.32,1.63,7.45,7.45,0,0,0-1.16,4.38,14.52,14.52,0,0,0,.73,4.54,22.17,22.17,0,0,0,1.94,4.35,27.89,27.89,0,0,0,2.8,4,39.46,39.46,0,0,0,3.27,3.41v1.77s-.66-2.79-5.05-3a5.51,5.51,0,0,0-3.45,1,7,7,0,0,0-2.21,2.52,12.2,12.2,0,0,0-1.18,3.48,20.08,20.08,0,0,0-.37,3.85,19.37,19.37,0,0,0,.39,4,10.19,10.19,0,0,0,1.26,3.28,6.18,6.18,0,0,0,5.61,3.06,4.37,4.37,0,0,0,3.23-1.22,7.19,7.19,0,0,0,1.89-3.59s.19,3.79.28,4.92h3.12c-.06-1-.21-2.83-.23-3.58-.1-3.06-.17-5.82-.17-7m-3.13-11c-.83-.83-1.63-1.69-2.32-2.51s-1.3-1.73-1.85-2.58a20.71,20.71,0,0,1-2.31-4.87,15.37,15.37,0,0,1-.71-4.54,7.67,7.67,0,0,1,.64-3.35,2.13,2.13,0,0,1,2-1.32,2.61,2.61,0,0,1,2.14,1,7.23,7.23,0,0,1,1.29,2.7,22.22,22.22,0,0,1,.68,3.76c.15,1.39.26,2.8.32,4.24,0,.35,0,.74,0,1.18s0,.94.05,1.51,0,1.25,0,2.05Zm-1.16,17.75a3.7,3.7,0,0,1-3.43,2.31,3.6,3.6,0,0,1-3.42-2.33,16.33,16.33,0,0,1-1.12-6.86q0-9.08,4.58-9.07a3.7,3.7,0,0,1,3.37,2.33,15.57,15.57,0,0,1,1.19,6.84,15.46,15.46,0,0,1-1.17,6.78"/><path class="cls-2" d="M107.57,138.66a8.19,8.19,0,0,0,2.84-1.44,6.45,6.45,0,0,0,1.84-2.38,7.71,7.71,0,0,0,.64-3.24,6,6,0,0,0-1.7-4.41,6.13,6.13,0,0,0-4.58-1.72,6.91,6.91,0,0,0-3.39.81,7.15,7.15,0,0,0-2.45,2.23,10.34,10.34,0,0,0-1.49,3.36,16.79,16.79,0,0,0-.5,4.15,18.48,18.48,0,0,0,.58,4.95h0v0a10.54,10.54,0,0,0,.69,1.8,7.82,7.82,0,0,0,.89,1.52,5.64,5.64,0,0,0,.89,1c1.85,1.79,5.76,1.74,8.64.27a4,4,0,0,0,2.23-4.29c-.68,1.63-2.95,3.26-5.75,3.49h0c-4.3.33-4.92-5.69-4.92-5.69H104a12.82,12.82,0,0,0,3.61-.48m-5.67-.95a34.11,34.11,0,0,1,.17-4.8,12.78,12.78,0,0,1,.66-2.95,5.78,5.78,0,0,1,1.36-2.19,3.15,3.15,0,0,1,2.33-.87,2.76,2.76,0,0,1,2.71,1.59,5.51,5.51,0,0,1,.5,1.61,10.41,10.41,0,0,1,.14,1.75,5.45,5.45,0,0,1-1.72,4.37,6.47,6.47,0,0,1-4.37,1.49Z"/></g></g></svg>