<svg id="Desktop" xmlns="http://www.w3.org/2000/svg" viewBox="0 0 250 211.62"><defs><style>.cls-1{fill:#fff;}.cls-2{fill:#002a3a;}</style></defs><rect class="cls-1" width="250" height="211.62"/><g id="Logos"><g id="Maymead"><path class="cls-2" d="M32.06,153.67h0a.78.78,0,0,1-.78-.79l0-80.1a1.25,1.25,0,0,1,0-.21.82.82,0,0,1,.47-.69l11.56-5.17.32.72h0a5.08,5.08,0,0,0,2.18,1.86,5.7,5.7,0,0,0,4.22.27l.48-.11c1.18-.27,2.2-.49,4.9-3.6,3.08-3.55,7.85-3.55,9-3.5a.79.79,0,0,1,.73.08.79.79,0,0,1,.21,1.09,5,5,0,0,0-.72,2.77,3.88,3.88,0,0,0,1.92,3,4.48,4.48,0,0,0,2.44.43.79.79,0,1,1,0,1.57,6,6,0,0,1-3.35-.72,5.46,5.46,0,0,1-2.58-4.13,6,6,0,0,1,.37-2.48,9.65,9.65,0,0,0-6.81,2.95c-3,3.5-4.36,3.79-5.75,4.1l-.44.1a7.21,7.21,0,0,1-5.35-.4,7.89,7.89,0,0,1-2.44-1.94l-9.79,4.38,0,79.76A.79.79,0,0,1,32.06,153.67Z"/><path class="cls-2" d="M127.88,109.36c.17,0,.33-.17.49-.52l3.19-7a5.33,5.33,0,0,0,.57-2,2.21,2.21,0,0,0-1.93-2.22c-.74-.17-1.12-.44-1.12-.78s.22-.59.67-.59a9.73,9.73,0,0,1,1.06.07,15.48,15.48,0,0,0,1.66.08c.76,0,1.48,0,2.15-.08s1.11-.07,1.27-.07c.4,0,.6.18.6.55a1,1,0,0,1-.52.82,7.92,7.92,0,0,0-2.78,3.64l-4.1,9.48a5.57,5.57,0,0,0-.4,2.24v5.93c0,1.44.27,2.34.82,2.7a4.52,4.52,0,0,0,2.2.6q.81,0,.81.75a.58.58,0,0,1-.18.47,1,1,0,0,1-.64.16c-.22,0-.72,0-1.5-.08s-1.85-.07-3.24-.07c-1.24,0-2.18,0-2.83.07s-1.21.08-1.7.08a2.69,2.69,0,0,1-.65-.08c-.2,0-.31-.24-.31-.55a.57.57,0,0,1,.19-.46,2,2,0,0,1,.77-.29c1.62-.32,2.43-1.53,2.43-3.61v-4.89a6.07,6.07,0,0,0-.47-2.42l-4.9-11.4a4,4,0,0,0-2.41-2.27c-.51-.19-.76-.46-.76-.82s.32-.55,1-.55c.16,0,.58,0,1.25.07s1.36.08,2.06.08c1.21,0,2.14,0,2.8-.06l1.49-.09c.31,0,.46.17.46.51a.58.58,0,0,1-.34.5,4.3,4.3,0,0,1-.71.36,1.44,1.44,0,0,0-.48.36,1.06,1.06,0,0,0-.19.74,5.64,5.64,0,0,0,.5,1.9l2.93,7.42c.35.9.63,1.35.82,1.35"/><path class="cls-2" d="M142.29,105.23c-.12,0-.19.53-.21,1.6l-.27,9.17q0,1,0,1.44a6.77,6.77,0,0,0,.63,3.45,3.28,3.28,0,0,0,2,1.29.71.71,0,0,1,.57.78q0,.6-.84.6l-1.2-.08c-.66,0-1.31-.07-1.95-.07a18.87,18.87,0,0,0-2.09.07,6.35,6.35,0,0,1-.91.08c-.41,0-.62-.17-.62-.51a.94.94,0,0,1,.67-.87,3.06,3.06,0,0,0,1.49-1.33,6.32,6.32,0,0,0,.53-2.6l.35-12.77c.05-1.5.08-2.43.08-2.81a7,7,0,0,0-.64-3.48,4,4,0,0,0-2-1.6.74.74,0,0,1-.5-.78.82.82,0,0,1,.09-.42.32.32,0,0,1,.3-.17c.17,0,.47,0,.92.07s.75.08.92.08c.36,0,.86,0,1.5-.08s1.1-.07,1.36-.07a.79.79,0,0,1,.71.3,5.84,5.84,0,0,1,.53,1.13L150.45,116c.13.35.25.52.36.52s.29-.18.44-.56l7.31-18.77a4.5,4.5,0,0,1,.38-.79.68.68,0,0,1,.58-.2c.08,0,.31,0,.69.07a7.88,7.88,0,0,0,1,.08c.2,0,.53,0,1-.08a9.79,9.79,0,0,1,1-.07c.61,0,.92.18.92.55a.78.78,0,0,1-.66.82,2.79,2.79,0,0,0-1.79,1,4.7,4.7,0,0,0-.51,2.53s0,.72.06,2l.48,14.43a8.66,8.66,0,0,0,.51,3.3,2.5,2.5,0,0,0,1.69,1.29,2.07,2.07,0,0,1,.67.29c.12.07.18.24.18.49a.6.6,0,0,1-.16.42c-.1.12-.44.18-1,.18a9.23,9.23,0,0,1-1.13-.08,16.75,16.75,0,0,0-1.89-.07c-1.06,0-1.85,0-2.36.07s-1,.08-1.39.08c-.79,0-1.18-.19-1.18-.56a.8.8,0,0,1,.12-.47,1.29,1.29,0,0,1,.44-.35,2.63,2.63,0,0,0,1.26-1A4.52,4.52,0,0,0,158,119c0-.27-.07-1.28-.13-3l-.4-9.08c0-1.11-.11-1.67-.21-1.67s-.3.37-.58,1.09l-6.23,16c-.34,1-.64,1.42-.89,1.42a.63.63,0,0,1-.49-.35,12.64,12.64,0,0,1-.68-1.6l-5.56-15.43a3.47,3.47,0,0,0-.5-1.09"/><path class="cls-2" d="M172.36,106.34a2.87,2.87,0,0,0,.21,1.42c.14.19.5.29,1.08.29h1.89a2.18,2.18,0,0,0,2-1,11.65,11.65,0,0,0,1.06-2q.24-.57.48-.57c.35,0,.55.63.6,1.87l.15,4.6.09,2c0,.84-.19,1.26-.56,1.26a.48.48,0,0,1-.52-.47,5.71,5.71,0,0,0-.92-2.53,2.21,2.21,0,0,0-1.94-1.07h-2.28c-.56,0-.91.1-1.06.32a1.89,1.89,0,0,0-.23,1.09v6.72a5.31,5.31,0,0,0,.44,2.74,2.74,2.74,0,0,0,2.07.56,10.55,10.55,0,0,0,4.17-.81,6.7,6.7,0,0,0,3.19-3.54c.24-.5.49-.75.74-.75s.34.31.34.92a7.71,7.71,0,0,1-1.25,4.22,3.76,3.76,0,0,1-3.25,1.93c-1.71,0-3.41,0-5.13-.07l-2.9-.08-1.69.07c-1,0-1.79.08-2.34.08a1.15,1.15,0,0,1-.44-.08q-.18-.08-.18-.48a.74.74,0,0,1,.14-.44,1.22,1.22,0,0,1,.61-.38c1.1-.35,1.65-1.55,1.65-3.61v-18a2.57,2.57,0,0,0-.59-1.88,5.49,5.49,0,0,0-2.38-1.13.68.68,0,0,1-.56-.74c0-.42.28-.63.85-.63l2.83.07c1.7,0,3.23.08,4.59.08,1,0,2.31,0,4-.07s2.78-.08,3.37-.08a1.26,1.26,0,0,1,.79.17c.15.11.23.39.26.84l.14,3.43c0,.38,0,.61,0,.67,0,.72-.18,1.07-.54,1.07s-.62-.35-.68-1.07a3.11,3.11,0,0,0-1.32-2.62,7.47,7.47,0,0,0-3.67-.68c-1.56,0-2.49.14-2.8.42s-.46,1-.46,2.29v5.6"/><path class="cls-2" d="M207.1,122.93c0,.29-.07.47-.21.53a2.31,2.31,0,0,1-.82.1c-.31,0-.91,0-1.8-.08s-1.62-.07-2.22-.07-1.19,0-2.05.07-1.38.08-1.58.08a1.52,1.52,0,0,1-.68-.1.36.36,0,0,1-.16-.34.77.77,0,0,1,.25-.54,4.53,4.53,0,0,1,.53-.4,7.18,7.18,0,0,0,.88-.62,1.9,1.9,0,0,0,.56-1.57,11.2,11.2,0,0,0-.78-3.08,16.29,16.29,0,0,0-1-2.33,1,1,0,0,0-.87-.45h-5.95a1.35,1.35,0,0,0-1.14.39,4.81,4.81,0,0,0-.52,1,14,14,0,0,0-.68,2.17,10.31,10.31,0,0,0-.41,2.15c0,1.08.72,1.87,2.15,2.37.79.3,1.19.56,1.19.78q0,.6-.84.6c-.43,0-1.07,0-1.91-.08s-1.4-.07-1.7-.07-.91,0-1.54.07-1,.08-1.29.08c-.61,0-.92-.14-.92-.4a.63.63,0,0,1,.26-.56q.27-.16.63-.42a3.94,3.94,0,0,0,1.53-2l8.28-23c.11-.31.22-.64.36-1s.3-.54.52-.54.28.16.4.47l.54,1.37L204,119.29a10.79,10.79,0,0,0,1,2.2,2,2,0,0,0,1.38.69c.5.13.74.38.74.75m-13.1-20c-.14,0-.37.49-.68,1.47l-2.23,6.35a3.56,3.56,0,0,0-.15.94q0,.36.72.36h4.87c.48,0,.72-.1.72-.32a3.38,3.38,0,0,0-.23-1.11l-2.41-6.48C194.31,103.3,194.11,102.9,194,102.9Z"/><path class="cls-2" d="M230.12,108.93a15.53,15.53,0,0,1-3.55,10.56,10.78,10.78,0,0,1-8.37,4.07c-1.09,0-2.34,0-3.76-.07l-2.26-.08c-.21,0-.69,0-1.44.07s-1.38.08-1.92.08-.83-.19-.83-.55a.61.61,0,0,1,.19-.5,2.76,2.76,0,0,1,.49-.28,2.25,2.25,0,0,0,1.82-2.7V100.9a3,3,0,0,0-.64-2.2,5.94,5.94,0,0,0-2.09-1.11c-.44-.15-.66-.4-.66-.74a.56.56,0,0,1,.63-.63l1.35.07c.9,0,1.82.08,2.75.08.6,0,1.43,0,2.5-.07s1.85-.08,2.36-.08q13.42,0,13.43,12.71m-4,1.24a14.72,14.72,0,0,0-2.6-9.07A7.88,7.88,0,0,0,217,97.64c-1.1,0-1.81.23-2.14.7a5.45,5.45,0,0,0-.5,2.91v17.88q0,3,3.52,3a7,7,0,0,0,6.09-3.13Q226.15,115.84,226.15,110.17Z"/><path class="cls-2" d="M118.41,122.93c0,.29-.08.47-.22.53a2.27,2.27,0,0,1-.82.1c-.31,0-.91,0-1.79-.08s-1.63-.07-2.22-.07-1.2,0-2.06.07-1.38.08-1.58.08a1.55,1.55,0,0,1-.68-.1.38.38,0,0,1-.16-.34.81.81,0,0,1,.25-.54,5.58,5.58,0,0,1,.53-.4,6.49,6.49,0,0,0,.88-.62,1.9,1.9,0,0,0,.56-1.57,11.45,11.45,0,0,0-.77-3.08,17.22,17.22,0,0,0-1-2.33,1,1,0,0,0-.87-.45h-6a1.35,1.35,0,0,0-1.14.39,5.37,5.37,0,0,0-.52,1,14,14,0,0,0-.68,2.17,10.31,10.31,0,0,0-.41,2.15q0,1.62,2.16,2.37c.79.3,1.18.56,1.18.78,0,.4-.28.6-.83.6s-1.08,0-1.92-.08-1.4-.07-1.7-.07-.91,0-1.54.07-1.05.08-1.29.08c-.61,0-.91-.14-.91-.4a.63.63,0,0,1,.25-.56c.19-.11.39-.25.63-.42a3.89,3.89,0,0,0,1.53-2l8.28-23,.36-1c.13-.36.31-.54.52-.54s.28.16.4.47.3.76.54,1.37l7.83,21.82a11.39,11.39,0,0,0,1,2.2,2,2,0,0,0,1.38.69q.75.19.75.75m-13.1-20q-.23,0-.69,1.47l-2.22,6.35a3.24,3.24,0,0,0-.16.94q0,.36.72.36h4.87c.48,0,.72-.1.72-.32a3.38,3.38,0,0,0-.23-1.11l-2.41-6.48C105.61,103.3,105.41,102.9,105.31,102.9Z"/><line class="cls-2" x1="107.6" y1="88.26" x2="233.23" y2="88.42"/><polygon class="cls-2" points="107.63 134.71 107.63 133.14 232.42 132.98 232.43 89.2 107.6 89.05 107.6 87.48 234 87.63 233.99 134.54 233.17 134.55 107.63 134.71"/><path class="cls-2" d="M47.66,102.1c-.3,0-.47,1.32-.51,4L46.51,129c0,1.66-.07,2.86-.07,3.61,0,4.12.49,7,1.49,8.61a7.63,7.63,0,0,0,4.75,3.23,1.71,1.71,0,0,1,1.32,1.9c0,1-.66,1.44-2,1.44-.31,0-1.24-.07-2.81-.2s-3-.19-4.54-.19a38.85,38.85,0,0,0-4.87.19,13.72,13.72,0,0,1-2.13.2c-1,0-1.46-.43-1.46-1.28a2.22,2.22,0,0,1,1.56-2.06,7.34,7.34,0,0,0,3.49-3.32,16.7,16.7,0,0,0,1.24-6.51l.82-31.9c.12-3.74.18-6.09.18-7,0-4.06-.5-7-1.49-8.71a9.39,9.39,0,0,0-4.73-4,1.83,1.83,0,0,1-1.17-1.9,2.09,2.09,0,0,1,.21-1,.74.74,0,0,1,.71-.41,20.69,20.69,0,0,1,2.14.19,21,21,0,0,0,2.17.2c.82,0,2-.07,3.51-.2s2.58-.19,3.17-.19a1.81,1.81,0,0,1,1.67.75A14.89,14.89,0,0,1,51,83.19l15.81,45.74c.29.88.57,1.31.83,1.31s.68-.47,1-1.4l17-46.72a11.38,11.38,0,0,1,.89-2,1.5,1.5,0,0,1,1.35-.51c.19,0,.73.06,1.61.19a16.51,16.51,0,0,0,2.41.2,22.09,22.09,0,0,0,2.32-.2,21.28,21.28,0,0,1,2.34-.19c1.43,0,2.14.44,2.14,1.34a1.88,1.88,0,0,1-1.52,2A6.41,6.41,0,0,0,93,85.55c-.78,1.25-1.16,3.36-1.16,6.32,0,.13,0,1.8.14,5L93.08,133q.11,5.85,1.21,8.24a5.92,5.92,0,0,0,3.95,3.23,5.05,5.05,0,0,1,1.56.7c.29.18.43.59.43,1.2a1.55,1.55,0,0,1-.39,1c-.24.28-1,.42-2.35.42a18.89,18.89,0,0,1-2.63-.2,35,35,0,0,0-4.41-.19c-2.49,0-4.33.06-5.51.19a30.17,30.17,0,0,1-3.24.2c-1.85,0-2.77-.45-2.77-1.34a2,2,0,0,1,.28-1.16,3.09,3.09,0,0,1,1-.84,6.27,6.27,0,0,0,2.92-2.48,11.79,11.79,0,0,0,1.1-5.48c-.07-.68-.18-3.2-.32-7.53L83,106.26c-.1-2.77-.27-4.16-.51-4.16s-.73.9-1.39,2.71L66.66,144.5c-.82,2.37-1.51,3.55-2.08,3.55-.41,0-.79-.29-1.15-.88a30.72,30.72,0,0,1-1.58-4l-13-38.38c-.65-1.81-1.05-2.71-1.19-2.71"/><path class="cls-2" d="M76.32,168.69h-.1c-4.39,0-6.13-1.49-6.81-2.52-.68,1-2.42,2.48-6.81,2.52h-.1c-5.21,0-8.78-3.95-11.92-7.44-3.35-3.71-6.24-6.91-10.38-5.35h0a11.73,11.73,0,0,1-3.26.91c-3.34.74-5.14-2.1-5.62-3.7a.78.78,0,1,1,1.5-.45c0,.13,1,3.24,3.78,2.62a25.54,25.54,0,0,0,2.66-.66.85.85,0,0,1,.22-.09,1,1,0,0,1,.17-.1c5.15-1.93,8.68,2,12.1,5.77,3.07,3.4,6.25,6.92,10.76,6.92h.09c5.22-.05,5.7-2.18,5.7-2.2a.8.8,0,0,1,.9-.64.86.86,0,0,1,.21.07.67.67,0,0,1,.25-.08.77.77,0,0,1,.88.65c0,.08.56,2.15,5.7,2.2h.09c4.51,0,7.69-3.52,10.76-6.92,3.41-3.79,7-7.7,12.1-5.77a1,1,0,0,1,.17.1.85.85,0,0,1,.22.09,25.54,25.54,0,0,0,2.66.66c2.51.56,3.55-2,3.74-2.52V124.25a.78.78,0,0,1,.78-.79h0a.79.79,0,0,1,.79.79V153a.74.74,0,0,1,0,.14c-.48,1.6-2.28,4.42-5.61,3.68a12.15,12.15,0,0,1-3.26-.91h0c-4.14-1.56-7,1.64-10.38,5.35C85.1,164.74,81.53,168.69,76.32,168.69Zm30.41-74.63a.79.79,0,0,1-.79-.79V73.12l-9.79-4.38a7.89,7.89,0,0,1-2.44,1.94,7.21,7.21,0,0,1-5.35.4l-.44-.1c-1.39-.31-2.71-.6-5.75-4.1a9.65,9.65,0,0,0-6.81-2.95,6,6,0,0,1,.37,2.48,5.46,5.46,0,0,1-2.58,4.13,6,6,0,0,1-3.35.72.79.79,0,1,1,0-1.57,4.33,4.33,0,0,0,2.44-.44,3.85,3.85,0,0,0,1.92-3,5,5,0,0,0-.72-2.77.79.79,0,0,1,.22-1.09.77.77,0,0,1,.72-.08c1.13-.05,5.9-.05,9,3.5,2.7,3.11,3.72,3.33,4.9,3.6l.48.11A5.7,5.7,0,0,0,93,69.29a5.14,5.14,0,0,0,2.19-1.87l.33-.69.7.3L107,71.88a.82.82,0,0,1,.47.69,1.25,1.25,0,0,1,0,.21V93.27a.78.78,0,0,1-.78.79Z"/></g></g></svg>