<svg id="Desktop" xmlns="http://www.w3.org/2000/svg" viewBox="0 0 250 211.62"><defs><style>.cls-1{fill:#fff;}.cls-2{fill:#002a3a;}</style></defs><rect class="cls-1" width="250" height="211.62"/><g id="Logos"><g id="jps_plumbing" data-name="jps plumbing"><path class="cls-2" d="M118,88.19h1.1a.37.37,0,0,1,.38.37v13.13a.37.37,0,0,0,.37.38h6.39a.36.36,0,0,1,.37.37v1a.36.36,0,0,1-.37.37H118a.36.36,0,0,1-.37-.37V88.56A.36.36,0,0,1,118,88.19Z"/><path class="cls-2" d="M139.88,97.44a9.07,9.07,0,0,1-.32,2.42,5.57,5.57,0,0,1-1,2,5,5,0,0,1-1.82,1.39,7.59,7.59,0,0,1-5.47,0,4.9,4.9,0,0,1-1.81-1.39,5.58,5.58,0,0,1-1-2,9.07,9.07,0,0,1-.32-2.42V88.62a.44.44,0,0,1,.44-.43h1a.43.43,0,0,1,.43.43v8.55a8.34,8.34,0,0,0,.2,1.83,4.51,4.51,0,0,0,.66,1.57,3.37,3.37,0,0,0,1.24,1.09,4.77,4.77,0,0,0,3.87,0,3.37,3.37,0,0,0,1.24-1.09,4.51,4.51,0,0,0,.66-1.57,8.34,8.34,0,0,0,.2-1.83V88.62a.43.43,0,0,1,.43-.43h1a.44.44,0,0,1,.44.43Z"/><path class="cls-2" d="M143.61,88.19h2a.42.42,0,0,1,.39.25l5.18,12h0l5.22-12a.41.41,0,0,1,.39-.25h2a.42.42,0,0,1,.42.42v14.75a.42.42,0,0,1-.42.42h-1a.42.42,0,0,1-.43-.42V90.7h0l-5.49,12.83a.42.42,0,0,1-.39.25H151a.43.43,0,0,1-.39-.25L145.08,90.7h0v12.66a.42.42,0,0,1-.42.42h-1a.42.42,0,0,1-.42-.42V88.61A.42.42,0,0,1,143.61,88.19Z"/><path class="cls-2" d="M176.49,88.19h1a.44.44,0,0,1,.45.44v14.71a.44.44,0,0,1-.45.44h-1a.43.43,0,0,1-.44-.44V88.63A.43.43,0,0,1,176.49,88.19Z"/><path class="cls-2" d="M181.7,88.19h1.68a.43.43,0,0,1,.36.18l8.9,12.77h.05V88.61a.42.42,0,0,1,.42-.42h1a.43.43,0,0,1,.43.42v14.75a.43.43,0,0,1-.43.42h-1.69a.41.41,0,0,1-.35-.18l-8.9-12.77h0v12.53a.42.42,0,0,1-.42.42h-1a.42.42,0,0,1-.43-.42V88.61A.42.42,0,0,1,181.7,88.19Z"/><path class="cls-2" d="M211.17,102.46a.44.44,0,0,1-.23.39,11,11,0,0,1-2.6,1,13.22,13.22,0,0,1-3,.35,9.24,9.24,0,0,1-3.35-.59,7.94,7.94,0,0,1-2.64-1.68,7.65,7.65,0,0,1-1.73-2.59A8.75,8.75,0,0,1,197,96a8.32,8.32,0,0,1,.65-3.36,7.57,7.57,0,0,1,1.79-2.57,8.37,8.37,0,0,1,2.67-1.67,9.06,9.06,0,0,1,3.28-.59,9.51,9.51,0,0,1,3,.46,6.26,6.26,0,0,1,2.2,1.27.45.45,0,0,1,0,.64l-.76.8a.44.44,0,0,1-.63,0,5.35,5.35,0,0,0-1.62-1,6,6,0,0,0-2.32-.46,6.35,6.35,0,0,0-2.49.48,6.14,6.14,0,0,0-3.32,3.39A7.11,7.11,0,0,0,199,96a7,7,0,0,0,.47,2.58,6.15,6.15,0,0,0,1.33,2.06,6,6,0,0,0,2,1.36,7,7,0,0,0,2.63.48,9.34,9.34,0,0,0,2-.23,7.53,7.53,0,0,0,1.64-.55.43.43,0,0,0,.25-.4v-4.5h-3.14a.45.45,0,0,1-.45-.45v-.82a.45.45,0,0,1,.45-.45h4.55a.45.45,0,0,1,.44.45Z"/><path class="cls-2" d="M122.11,107.81h1a.44.44,0,0,1,.44.44v6.17h8.33v-6.17a.43.43,0,0,1,.43-.44h1a.44.44,0,0,1,.44.44V123a.44.44,0,0,1-.44.44h-1a.44.44,0,0,1-.43-.44v-6.83h-8.33V123a.44.44,0,0,1-.44.44h-1a.44.44,0,0,1-.43-.44V108.25A.43.43,0,0,1,122.11,107.81Z"/><path class="cls-2" d="M137.51,107.81h9a.43.43,0,0,1,.43.43v.86a.43.43,0,0,1-.43.43h-7.53v4.89h7a.43.43,0,0,1,.43.43v.86a.43.43,0,0,1-.43.43h-7v5.55h7.93a.42.42,0,0,1,.42.43V123a.42.42,0,0,1-.42.43h-9.35a.43.43,0,0,1-.43-.43V108.24A.43.43,0,0,1,137.51,107.81Z"/><path class="cls-2" d="M155.49,107.81h1.18a.44.44,0,0,1,.4.26l6.27,14.75a.43.43,0,0,1-.4.59h-1.23a.44.44,0,0,1-.39-.26L160,119.84a.43.43,0,0,0-.39-.27h-7.23a.44.44,0,0,0-.4.27l-1.39,3.31a.41.41,0,0,1-.39.26H149a.43.43,0,0,1-.39-.6l6.5-14.75A.43.43,0,0,1,155.49,107.81Zm.56,2.38h0l-3.24,7.67h6.37Z"/><path class="cls-2" d="M173.4,109.53h-4.71V123a.44.44,0,0,1-.44.44h-1a.44.44,0,0,1-.44-.44V109.53h-4.71a.45.45,0,0,1-.45-.44v-.84a.45.45,0,0,1,.45-.44H173.4a.45.45,0,0,1,.45.44v.84A.45.45,0,0,1,173.4,109.53Z"/><path class="cls-2" d="M176.44,107.81h1a.42.42,0,0,1,.42.41V123a.42.42,0,0,1-.42.42h-1A.41.41,0,0,1,176,123V108.22A.41.41,0,0,1,176.44,107.81Z"/><path class="cls-2" d="M181.68,107.81h1.68a.45.45,0,0,1,.36.18l8.9,12.77h0V108.24a.43.43,0,0,1,.43-.43h1a.44.44,0,0,1,.44.43V123a.44.44,0,0,1-.44.43h-1.67a.42.42,0,0,1-.36-.19l-8.9-12.77h-.05V123a.43.43,0,0,1-.43.43h-1a.44.44,0,0,1-.43-.43V108.24A.43.43,0,0,1,181.68,107.81Z"/><path class="cls-2" d="M211.15,122.1a.41.41,0,0,1-.22.37,10.69,10.69,0,0,1-2.61,1,12.68,12.68,0,0,1-3,.35,9,9,0,0,1-3.35-.59,7.92,7.92,0,0,1-2.64-1.67A7.75,7.75,0,0,1,197.6,119a8.79,8.79,0,0,1-.61-3.34,8.32,8.32,0,0,1,.65-3.36,7.52,7.52,0,0,1,1.79-2.58A8.34,8.34,0,0,1,202.1,108a8.85,8.85,0,0,1,3.28-.6,9.52,9.52,0,0,1,3,.47,6.09,6.09,0,0,1,2.21,1.28.41.41,0,0,1,0,.61l-.79.83a.41.41,0,0,1-.59,0,5.63,5.63,0,0,0-1.64-1,6.33,6.33,0,0,0-4.81,0,6.05,6.05,0,0,0-3.32,3.39,7.37,7.37,0,0,0,0,5.18,6.25,6.25,0,0,0,1.33,2.06,5.82,5.82,0,0,0,2,1.35,7,7,0,0,0,2.63.49,8.77,8.77,0,0,0,2-.24,7.61,7.61,0,0,0,1.65-.55.42.42,0,0,0,.24-.38V116.4h-3.16a.42.42,0,0,1-.43-.42v-.87a.43.43,0,0,1,.43-.43h4.59a.42.42,0,0,1,.42.43Z"/><path class="cls-2" d="M114.74,90.42a3.58,3.58,0,0,0-1.21-1.32,5.19,5.19,0,0,0-1.74-.71,10.51,10.51,0,0,0-2.06-.2h-5.55a.63.63,0,0,0-.63.63v.45a.63.63,0,0,0,.63.63h5.9a3.76,3.76,0,0,1,2.26.63,2.62,2.62,0,0,1,0,3.9,3.76,3.76,0,0,1-2.26.63H107V90.73H105.1v12.7a.36.36,0,0,0,.36.35h1.14a.35.35,0,0,0,.35-.35V96.78h3.13a8.12,8.12,0,0,0,1.72-.2,5.06,5.06,0,0,0,1.66-.68,3.81,3.81,0,0,0,1.25-1.33,4.17,4.17,0,0,0,.48-2.11A4.22,4.22,0,0,0,114.74,90.42Z"/><path class="cls-2" d="M173.13,98a3.66,3.66,0,0,0-.73-1.18,3.94,3.94,0,0,0-1.13-.83,3.88,3.88,0,0,0-1.4-.38v0a4.06,4.06,0,0,0,2-1.26,3.45,3.45,0,0,0,.74-2.26,3.4,3.4,0,0,0-.46-1.81A3.6,3.6,0,0,0,171,89a5.27,5.27,0,0,0-1.65-.65,9.11,9.11,0,0,0-1.89-.19h-5.69a.63.63,0,0,0-.63.63v.45a.63.63,0,0,0,.63.63h5.53a8.5,8.5,0,0,1,1.23.1,3.36,3.36,0,0,1,1.08.37,2.15,2.15,0,0,1,.76.71,2.19,2.19,0,0,1,.28,1.18,2.42,2.42,0,0,1-.31,1.31,2.07,2.07,0,0,1-.81.77,3.25,3.25,0,0,1-1.14.37,8.89,8.89,0,0,1-1.28.08h-2.56V90.73h-1.85v13h4.65a12.32,12.32,0,0,0,2.17-.19,6.43,6.43,0,0,0,2-.7,4,4,0,0,0,1.41-1.33,3.88,3.88,0,0,0,.54-2.14A3.84,3.84,0,0,0,173.13,98Zm-2,2.64a2.5,2.5,0,0,1-.87.84,3.9,3.9,0,0,1-1.21.46,6.21,6.21,0,0,1-1.35.15h-3.13V96.51h3.17a7,7,0,0,1,1.38.14,3.29,3.29,0,0,1,1.19.46,2.63,2.63,0,0,1,.84.88,2.72,2.72,0,0,1,.32,1.37A2.2,2.2,0,0,1,171.08,100.62Z"/><path class="cls-2" d="M117.33,114.43H114a.34.34,0,0,0-.34.34v.54a.34.34,0,0,0,.34.33h.77l-1.92,3.23-5.18-5.39-.05,0a8,8,0,0,1-.77-1,2.24,2.24,0,0,1-.38-1.28,2.14,2.14,0,0,1,.75-1.72,2.62,2.62,0,0,1,1.75-.62,2.39,2.39,0,0,1,1.56.54,1.86,1.86,0,0,1,.33.36.44.44,0,0,0,.76-.08l.18-.4a.45.45,0,0,0-.09-.49,2.09,2.09,0,0,0-.22-.2,3.89,3.89,0,0,0-1.16-.61,5.15,5.15,0,0,0-1.43-.2,4.65,4.65,0,0,0-1.46.22,3.44,3.44,0,0,0-1.2.63,3.08,3.08,0,0,0-.81,1,3.22,3.22,0,0,0-.31,1.42,3.44,3.44,0,0,0,.51,1.85,10,10,0,0,0,1.29,1.59l.26.25-.33.15a11.81,11.81,0,0,0-1.3.74,5.64,5.64,0,0,0-1,1,4.58,4.58,0,0,0-.71,1.19,3.8,3.8,0,0,0-.25,1.41,4,4,0,0,0,.38,1.77,3.93,3.93,0,0,0,1,1.32,4.42,4.42,0,0,0,1.49.83,6,6,0,0,0,1.81.28,4.76,4.76,0,0,0,2.51-.62,7.79,7.79,0,0,0,2-1.8l.19-.23,2.5,2.64a.18.18,0,0,0,.12,0h1.35a.16.16,0,0,0,.16-.1.17.17,0,0,0,0-.19l-3.32-3.38,2.59-4.15h1.06a.34.34,0,0,0,.34-.33v-.54A.34.34,0,0,0,117.33,114.43ZM112,120.09c-.25.3-.51.58-.77.84a6.15,6.15,0,0,1-.85.71,4.49,4.49,0,0,1-1,.51,3.48,3.48,0,0,1-1.18.19,3.38,3.38,0,0,1-1.27-.24,3.3,3.3,0,0,1-1-.67,3.09,3.09,0,0,1-.71-1,3,3,0,0,1-.27-1.27,2.82,2.82,0,0,1,.27-1.24,3.3,3.3,0,0,1,.69-1,5.67,5.67,0,0,1,.92-.75,11.65,11.65,0,0,1,1-.6l.17-.08,4.19,4.4Z"/><path class="cls-2" d="M90.57,106.14a3,3,0,0,0,2.38-1,4.42,4.42,0,0,0,.79-4.76,3.25,3.25,0,0,0-3-1.7,33.62,33.62,0,0,0-2.06-6.32,12.68,12.68,0,0,0-.1-9.4,9.28,9.28,0,0,0-3.09-3.84h0c-3.21-2.37-7.71-2-9.78-1.64A33.22,33.22,0,0,0,27.78,119l-.6,1.3c-.11.23-2.57,5.7.47,10.38a10.1,10.1,0,0,0,6.59,4.08h0a15.05,15.05,0,0,0,7.35-.24,33.22,33.22,0,0,0,47.24-15.7C94.1,116.78,96.26,109.89,90.57,106.14ZM88.3,95.33c.72.43.58,1.68,0,2.78s-2.36,2.48-2.93,2.28-.27-.71.24-1.07.7-.58.76-.9a1.44,1.44,0,0,1-.64-1.85A2,2,0,0,1,88.3,95.33Zm-52.41,38a9.33,9.33,0,0,1-7.28-3.82c-2.81-4.34-.41-9.57-.41-9.57s2.63,5.14,5.7,5.65c3.5.59,5.6-1.65,6.4-5.14.15-.61,5.91-29.39,5.91-29.39L33.79,92.38a1.53,1.53,0,0,1-1.66-1.24c-.1-.41.38-.49.38-.49L56,83.85s-6.25,33.42-6.39,34C47,131.14,41.23,133.29,35.89,133.28Zm38.61-31c-.61.21-1.22.4-1.81.58L65,105.33c-1.14,6.5-2.4,14.46-2.55,15.37-.41,2.5-2.18,4.11-5,4.73h0c-5,1-4.06-3.54-4.06-3.54L58.8,90.7s8.85-2,9.2-2.07c-.48,2.69-1.71,9.49-2.34,13.06l6.72-2.39a16.13,16.13,0,0,0,2.76-1.4,2.9,2.9,0,0,0,.29-.19,9.29,9.29,0,0,0,.91-.72h0l.13-.12s0,0,0,0c4.38-4.26,4.36-12.67-.65-12l-1,.14L56.21,89.16l1.07-5.68L71.5,79.31h0c1.42-.42,2.46-.71,2.81-.78h0c5-1.14,8.12,0,9,.65a8.54,8.54,0,0,1,3.74,7.55,15.55,15.55,0,0,1-3.61,9.57A17.75,17.75,0,0,1,74.5,102.32Zm18.17,9.51c-.25,2.54-3.64,5.44-7.3,5s-3.15-4.38-2.58-5.49,2-1.32,1.8,0c-.46,2.54,2.42,4,3.91,1.91,1.18-1.67-.77-2.31-2.75-5.18s.29-5.88,2.11-7.26S93,99,93.1,101.83c.07,2-2,3.06-1.87,2.65a3.15,3.15,0,0,0,.15-1.56c-.13-.94-1.28-.82-2.35-.11s-1.34,2,.89,3.84S92.89,109.62,92.67,111.83Z"/></g></g></svg>