<svg id="Desktop" xmlns="http://www.w3.org/2000/svg" xmlns:xlink="http://www.w3.org/1999/xlink" viewBox="0 0 250 211.62"><defs><style>.cls-1{fill:none;}.cls-2{fill:#fff;}.cls-3,.cls-4{fill:#002a3a;}.cls-4{fill-rule:evenodd;}.cls-5{clip-path:url(#clip-path);}.cls-6{fill:url(#linear-gradient);}.cls-7{clip-path:url(#clip-path-2);}.cls-8{fill:url(#linear-gradient-2);}.cls-9{clip-path:url(#clip-path-3);}.cls-10{fill:url(#linear-gradient-3);}.cls-11{clip-path:url(#clip-path-4);}.cls-12{fill:url(#linear-gradient-4);}.cls-13{clip-path:url(#clip-path-5);}.cls-14{fill:url(#linear-gradient-5);}.cls-15{clip-path:url(#clip-path-6);}.cls-16{fill:url(#linear-gradient-6);}.cls-17{clip-path:url(#clip-path-7);}.cls-18{fill:url(#linear-gradient-7);}.cls-19{clip-path:url(#clip-path-8);}.cls-20{fill:url(#linear-gradient-8);}.cls-21{clip-path:url(#clip-path-9);}.cls-22{fill:url(#linear-gradient-9);}.cls-23{clip-path:url(#clip-path-10);}.cls-24{fill:url(#linear-gradient-10);}</style><clipPath id="clip-path"><path class="cls-1" d="M72.85,73.18c-1.26,20.49,7.05,43.23,17.05,60.63,23.57-18.74,47.39-37.88,71-56.78a1.47,1.47,0,0,0,.1-.49c-.49.08-28.26-28.69-52.43-32.65C93.66,50,71.54,69,72.85,73.18"/></clipPath><linearGradient id="linear-gradient" x1="-1793.23" y1="4737.59" x2="-1791.26" y2="4737.59" gradientTransform="matrix(46.33, 0, 0, -46.33, 83147.09, 219583.5)" gradientUnits="userSpaceOnUse"><stop offset="0" stop-color="#bdbebf"/><stop offset="0.12" stop-color="#b8babc"/><stop offset="0.27" stop-color="#aaafb1"/><stop offset="0.43" stop-color="#929ca1"/><stop offset="0.59" stop-color="#718289"/><stop offset="0.77" stop-color="#46616b"/><stop offset="0.94" stop-color="#133947"/><stop offset="1" stop-color="#002a3a"/></linearGradient><clipPath id="clip-path-2"><path class="cls-1" d="M72.55,72.69C71.28,93.17,80,115.92,90,133.32c23.57-18.74,47.39-37.88,71-56.78-14.33-14-32.17-29.19-52.33-33.14-14.88,6.15-37.4,25.15-36.09,29.29"/></clipPath><linearGradient id="linear-gradient-2" x1="-1794.61" y1="4737.85" x2="-1792.64" y2="4737.85" gradientTransform="matrix(46.99, 0, 0, -46.99, 84393.72, 222713.58)" gradientUnits="userSpaceOnUse"><stop offset="0" stop-color="#e7e7e7"/><stop offset="0.11" stop-color="#e2e3e3"/><stop offset="0.24" stop-color="#d3d7d8"/><stop offset="0.38" stop-color="#bbc3c6"/><stop offset="0.53" stop-color="#99a7ac"/><stop offset="0.69" stop-color="#6d838b"/><stop offset="0.85" stop-color="#385864"/><stop offset="1" stop-color="#002a3a"/></linearGradient><clipPath id="clip-path-3"><path class="cls-1" d="M86.93,85.8c2.91-3,6.11-6.07,9.25-8.84q3.67,5.94,7.53,11.75c-3.62,3.08-7.32,6.45-10.76,9.73-2.13-4.15-4.16-8.36-6-12.64m-5-13.4q3.42-3.68,7.15-7,1.8,3.28,3.71,6.49-4.3,3.84-8.29,8c-1-2.46-1.82-5-2.57-7.49m20.79-.83c3.64-2.86,7.67-5.74,11.53-8.3,3.47,3.09,6.86,6.29,10.18,9.55-4.37,3.06-8.92,6.4-13.11,9.71q-4.29-5.49-8.6-11M94.36,61c2.87-2.25,6.11-4.53,9.19-6.49,2,1.5,4,3.07,6,4.69-3.55,2.31-7.26,5-10.59,7.58L94.36,61M77,73c3.33,25.93,10.2,42,25.72,62.55,0,0,9-6.88,9-6.89a1.31,1.31,0,0,0,.23-.52c-2.94-3.1-7.71-9.24-14.09-20.12q5.72-5,11.58-9.89c8.67,13,5.35,8.53,14.85,21l5-3.86c2.51-1.94,5-3.87,5-3.87a1.08,1.08,0,0,0,.23-.51c-4.85-5.21-6.73-7.39-16.63-19.56q6.76-5.34,13.72-10.45c8.27,8.67,9.83,9.85,17.35,19.18,0,0,8.29-6.47,8.26-6.48a1.61,1.61,0,0,0,.23-.51C155,90.28,148,83,139.64,75.15c5.8-4,11.7-7.92,17.88-11.34a.93.93,0,0,0,.23-.51c-2.2-.91-5.55-3.58-8-5.29a134.15,134.15,0,0,0-18.1,9.93c-3.55-3-7.18-5.95-10.93-8.72A99.18,99.18,0,0,1,138.19,51a1.2,1.2,0,0,0,.23-.51,59.8,59.8,0,0,1-6.17-2.37,89.55,89.55,0,0,0-16.77,7.4c-2.2-1.46-4.45-2.85-6.77-4.11A79.92,79.92,0,0,1,124,45.05a1.45,1.45,0,0,0,.23-.52c-4.14-.87-3.36-.79-5-1.15-17,5.16-31,16-42.19,29.64"/></clipPath><linearGradient id="linear-gradient-3" x1="-1791.19" y1="4755.27" x2="-1789.22" y2="4755.27" gradientTransform="matrix(46.18, 0, 0, -46.18, 82792.14, 219701.58)" gradientUnits="userSpaceOnUse"><stop offset="0" stop-color="#cbcccc"/><stop offset="0.14" stop-color="#bebfbf"/><stop offset="0.41" stop-color="#9b9c9c"/><stop offset="0.76" stop-color="#646463"/><stop offset="1" stop-color="#3b3b3a"/></linearGradient><clipPath id="clip-path-4"><path class="cls-1" d="M86.93,85.39c2.91-3,5.95-5.87,9.08-8.63q3.69,5.92,7.53,11.75Q98.13,93.13,93,98c-2.13-4.15-4.16-8.35-6-12.64m-5-13.4q3-3.22,6.25-6.19c.3-.28,1.17-.33,1.31-.09q1.6,2.91,3.3,5.76-4.3,3.84-8.29,8c-1-2.47-1.82-5-2.57-7.5m20.79-.82Q108.19,66.86,114,63c3.47,3.1,6.85,6.3,10.17,9.56q-6.55,4.59-12.83,9.54l-8.6-11m-8.37-10.6a108.9,108.9,0,0,1,8.93-6.31c2,1.49,4,3.07,6,4.69-3.55,2.3-7,4.78-10.33,7.4l-4.57-5.78M77.25,72.51c3.32,25.93,10.19,42,25.71,62.55,0,0,9-6.88,9-6.89-7.8-10.06-7.41-9.66-13.85-20.64q5.7-5,11.58-9.89c8.67,13,5.34,8.53,14.84,21l5-3.85c2.51-1.94,5-3.87,5-3.87-9.89-12.33-6.43-7.81-16.41-20.07q6.77-5.34,13.72-10.45c8.28,8.67,9.84,9.84,17.35,19.18,0,0,8.3-6.47,8.26-6.48-7.31-9-9.16-10.48-17.58-18.43A210.37,210.37,0,0,1,157.75,63.3q-3.8-3-7.8-5.8a134.15,134.15,0,0,0-18.1,9.93c-3.54-3-7.17-6-10.92-8.72a99.08,99.08,0,0,1,17.49-8.18c-1.95-1-3.93-2-5.94-2.88a89.55,89.55,0,0,0-16.77,7.4c-2.2-1.46-4.45-2.85-6.77-4.11a80.6,80.6,0,0,1,15.28-6.41,21.68,21.68,0,0,0-4.79-1.66c-17,5.16-31,16-42.18,29.64"/></clipPath><linearGradient id="linear-gradient-4" x1="-1798.06" y1="4726.09" x2="-1796.09" y2="4726.09" gradientTransform="matrix(47.24, 0, 0, -47.24, 85002.8, 223328.39)" gradientUnits="userSpaceOnUse"><stop offset="0" stop-color="#f2f2f2"/><stop offset="0.51" stop-color="#dddede"/><stop offset="1" stop-color="#c5c6c6"/></linearGradient><clipPath id="clip-path-5"><path class="cls-1" d="M60.06,81.88c-1,2.22-1.48,3.28-2.54,5.69,11.88-1.22,34-.81,45.81,1.12a2,2,0,0,1,.22-.18C102,86.58,98.48,80.85,96,77H95c-9.07,0-27,1.87-35,4.9"/></clipPath><linearGradient id="linear-gradient-5" x1="-1800.01" y1="4937.65" x2="-1798.04" y2="4937.65" gradientTransform="matrix(23.13, 0, 0, -23.13, 41698.94, 114311.43)" gradientUnits="userSpaceOnUse"><stop offset="0" stop-color="#ececed"/><stop offset="0.11" stop-color="#e7e7e8"/><stop offset="0.24" stop-color="#d8d8d9"/><stop offset="0.38" stop-color="#c0c0c1"/><stop offset="0.52" stop-color="#9e9e9f"/><stop offset="0.68" stop-color="#727273"/><stop offset="0.84" stop-color="#3d3d3d"/><stop offset="1"/></linearGradient><clipPath id="clip-path-6"><path class="cls-1" d="M63.87,73.36c-1,2.26-1.18,2.79-2.31,5.13,14.66-9.07,47.41-7.14,62.32-5.71a2.31,2.31,0,0,1,.28-.19c-.66-.46-8.84-8.28-10.17-9.35h-.44c-13.12,0-37.65,2.19-49.68,10.12"/></clipPath><linearGradient id="linear-gradient-6" x1="-1825.49" y1="4887.89" x2="-1823.52" y2="4887.89" gradientTransform="matrix(31.9, 0, 0, -31.9, 58300.26, 156010.86)" xlink:href="#linear-gradient-5"/><clipPath id="clip-path-7"><path class="cls-1" d="M67.51,65.37c-.8,1.75-1.12,2.43-1.9,4.13,11.2-7,31.19-9.55,43.29-10.32l.36-.24c-1.18-.76-4.11-3.11-6-4.46-11.08,1.23-28.07,5.34-35.78,10.89"/></clipPath><linearGradient id="linear-gradient-7" x1="-1797.79" y1="4941.94" x2="-1795.82" y2="4941.94" gradientTransform="matrix(22.65, 0, 0, -22.65, 40779.2, 111981.18)" xlink:href="#linear-gradient-5"/><clipPath id="clip-path-8"><path class="cls-1" d="M60.06,81.66c-1,2.22-1.48,3.28-2.54,5.69,11.95-1.23,34.28-.81,46,1.15C101,84.64,98.48,80.63,96,76.77H95c-9.06,0-27,1.87-34.94,4.9"/></clipPath><linearGradient id="linear-gradient-8" x1="-1823.51" y1="4945.76" x2="-1821.54" y2="4945.76" gradientTransform="matrix(23.37, 0, 0, -23.37, 42663.85, 115640.42)" gradientUnits="userSpaceOnUse"><stop offset="0" stop-color="#f2f2f2"/><stop offset="1" stop-color="#e3e3e3"/></linearGradient><clipPath id="clip-path-9"><path class="cls-1" d="M63.87,73.14c-1,2.26-1.18,2.78-2.31,5.13,14.76-9.13,47.83-7.12,62.6-5.69,0-.27-8.84-8.5-10.17-9.56h-.46c-13.12,0-37.64,2.18-49.66,10.12"/></clipPath><linearGradient id="linear-gradient-9" x1="-1841.84" y1="4895.75" x2="-1839.87" y2="4895.75" gradientTransform="matrix(31.78, 0, 0, -31.78, 58592.06, 155648.66)" xlink:href="#linear-gradient-8"/><clipPath id="clip-path-10"><path class="cls-1" d="M67.51,65.15l-1.9,4.12c11.31-7.07,31.59-9.6,43.64-10.33-1.9-1.59-4.1-3.33-6-4.68C92.21,55.49,75.22,59.6,67.51,65.15"/></clipPath><linearGradient id="linear-gradient-10" x1="-1791.62" y1="4938.03" x2="-1789.65" y2="4938.03" gradientTransform="matrix(22.7, 0, 0, -22.7, 40740.73, 112172.2)" xlink:href="#linear-gradient-8"/></defs><rect class="cls-2" width="250" height="211.62"/><g id="Logos"><g id="Saertex"><path class="cls-3" d="M35,166.42l1-5a22.07,22.07,0,0,0,6.76,1.43c2.14,0,4.32-.68,4.32-3.22,0-3.93-8.72-5.33-8.72-11.19,0-3.36,2.82-8.44,10.51-8.44a26.86,26.86,0,0,1,7.55,1.18l-.9,4.54a21.85,21.85,0,0,0-6.54-1.43c-1.57,0-3.72.5-3.72,2.51,0,3.46,9.16,5.47,9.16,11.65,0,2.83-1.94,8.69-12.31,8.69a48.54,48.54,0,0,1-7.08-.75m19.1.11L68,140.67h6.87l5,25.86H73.26L72,160.05H62.46L59,166.53ZM64.68,156h6.54l-1.68-9h-.07Zm17.24,10.55,5.15-25.86h17.56l-.86,4.29H93.11l-1.28,6.3h8.54l-.75,3.86H91.11l-1.43,7.12H101.2l-.86,4.29Zm21.85,0,5.15-25.86h11.55c5.11,0,6.76,2.69,6.76,5.08,0,4-3.11,7.37-6.83,9l5,11.8h-7.22l-3.54-10.34h-2.36l-2.08,10.34Zm10.73-21.42L113,152.33h1.4a5.9,5.9,0,0,0,5.9-5.4c0-1.86-1.76-2-3.22-2-.86,0-1.79.08-2.61.15m19,21.42L137.85,145h-9.52l.86-4.29h25.86l-.86,4.29h-9.44l-4.33,21.57Zm18.34,0L157,140.67h17.56l-.86,4.29H163.05l-1.28,6.3h8.54l-.75,3.86h-8.51l-1.43,7.12h11.52l-.86,4.29Zm20.63,0,10.88-12.91-5.12-13h7.41l3.07,7.73,6.51-7.73h5.61l-10.33,12.27,5.4,13.59h-7.44l-3.25-8.37-7.12,8.37Z"/><path class="cls-4" d="M35,166.42a48.54,48.54,0,0,0,7.08.75c10.38,0,12.31-5.86,12.31-8.69,0-6.18-9.16-8.19-9.16-11.66,0-2,2.15-2.5,3.72-2.5a21.85,21.85,0,0,1,6.54,1.43l.9-4.54A26.86,26.86,0,0,0,48.83,140c-7.69,0-10.51,5.08-10.51,8.44,0,5.86,8.73,7.26,8.73,11.19,0,2.54-2.19,3.22-4.33,3.22A21.78,21.78,0,0,1,36,161.45Z"/><path class="cls-4" d="M54.09,166.53H59l3.47-6.47H72l1.25,6.47h6.58l-5-25.86H68ZM64.68,156l4.79-9h.07l1.68,9Z"/><polygon class="cls-4" points="81.92 166.53 100.34 166.53 101.2 162.24 89.68 162.24 91.11 155.12 99.62 155.12 100.37 151.26 91.83 151.26 93.11 144.96 103.77 144.96 104.63 140.67 87.07 140.67 81.92 166.53"/><path class="cls-4" d="M103.77,166.53h6.47l2.08-10.34h2.36l3.54,10.34h7.22l-5-11.8c3.72-1.61,6.83-5,6.83-9,0-2.39-1.65-5.08-6.76-5.08H108.92Zm10.73-21.42c.82-.07,1.75-.15,2.61-.15,1.46,0,3.22.11,3.22,2a5.9,5.9,0,0,1-5.9,5.4H113Z"/><polygon class="cls-4" points="133.52 166.53 140.42 166.53 144.75 144.96 154.19 144.96 155.05 140.67 129.19 140.67 128.33 144.96 137.85 144.96 133.52 166.53"/><polygon class="cls-4" points="151.86 166.53 170.28 166.53 171.14 162.24 159.62 162.24 161.05 155.12 169.56 155.12 170.31 151.26 161.77 151.26 163.06 144.96 173.71 144.96 174.57 140.67 157.01 140.67 151.86 166.53"/><polygon class="cls-4" points="172.49 166.53 178.11 166.53 185.23 158.16 188.48 166.53 195.92 166.53 190.52 152.94 200.85 140.67 195.24 140.67 188.73 148.4 185.66 140.67 178.25 140.67 183.37 153.62 172.49 166.53"/><g class="cls-5"><rect class="cls-6" x="64.22" y="37.01" width="104.08" height="103.68" transform="translate(8.57 187.91) rotate(-80)"/></g><g class="cls-7"><rect class="cls-8" x="64.04" y="36.37" width="104.13" height="103.98" transform="translate(8.93 187.35) rotate(-80)"/></g><g class="cls-9"><rect class="cls-10" x="60.26" y="35.78" width="114.25" height="107.41" transform="translate(-6.85 169.18) rotate(-70)"/></g><g class="cls-11"><rect class="cls-12" x="69.36" y="46.36" width="96.28" height="85.22" transform="translate(22.5 201.65) rotate(-87)"/></g><g class="cls-13"><rect class="cls-14" x="56.98" y="74.22" width="47.11" height="17.23" transform="translate(-9.5 10.43) rotate(-7)"/></g><g class="cls-15"><rect class="cls-16" x="60.87" y="59.48" width="63.98" height="22.76" transform="translate(-7.94 11.85) rotate(-7)"/></g><g class="cls-17"><rect class="cls-18" x="64.86" y="51.88" width="45.16" height="20.22" transform="translate(-6.9 11.12) rotate(-7)"/></g><g class="cls-19"><rect class="cls-20" x="57.52" y="76.76" width="46.03" height="11.74"/></g><g class="cls-21"><rect class="cls-22" x="61.56" y="63.02" width="62.6" height="15.25"/></g><g class="cls-23"><rect class="cls-24" x="64.7" y="50.93" width="45.46" height="21.66" transform="translate(-8.59 14.44) rotate(-9)"/></g></g></g></svg>