<svg id="Desktop" xmlns="http://www.w3.org/2000/svg" viewBox="0 0 273.28 417.81"><defs><style>.cls-1{fill:#002a3a;}.cls-2{fill:#fff;}</style></defs><path class="cls-1" d="M0,305.1c0-20,15.37-33.59,33.86-33.59s33.86,13.62,33.86,33.59-15.46,33.58-33.86,33.58S0,325.06,0,305.1Zm52.72,0c0-12.06-8.56-19.78-18.86-19.78S15,293,15,305.1s8.55,19.78,18.86,19.78S52.72,317.15,52.72,305.1Z"/><path class="cls-1" d="M67.34,271.51H83L95.25,313l12-37.44-1.39-4.09h14.53L133.65,313l12.2-41.53h15.71l-21,67.17H128.73l-14.28-42-14.19,42H88.43Z"/><path class="cls-1" d="M207.34,325v13.72H167.61V271.51h38.88v13.72H182.56V298.1h20.05v13.52H182.56V325Z"/><polygon class="cls-1" points="258.33 271.51 258.33 314.18 257.86 314.18 229.76 271.51 214.82 271.51 214.82 338.68 229.76 338.68 229.76 296.02 230.24 296.02 258.33 338.68 273.28 338.68 273.28 271.51 258.33 271.51"/><path class="cls-2" d="M0,409.65a8,8,0,0,1,7.82-8.17h.43a7.2,7.2,0,0,1,6.51,3.58l-2.55,1.77a4.56,4.56,0,0,0-3.87-2,4.81,4.81,0,0,0,0,9.61,4.4,4.4,0,0,0,3.85-2l2.55,1.77a7.24,7.24,0,0,1-6.53,3.58A8,8,0,0,1,0,410Z"/><path class="cls-2" d="M29,412.54H27v5.27H23.36V401.48h5.93c3.47,0,5.86,2.19,5.86,5.66a5,5,0,0,1-2.85,4.78l3.7,5.89H32.19Zm-2-3.1h1.93c1.47,0,2.55-.55,2.55-2.3s-1.08-2.32-2.55-2.32H27Z"/><path class="cls-2" d="M54.28,414.47v3.34H44.63V401.48h9.44v3.34H48.26v3.12h4.87v3.29H48.26v3.24Z"/><path class="cls-2" d="M73.43,415.21H66.81l-.92,2.6H62l6.23-16.33h3.86l6.24,16.33h-4Zm-1.21-3.36L70.12,406,68,411.85Z"/><path class="cls-2" d="M94.5,404.82H90.72v13H87.09v-13H83.32v-3.34H94.5Z"/><path class="cls-2" d="M103,401.48h3.63v16.33H103Z"/><path class="cls-2" d="M114.87,401.48h3.93l4.2,11.84,4.23-11.84h3.93L125,417.81h-3.9Z"/><path class="cls-2" d="M149.1,414.47v3.34h-9.66V401.48h9.45v3.34h-5.81v3.12H148v3.29h-4.87v3.24Z"/><path class="cls-2" d="M199.57,412.54h-2v5.27H194V401.48h5.93c3.47,0,5.86,2.19,5.86,5.66a5,5,0,0,1-2.85,4.78l3.73,5.89h-3.84Zm-2-3.1h1.93c1.47,0,2.55-.55,2.55-2.3s-1.08-2.32-2.55-2.32h-1.93Z"/><path class="cls-2" d="M214.42,409.65a8.23,8.23,0,1,1,8.3,8.16h-.07a8,8,0,0,1-8.23-7.76Zm12.82,0a4.59,4.59,0,1,0-4.59,4.8,4.55,4.55,0,0,0,4.6-4.5c0-.1,0-.2,0-.3Z"/><path class="cls-2" d="M239.89,411.48v-10h3.58v10c0,2.41,1.47,2.95,2.63,2.95s2.63-.54,2.63-2.95v-10h3.58v10a5.9,5.9,0,0,1-5.47,6.32,6.06,6.06,0,0,1-.74,0C242.65,417.81,239.89,415.61,239.89,411.48Z"/><path class="cls-2" d="M273.28,407.14c0,3.4-2.39,5.61-5.93,5.61H265v5.06h-3.63V401.48h6C270.89,401.48,273.28,403.67,273.28,407.14Zm-3.68,0c0-1.75-1.13-2.32-2.6-2.32h-2v4.6h2C268.47,409.42,269.6,408.89,269.6,407.14Z"/><path class="cls-2" d="M177.77,417.81a8.17,8.17,0,0,1-.47-16.33h.56a7.26,7.26,0,0,1,6.51,3.58l-2.55,1.77a4.75,4.75,0,0,0-8.61,2.82,4.59,4.59,0,0,0,4.25,4.91h.45a3.5,3.5,0,0,0,3.71-2.78h-2.56l-1-2.93H185C185.87,414.5,182.2,417.81,177.77,417.81Z"/><path class="cls-1" d="M24.72,393.32C11.38,393.32,0,383.69,0,368.74s11.52-24.59,25-24.59c6.67,0,14.68,2.42,19.6,10.78l-7.68,5.32a13.5,13.5,0,0,0-11.78-6c-7.89,0-14.15,5.39-14.15,14.49s6,14.81,14.14,14.81c5,0,9.63-2.15,11.18-8.35h-7.7l-2.95-8.82h21C49.1,383.35,38.06,393.32,24.72,393.32Z"/><path class="cls-1" d="M69.6,377.46h-6v15.86H52.7V344.15H70.57c10.45,0,17.66,6.58,17.66,17,0,6.92-3.26,11.84-8.59,14.4l11.22,17.73H79.29Zm-6-9.35h5.82c4.43,0,7.68-1.66,7.68-6.92s-3.25-7-7.68-7H63.64Z"/><path class="cls-1" d="M127.08,385.5h-20l-2.77,7.82H92.52l18.77-49.17h11.63l18.77,49.17H129.85Zm-3.67-10.12-6.3-17.73-6.31,17.73Z"/><path class="cls-1" d="M156.38,354.12V364h13.09l3.18,9.35H156.38v20H145.43v-49.2h28.12v10Z"/><path class="cls-1" d="M190,354.12V364h13.1l3.18,9.35H190v20H179v-49.2h28.12v10Z"/><path class="cls-1" d="M260.47,393.32l-10.05-15.17-10,15.17H227.64l16.41-24.79-16.13-24.38h12.81l9.76,14.68,9.7-14.68h12.74l-16.06,24.31,16.41,24.86Z"/><path class="cls-1" d="M212.61,344.15h10.94v49.17H212.61Z"/><path class="cls-2" d="M267,219.87c-5.94-3.24-7.22-10-9.84-14.23s-6-4.38-17.14-5.6a60.74,60.74,0,0,1-10.57-2.46,4.24,4.24,0,0,1-2.88-5,35.33,35.33,0,0,0,0-15.18c6,4.09,8,11.22,8,11.22,3.27-30.5-14-35.13-22.08-41a26.46,26.46,0,0,1-10.32-14.57c-.37-1.59-1-6,3-6.56,5-.67,11,1.11,14.09,2.25v8.39c9.82-3.16,10.72-14.68,10.62-19.53a3.3,3.3,0,0,0-2.25-3l-13.88-4.7a4.88,4.88,0,0,0-.54-6.79,26.88,26.88,0,0,0-4.12-2.91c-1-9.53-9.69-13.66-9.69-13.66A29,29,0,0,1,201.26,97a46,46,0,0,0-15.49-1.51,3.11,3.11,0,0,1-2-.58L159.4,77.34a20,20,0,0,0,4.33,12.75c3,3.87,15.34,16.45,15.34,16.45l-5-2.89a2.71,2.71,0,0,0-3.8.59l0,0c-8,12-7.58,28.3-6.58,37.06a3,3,0,0,1-2.61,3.24,2.91,2.91,0,0,1-1.82-.4c-6.23-3.79-7.35-11.31-7.31-15.39a14.41,14.41,0,0,1,.38-3c1.28-5.56,5.93-25.36,5.93-25.36a10,10,0,0,0-4.62-10.88c-.08-.06-14.24-9.16-46.58-48.62C97.68,29.48,86.7,14.52,84.55,0c0,0-11.74,7.71-1.52,32.08,0,0-7.89-7.6-11.5-15.7,0,0-4.71,8.31,4.16,24a46.51,46.51,0,0,1-10.14-8.52V32a16.21,16.21,0,0,0,8,15.51l45.06,25.92L65.28,48.92a78.74,78.74,0,0,1-10.07-5.53C47.08,38.12,32.6,27.67,26.06,16.32c0,0-11.38,14.68,12.71,38.81a74.63,74.63,0,0,0,7.69,6.63C35.64,56.38,25.28,49.81,17,41.89c0,0-8.44,17.89,20.55,35.43a103.84,103.84,0,0,0,17.94,8.3c-14.14-3.3-28.6-8.16-41.07-15.33,0,0-1.43,19.13,32.55,30.82a104.2,104.2,0,0,0,12.52,3.38A143.68,143.68,0,0,1,24.6,99s5.57,16.63,37.79,20.48q3.23.39,6.54.52a136.48,136.48,0,0,1-29.62.89s10.41,13.27,38,12.61a119.17,119.17,0,0,1-19.41,3.24s13.71,10.95,39,6.46a90.9,90.9,0,0,1-10.75,5.08,22.39,22.39,0,0,0,15.2,2.07c23.41-4.7,26.63,6.22,19.39,6.22l-22.68-.76c-23.23-.9-34.94,8.64-43.26,19.19h0s-14.11,19.14-30.54,16.71A19.51,19.51,0,0,1,7.17,172.1c.15-11.12,7.51-18.76,19.76-19.95.39,0,2.61-.21,3,1.4a10.1,10.1,0,0,0,2.84,4.82c8,7.66,24.1,1,28.68-3.21a1,1,0,0,0,0-1.41.92.92,0,0,0-.25-.19,37.33,37.33,0,0,1-10.31-7.63c-7-7.56-14.1-4.62-18.07-.57a1.9,1.9,0,0,1-1.56.57c-2.67-.24-32.18-1-31.28,29.45.5,16.78,13.6,24.22,22.24,25.63a38.22,38.22,0,0,0,33-10c9.9-9.34,11.55-12.64,11.55-12.64C65.2,193,52.64,212.79,27.23,216.15a3.13,3.13,0,0,0-2.71,2.68L21.4,243a3.08,3.08,0,0,0,.88,2.59L29,252.3a9.85,9.85,0,0,0,7,2.89H56.25s-.19-7.36-9-9.51S38.16,228,49.26,228c10.3,0,25.7.61,37.59-16.5,1.77-2.55,4-8.54,12.94-8.24-7.63,1.38-8.37,6.59-8.37,6.59,6.25,3.06,12.94,8.44,8.23,28.59a3.13,3.13,0,0,0,.84,2.92l11.13,11a9.86,9.86,0,0,0,6.94,2.85h22.62s.26-8.3-9.9-10.44-12.3-6.85-11-12.93c.65-3,4-9.22,6.43-14.8a3.89,3.89,0,0,0-.88-4.3l-7.19-7s14.68,11.13,31.92,13.78a3.1,3.1,0,0,0,3.38-3.62,17,17,0,0,0-4.81-9c8.34,6.06,9.09,13.73,9.22,18.52a3,3,0,0,0,2.41,2.9c4.88,1.06,16.41,4.45,25.33,14.14,1.33,1.44.7,3-1,3.67s-6.79-2-9.69,1.15c-3.38,3.66.24,7.87.24,7.87s.13-1.6,2.74-1.77a2.63,2.63,0,0,1,2,.69,8,8,0,0,0,3.62,1.06h11.14a5.53,5.53,0,0,0,2.93-.86,5,5,0,0,1,5-.14,6.78,6.78,0,0,0,3.45,1h14.83c2.73,0,4.82-1.13,4.85-3.86,1.71.16,5.18-.1,5.61,3.86,0,0,3.44-2.41,1-6.87-4.47-8.19-24.39.76-35.37-13.29a57.57,57.57,0,0,1-7.8-12.29,3.08,3.08,0,0,1,1.47-4.09,3.35,3.35,0,0,1,.53-.19c3.81-1,9.89-2.89,13.83-5.43-.95,1.73-4.33,4.18-4.33,4.18l5.29,2a3.08,3.08,0,0,0,3.34-.74c2.79-2.88,9.71-8.89,18.95-8.72l3.95.21s-7,2.52-8.45,7.45a6.21,6.21,0,0,0,2.89,7.2,2.69,2.69,0,0,1,.94-3.46c1.35-.89,3-.78,5.7-2.41s4.66-5.66,9.22-5.9,7.17,7.15,8.39,13.38,3.66,3,4,6.88a4,4,0,0,1-3.17,4.49s1.51,2.1,6,.37,3.38-7,3.38-7l-2-6.63c2.74,4.06,8,3.35,9.5,4.89s0,5.06,0,5.06a7,7,0,0,0,4.12-5.31C273.69,226.22,272.92,223.11,267,219.87Z"/></svg>